<mxfile host="app.diagrams.net" modified="2023-04-13T02:21:01.488Z" agent="Mozilla/5.0 (Macintosh; Intel Mac OS X 10_15_7) AppleWebKit/537.36 (KHTML, like Gecko) Chrome/111.0.0.0 Safari/537.36" etag="YMDyuspCvp8HkCXndEcI" version="21.1.1" type="device" pages="6">
  <diagram name="inicializacijaKnjiznice" id="gIkWGQzfXBMchOfqXwKA">
    <mxGraphModel dx="2236" dy="1495" grid="1" gridSize="10" guides="1" tooltips="1" connect="1" arrows="1" fold="1" page="1" pageScale="1" pageWidth="1100" pageHeight="850" background="none" math="0" shadow="0">
      <root>
        <mxCell id="kG8MOpoZJlM2QHEIAGsJ-0" />
        <mxCell id="kG8MOpoZJlM2QHEIAGsJ-1" parent="kG8MOpoZJlM2QHEIAGsJ-0" />
        <mxCell id="kG8MOpoZJlM2QHEIAGsJ-2" value="Baza sinhronizacijskih podatkov" style="shape=umlLifeline;perimeter=lifelinePerimeter;whiteSpace=wrap;html=1;container=1;collapsible=0;recursiveResize=0;outlineConnect=0;rounded=1;shadow=0;comic=0;labelBackgroundColor=none;strokeWidth=1;fontFamily=Verdana;fontSize=12;align=center;" vertex="1" parent="kG8MOpoZJlM2QHEIAGsJ-1">
          <mxGeometry x="240" y="80" width="100" height="2180" as="geometry" />
        </mxCell>
        <mxCell id="kG8MOpoZJlM2QHEIAGsJ-4" value="" style="html=1;points=[];perimeter=orthogonalPerimeter;outlineConnect=0;targetShapes=umlLifeline;portConstraint=eastwest;newEdgeStyle={&quot;edgeStyle&quot;:&quot;elbowEdgeStyle&quot;,&quot;elbow&quot;:&quot;vertical&quot;,&quot;curved&quot;:0,&quot;rounded&quot;:0};" vertex="1" parent="kG8MOpoZJlM2QHEIAGsJ-2">
          <mxGeometry x="45" y="130" width="10" height="50" as="geometry" />
        </mxCell>
        <mxCell id="kG8MOpoZJlM2QHEIAGsJ-6" value="Baza konfliktih podatkov" style="shape=umlLifeline;perimeter=lifelinePerimeter;whiteSpace=wrap;html=1;container=1;collapsible=0;recursiveResize=0;outlineConnect=0;rounded=1;shadow=0;comic=0;labelBackgroundColor=none;strokeWidth=1;fontFamily=Verdana;fontSize=12;align=center;" vertex="1" parent="kG8MOpoZJlM2QHEIAGsJ-1">
          <mxGeometry x="400" y="80" width="100" height="2160" as="geometry" />
        </mxCell>
        <mxCell id="kG8MOpoZJlM2QHEIAGsJ-8" value="" style="html=1;points=[];perimeter=orthogonalPerimeter;outlineConnect=0;targetShapes=umlLifeline;portConstraint=eastwest;newEdgeStyle={&quot;edgeStyle&quot;:&quot;elbowEdgeStyle&quot;,&quot;elbow&quot;:&quot;vertical&quot;,&quot;curved&quot;:0,&quot;rounded&quot;:0};" vertex="1" parent="kG8MOpoZJlM2QHEIAGsJ-6">
          <mxGeometry x="45" y="170" width="10" height="40" as="geometry" />
        </mxCell>
        <mxCell id="kG8MOpoZJlM2QHEIAGsJ-10" value="Baza za ponovne poskuse" style="shape=umlLifeline;perimeter=lifelinePerimeter;whiteSpace=wrap;html=1;container=1;collapsible=0;recursiveResize=0;outlineConnect=0;rounded=1;shadow=0;comic=0;labelBackgroundColor=none;strokeWidth=1;fontFamily=Verdana;fontSize=12;align=center;" vertex="1" parent="kG8MOpoZJlM2QHEIAGsJ-1">
          <mxGeometry x="540" y="80" width="100" height="2160" as="geometry" />
        </mxCell>
        <mxCell id="kG8MOpoZJlM2QHEIAGsJ-11" value="" style="html=1;points=[];perimeter=orthogonalPerimeter;outlineConnect=0;targetShapes=umlLifeline;portConstraint=eastwest;newEdgeStyle={&quot;edgeStyle&quot;:&quot;elbowEdgeStyle&quot;,&quot;elbow&quot;:&quot;vertical&quot;,&quot;curved&quot;:0,&quot;rounded&quot;:0};" vertex="1" parent="kG8MOpoZJlM2QHEIAGsJ-10">
          <mxGeometry x="45" y="220" width="10" height="40" as="geometry" />
        </mxCell>
        <mxCell id="kG8MOpoZJlM2QHEIAGsJ-13" value="Baza za začasne podatke" style="shape=umlLifeline;perimeter=lifelinePerimeter;whiteSpace=wrap;html=1;container=1;collapsible=0;recursiveResize=0;outlineConnect=0;rounded=1;shadow=0;comic=0;labelBackgroundColor=none;strokeWidth=1;fontFamily=Verdana;fontSize=12;align=center;" vertex="1" parent="kG8MOpoZJlM2QHEIAGsJ-1">
          <mxGeometry x="680" y="80" width="100" height="2160" as="geometry" />
        </mxCell>
        <mxCell id="kG8MOpoZJlM2QHEIAGsJ-14" value="" style="html=1;points=[];perimeter=orthogonalPerimeter;outlineConnect=0;targetShapes=umlLifeline;portConstraint=eastwest;newEdgeStyle={&quot;edgeStyle&quot;:&quot;elbowEdgeStyle&quot;,&quot;elbow&quot;:&quot;vertical&quot;,&quot;curved&quot;:0,&quot;rounded&quot;:0};" vertex="1" parent="kG8MOpoZJlM2QHEIAGsJ-13">
          <mxGeometry x="45" y="270" width="10" height="30" as="geometry" />
        </mxCell>
        <mxCell id="kG8MOpoZJlM2QHEIAGsJ-15" value="Procesorska nit za sinhronizacijo" style="shape=umlLifeline;perimeter=lifelinePerimeter;whiteSpace=wrap;html=1;container=1;collapsible=0;recursiveResize=0;outlineConnect=0;rounded=1;shadow=0;comic=0;labelBackgroundColor=none;strokeWidth=1;fontFamily=Verdana;fontSize=12;align=center;" vertex="1" parent="kG8MOpoZJlM2QHEIAGsJ-1">
          <mxGeometry x="820" y="80" width="100" height="2160" as="geometry" />
        </mxCell>
        <mxCell id="kG8MOpoZJlM2QHEIAGsJ-16" value="" style="html=1;points=[];perimeter=orthogonalPerimeter;outlineConnect=0;targetShapes=umlLifeline;portConstraint=eastwest;newEdgeStyle={&quot;edgeStyle&quot;:&quot;elbowEdgeStyle&quot;,&quot;elbow&quot;:&quot;vertical&quot;,&quot;curved&quot;:0,&quot;rounded&quot;:0};" vertex="1" parent="kG8MOpoZJlM2QHEIAGsJ-15">
          <mxGeometry x="45" y="300" width="10" height="80" as="geometry" />
        </mxCell>
        <mxCell id="kG8MOpoZJlM2QHEIAGsJ-17" value="Procesorska nit za ponovni poskus" style="shape=umlLifeline;perimeter=lifelinePerimeter;whiteSpace=wrap;html=1;container=1;collapsible=0;recursiveResize=0;outlineConnect=0;rounded=1;shadow=0;comic=0;labelBackgroundColor=none;strokeWidth=1;fontFamily=Verdana;fontSize=12;align=center;" vertex="1" parent="kG8MOpoZJlM2QHEIAGsJ-1">
          <mxGeometry x="960" y="80" width="100" height="2160" as="geometry" />
        </mxCell>
        <mxCell id="kG8MOpoZJlM2QHEIAGsJ-18" value="" style="html=1;points=[];perimeter=orthogonalPerimeter;outlineConnect=0;targetShapes=umlLifeline;portConstraint=eastwest;newEdgeStyle={&quot;edgeStyle&quot;:&quot;elbowEdgeStyle&quot;,&quot;elbow&quot;:&quot;vertical&quot;,&quot;curved&quot;:0,&quot;rounded&quot;:0};" vertex="1" parent="kG8MOpoZJlM2QHEIAGsJ-17">
          <mxGeometry x="45" y="390" width="10" height="50" as="geometry" />
        </mxCell>
        <mxCell id="kG8MOpoZJlM2QHEIAGsJ-19" value="Sinhronizacijska knjižnica" style="shape=umlLifeline;perimeter=lifelinePerimeter;whiteSpace=wrap;html=1;container=1;collapsible=0;recursiveResize=0;outlineConnect=0;rounded=1;shadow=0;comic=0;labelBackgroundColor=none;strokeWidth=1;fontFamily=Verdana;fontSize=12;align=center;" vertex="1" parent="kG8MOpoZJlM2QHEIAGsJ-1">
          <mxGeometry x="101.43" y="90" width="100" height="2170" as="geometry" />
        </mxCell>
        <mxCell id="kG8MOpoZJlM2QHEIAGsJ-21" value="" style="html=1;points=[];perimeter=orthogonalPerimeter;outlineConnect=0;targetShapes=umlLifeline;portConstraint=eastwest;newEdgeStyle={&quot;edgeStyle&quot;:&quot;elbowEdgeStyle&quot;,&quot;elbow&quot;:&quot;vertical&quot;,&quot;curved&quot;:0,&quot;rounded&quot;:0};" vertex="1" parent="kG8MOpoZJlM2QHEIAGsJ-19">
          <mxGeometry x="44.57" y="120" width="10" height="520" as="geometry" />
        </mxCell>
        <mxCell id="kG8MOpoZJlM2QHEIAGsJ-23" value="" style="html=1;points=[];perimeter=orthogonalPerimeter;outlineConnect=0;targetShapes=umlLifeline;portConstraint=eastwest;newEdgeStyle={&quot;edgeStyle&quot;:&quot;elbowEdgeStyle&quot;,&quot;elbow&quot;:&quot;vertical&quot;,&quot;curved&quot;:0,&quot;rounded&quot;:0};" vertex="1" parent="kG8MOpoZJlM2QHEIAGsJ-19">
          <mxGeometry x="49.56999999999999" y="460" width="10" height="40" as="geometry" />
        </mxCell>
        <mxCell id="kG8MOpoZJlM2QHEIAGsJ-24" value="Inicializacija naročnine na obvestila" style="html=1;align=left;spacingLeft=2;endArrow=block;rounded=0;edgeStyle=orthogonalEdgeStyle;curved=0;rounded=0;" edge="1" parent="kG8MOpoZJlM2QHEIAGsJ-19" target="kG8MOpoZJlM2QHEIAGsJ-23">
          <mxGeometry relative="1" as="geometry">
            <mxPoint x="54.56999999999999" y="440" as="sourcePoint" />
            <Array as="points">
              <mxPoint x="84.57" y="470" />
            </Array>
          </mxGeometry>
        </mxCell>
        <mxCell id="kG8MOpoZJlM2QHEIAGsJ-25" value="" style="html=1;points=[];perimeter=orthogonalPerimeter;outlineConnect=0;targetShapes=umlLifeline;portConstraint=eastwest;newEdgeStyle={&quot;edgeStyle&quot;:&quot;elbowEdgeStyle&quot;,&quot;elbow&quot;:&quot;vertical&quot;,&quot;curved&quot;:0,&quot;rounded&quot;:0};" vertex="1" parent="kG8MOpoZJlM2QHEIAGsJ-19">
          <mxGeometry x="49.56999999999999" y="530" width="10" height="40" as="geometry" />
        </mxCell>
        <mxCell id="kG8MOpoZJlM2QHEIAGsJ-26" value="Inicializacija intervala za samodejno sinronizacijo" style="html=1;align=left;spacingLeft=2;endArrow=block;rounded=0;edgeStyle=orthogonalEdgeStyle;curved=0;rounded=0;" edge="1" parent="kG8MOpoZJlM2QHEIAGsJ-19" target="kG8MOpoZJlM2QHEIAGsJ-25">
          <mxGeometry relative="1" as="geometry">
            <mxPoint x="54.56999999999999" y="510" as="sourcePoint" />
            <Array as="points">
              <mxPoint x="84.57" y="540" />
            </Array>
          </mxGeometry>
        </mxCell>
        <mxCell id="kG8MOpoZJlM2QHEIAGsJ-47" value="Dostopna tocka do sinhronizacijske knjiznice na brskalniku" style="shape=note;whiteSpace=wrap;html=1;size=14;verticalAlign=top;align=left;spacingTop=-6;rounded=0;shadow=0;comic=0;labelBackgroundColor=none;strokeWidth=1;fontFamily=Verdana;fontSize=12" vertex="1" parent="kG8MOpoZJlM2QHEIAGsJ-1">
          <mxGeometry x="92.86" y="10" width="117.14" height="70" as="geometry" />
        </mxCell>
        <mxCell id="kG8MOpoZJlM2QHEIAGsJ-48" value="Operacije z bazo so asinhrone, ampak jih izvajamo tako, da postane logika sinhrona" style="shape=note;whiteSpace=wrap;html=1;size=14;verticalAlign=top;align=left;spacingTop=-6;rounded=0;shadow=0;comic=0;labelBackgroundColor=none;strokeWidth=1;fontFamily=Verdana;fontSize=12" vertex="1" parent="kG8MOpoZJlM2QHEIAGsJ-1">
          <mxGeometry x="240" y="-30" width="540" height="90" as="geometry" />
        </mxCell>
        <mxCell id="kG8MOpoZJlM2QHEIAGsJ-56" value="Aplikacija brskalnika" style="shape=umlLifeline;perimeter=lifelinePerimeter;whiteSpace=wrap;html=1;container=1;collapsible=0;recursiveResize=0;outlineConnect=0;rounded=1;shadow=0;comic=0;labelBackgroundColor=none;strokeWidth=1;fontFamily=Verdana;fontSize=12;align=center;" vertex="1" parent="kG8MOpoZJlM2QHEIAGsJ-1">
          <mxGeometry x="-160" y="90" width="100" height="2190" as="geometry" />
        </mxCell>
        <mxCell id="kG8MOpoZJlM2QHEIAGsJ-58" value="" style="html=1;points=[];perimeter=orthogonalPerimeter;outlineConnect=0;targetShapes=umlLifeline;portConstraint=eastwest;newEdgeStyle={&quot;edgeStyle&quot;:&quot;elbowEdgeStyle&quot;,&quot;elbow&quot;:&quot;vertical&quot;,&quot;curved&quot;:0,&quot;rounded&quot;:0};" vertex="1" parent="kG8MOpoZJlM2QHEIAGsJ-56">
          <mxGeometry x="45" y="170" width="10" height="160" as="geometry" />
        </mxCell>
        <mxCell id="kG8MOpoZJlM2QHEIAGsJ-62" value="" style="shape=umlLifeline;perimeter=lifelinePerimeter;whiteSpace=wrap;html=1;container=1;dropTarget=0;collapsible=0;recursiveResize=0;outlineConnect=0;portConstraint=eastwest;newEdgeStyle={&quot;edgeStyle&quot;:&quot;elbowEdgeStyle&quot;,&quot;elbow&quot;:&quot;vertical&quot;,&quot;curved&quot;:0,&quot;rounded&quot;:0};participant=umlActor;" vertex="1" parent="kG8MOpoZJlM2QHEIAGsJ-1">
          <mxGeometry x="-290" y="100" width="20" height="800" as="geometry" />
        </mxCell>
        <mxCell id="kG8MOpoZJlM2QHEIAGsJ-63" value="" style="endArrow=classic;html=1;rounded=0;" edge="1" parent="kG8MOpoZJlM2QHEIAGsJ-1" target="kG8MOpoZJlM2QHEIAGsJ-58">
          <mxGeometry width="50" height="50" relative="1" as="geometry">
            <mxPoint x="-280" y="270" as="sourcePoint" />
            <mxPoint x="-230" y="220" as="targetPoint" />
          </mxGeometry>
        </mxCell>
        <mxCell id="kG8MOpoZJlM2QHEIAGsJ-64" value="Uporabnik odpre aplikacijo" style="edgeLabel;html=1;align=center;verticalAlign=middle;resizable=0;points=[];" vertex="1" connectable="0" parent="kG8MOpoZJlM2QHEIAGsJ-63">
          <mxGeometry x="-0.115" y="-1" relative="1" as="geometry">
            <mxPoint y="1" as="offset" />
          </mxGeometry>
        </mxCell>
        <mxCell id="kG8MOpoZJlM2QHEIAGsJ-65" value="" style="endArrow=classic;html=1;rounded=0;" edge="1" parent="kG8MOpoZJlM2QHEIAGsJ-1" source="kG8MOpoZJlM2QHEIAGsJ-58" target="kG8MOpoZJlM2QHEIAGsJ-21">
          <mxGeometry width="50" height="50" relative="1" as="geometry">
            <mxPoint x="-90" y="290" as="sourcePoint" />
            <mxPoint x="130" y="340" as="targetPoint" />
          </mxGeometry>
        </mxCell>
        <mxCell id="kG8MOpoZJlM2QHEIAGsJ-66" value="Inicializacija sinhronizacijske knjižnice" style="edgeLabel;html=1;align=center;verticalAlign=middle;resizable=0;points=[];" vertex="1" connectable="0" parent="kG8MOpoZJlM2QHEIAGsJ-65">
          <mxGeometry x="-0.2412" relative="1" as="geometry">
            <mxPoint x="21" y="1" as="offset" />
          </mxGeometry>
        </mxCell>
        <mxCell id="kG8MOpoZJlM2QHEIAGsJ-67" style="edgeStyle=elbowEdgeStyle;rounded=0;orthogonalLoop=1;jettySize=auto;html=1;elbow=vertical;curved=0;entryX=-0.336;entryY=0.121;entryDx=0;entryDy=0;entryPerimeter=0;" edge="1" parent="kG8MOpoZJlM2QHEIAGsJ-1" source="kG8MOpoZJlM2QHEIAGsJ-21" target="kG8MOpoZJlM2QHEIAGsJ-4">
          <mxGeometry relative="1" as="geometry" />
        </mxCell>
        <mxCell id="kG8MOpoZJlM2QHEIAGsJ-68" value="Inicializacija baze" style="edgeLabel;html=1;align=center;verticalAlign=middle;resizable=0;points=[];" vertex="1" connectable="0" parent="kG8MOpoZJlM2QHEIAGsJ-67">
          <mxGeometry x="-0.2868" y="2" relative="1" as="geometry">
            <mxPoint y="1" as="offset" />
          </mxGeometry>
        </mxCell>
        <mxCell id="kG8MOpoZJlM2QHEIAGsJ-69" style="edgeStyle=elbowEdgeStyle;rounded=0;orthogonalLoop=1;jettySize=auto;html=1;elbow=vertical;curved=0;" edge="1" parent="kG8MOpoZJlM2QHEIAGsJ-1" source="kG8MOpoZJlM2QHEIAGsJ-21" target="kG8MOpoZJlM2QHEIAGsJ-8">
          <mxGeometry relative="1" as="geometry" />
        </mxCell>
        <mxCell id="kG8MOpoZJlM2QHEIAGsJ-70" value="Inicializacija baze" style="edgeLabel;html=1;align=center;verticalAlign=middle;resizable=0;points=[];" vertex="1" connectable="0" parent="kG8MOpoZJlM2QHEIAGsJ-69">
          <mxGeometry x="-0.5986" y="1" relative="1" as="geometry">
            <mxPoint y="1" as="offset" />
          </mxGeometry>
        </mxCell>
        <mxCell id="kG8MOpoZJlM2QHEIAGsJ-71" style="edgeStyle=elbowEdgeStyle;rounded=0;orthogonalLoop=1;jettySize=auto;html=1;elbow=vertical;curved=0;entryX=0.027;entryY=0.318;entryDx=0;entryDy=0;entryPerimeter=0;" edge="1" parent="kG8MOpoZJlM2QHEIAGsJ-1" source="kG8MOpoZJlM2QHEIAGsJ-21" target="kG8MOpoZJlM2QHEIAGsJ-11">
          <mxGeometry relative="1" as="geometry" />
        </mxCell>
        <mxCell id="kG8MOpoZJlM2QHEIAGsJ-72" value="Inicializacija baze" style="edgeLabel;html=1;align=center;verticalAlign=middle;resizable=0;points=[];" vertex="1" connectable="0" parent="kG8MOpoZJlM2QHEIAGsJ-71">
          <mxGeometry x="-0.6686" y="4" relative="1" as="geometry">
            <mxPoint y="1" as="offset" />
          </mxGeometry>
        </mxCell>
        <mxCell id="kG8MOpoZJlM2QHEIAGsJ-73" style="edgeStyle=elbowEdgeStyle;rounded=0;orthogonalLoop=1;jettySize=auto;html=1;elbow=vertical;curved=0;entryX=0.5;entryY=0.375;entryDx=0;entryDy=0;entryPerimeter=0;" edge="1" parent="kG8MOpoZJlM2QHEIAGsJ-1" source="kG8MOpoZJlM2QHEIAGsJ-21" target="kG8MOpoZJlM2QHEIAGsJ-16">
          <mxGeometry relative="1" as="geometry" />
        </mxCell>
        <mxCell id="kG8MOpoZJlM2QHEIAGsJ-74" value="Inicializacija procesorske niti za sinhronizacijo" style="edgeLabel;html=1;align=center;verticalAlign=middle;resizable=0;points=[];" vertex="1" connectable="0" parent="kG8MOpoZJlM2QHEIAGsJ-73">
          <mxGeometry x="-0.8179" y="2" relative="1" as="geometry">
            <mxPoint x="224" as="offset" />
          </mxGeometry>
        </mxCell>
        <mxCell id="kG8MOpoZJlM2QHEIAGsJ-75" style="edgeStyle=elbowEdgeStyle;rounded=0;orthogonalLoop=1;jettySize=auto;html=1;elbow=vertical;curved=0;entryX=-0.245;entryY=0.218;entryDx=0;entryDy=0;entryPerimeter=0;" edge="1" parent="kG8MOpoZJlM2QHEIAGsJ-1" source="kG8MOpoZJlM2QHEIAGsJ-21" target="kG8MOpoZJlM2QHEIAGsJ-18">
          <mxGeometry relative="1" as="geometry" />
        </mxCell>
        <mxCell id="kG8MOpoZJlM2QHEIAGsJ-76" value="Inicializacija procesorske niti za posnovne poskuse" style="edgeLabel;html=1;align=center;verticalAlign=middle;resizable=0;points=[];" vertex="1" connectable="0" parent="kG8MOpoZJlM2QHEIAGsJ-75">
          <mxGeometry x="-0.2226" y="-1" relative="1" as="geometry">
            <mxPoint as="offset" />
          </mxGeometry>
        </mxCell>
        <mxCell id="kG8MOpoZJlM2QHEIAGsJ-77" value="Instanca baze" style="html=1;verticalAlign=bottom;endArrow=open;dashed=1;endSize=8;edgeStyle=elbowEdgeStyle;elbow=vertical;curved=0;rounded=0;" edge="1" parent="kG8MOpoZJlM2QHEIAGsJ-1" source="kG8MOpoZJlM2QHEIAGsJ-4" target="kG8MOpoZJlM2QHEIAGsJ-21">
          <mxGeometry relative="1" as="geometry">
            <mxPoint x="260" y="280" as="sourcePoint" />
            <mxPoint x="151.06043478260835" y="235" as="targetPoint" />
            <Array as="points">
              <mxPoint x="150" y="260" />
            </Array>
          </mxGeometry>
        </mxCell>
        <mxCell id="kG8MOpoZJlM2QHEIAGsJ-78" value="Instanca baze" style="html=1;verticalAlign=bottom;endArrow=open;dashed=1;endSize=8;edgeStyle=elbowEdgeStyle;elbow=vertical;curved=0;rounded=0;entryX=1.109;entryY=0.151;entryDx=0;entryDy=0;entryPerimeter=0;" edge="1" parent="kG8MOpoZJlM2QHEIAGsJ-1" source="kG8MOpoZJlM2QHEIAGsJ-8" target="kG8MOpoZJlM2QHEIAGsJ-21">
          <mxGeometry relative="1" as="geometry">
            <mxPoint x="430" y="349.54999999999995" as="sourcePoint" />
            <mxPoint x="350" y="349.54999999999995" as="targetPoint" />
          </mxGeometry>
        </mxCell>
        <mxCell id="kG8MOpoZJlM2QHEIAGsJ-79" value="Instanca baze" style="html=1;verticalAlign=bottom;endArrow=open;dashed=1;endSize=8;edgeStyle=elbowEdgeStyle;elbow=vertical;curved=0;rounded=0;" edge="1" parent="kG8MOpoZJlM2QHEIAGsJ-1" source="kG8MOpoZJlM2QHEIAGsJ-11" target="kG8MOpoZJlM2QHEIAGsJ-21">
          <mxGeometry relative="1" as="geometry">
            <mxPoint x="560" y="400" as="sourcePoint" />
            <mxPoint x="480" y="400" as="targetPoint" />
          </mxGeometry>
        </mxCell>
        <mxCell id="kG8MOpoZJlM2QHEIAGsJ-80" value="Instanca baze" style="html=1;verticalAlign=bottom;endArrow=open;dashed=1;endSize=8;edgeStyle=elbowEdgeStyle;elbow=vertical;curved=0;rounded=0;entryX=1.018;entryY=0.324;entryDx=0;entryDy=0;entryPerimeter=0;" edge="1" parent="kG8MOpoZJlM2QHEIAGsJ-1" source="kG8MOpoZJlM2QHEIAGsJ-14" target="kG8MOpoZJlM2QHEIAGsJ-21">
          <mxGeometry relative="1" as="geometry">
            <mxPoint x="600" y="450" as="sourcePoint" />
            <mxPoint x="520" y="450" as="targetPoint" />
          </mxGeometry>
        </mxCell>
        <mxCell id="kG8MOpoZJlM2QHEIAGsJ-81" value="Instanca niti za manipuliranje" style="html=1;verticalAlign=bottom;endArrow=open;dashed=1;endSize=8;edgeStyle=elbowEdgeStyle;elbow=vertical;curved=0;rounded=0;" edge="1" parent="kG8MOpoZJlM2QHEIAGsJ-1" source="kG8MOpoZJlM2QHEIAGsJ-16">
          <mxGeometry relative="1" as="geometry">
            <mxPoint x="770" y="440" as="sourcePoint" />
            <mxPoint x="160" y="430" as="targetPoint" />
          </mxGeometry>
        </mxCell>
        <mxCell id="kG8MOpoZJlM2QHEIAGsJ-82" value="Instanca niti za manipuliranje" style="html=1;verticalAlign=bottom;endArrow=open;dashed=1;endSize=8;edgeStyle=elbowEdgeStyle;elbow=vertical;curved=0;rounded=0;entryX=1.109;entryY=0.571;entryDx=0;entryDy=0;entryPerimeter=0;" edge="1" parent="kG8MOpoZJlM2QHEIAGsJ-1" source="kG8MOpoZJlM2QHEIAGsJ-18" target="kG8MOpoZJlM2QHEIAGsJ-21">
          <mxGeometry relative="1" as="geometry">
            <mxPoint x="690" y="510" as="sourcePoint" />
            <mxPoint x="200" y="511" as="targetPoint" />
          </mxGeometry>
        </mxCell>
        <mxCell id="kG8MOpoZJlM2QHEIAGsJ-83" style="edgeStyle=elbowEdgeStyle;rounded=0;orthogonalLoop=1;jettySize=auto;html=1;elbow=vertical;curved=0;entryX=-0.155;entryY=0.364;entryDx=0;entryDy=0;entryPerimeter=0;" edge="1" parent="kG8MOpoZJlM2QHEIAGsJ-1" source="kG8MOpoZJlM2QHEIAGsJ-21" target="kG8MOpoZJlM2QHEIAGsJ-14">
          <mxGeometry relative="1" as="geometry" />
        </mxCell>
        <mxCell id="kG8MOpoZJlM2QHEIAGsJ-84" value="Inicializacija baze" style="edgeLabel;html=1;align=center;verticalAlign=middle;resizable=0;points=[];" vertex="1" connectable="0" parent="kG8MOpoZJlM2QHEIAGsJ-83">
          <mxGeometry x="-0.772" y="1" relative="1" as="geometry">
            <mxPoint as="offset" />
          </mxGeometry>
        </mxCell>
        <mxCell id="kG8MOpoZJlM2QHEIAGsJ-95" value="" style="html=1;points=[];perimeter=orthogonalPerimeter;outlineConnect=0;targetShapes=umlLifeline;portConstraint=eastwest;newEdgeStyle={&quot;edgeStyle&quot;:&quot;elbowEdgeStyle&quot;,&quot;elbow&quot;:&quot;vertical&quot;,&quot;curved&quot;:0,&quot;rounded&quot;:0};" vertex="1" parent="kG8MOpoZJlM2QHEIAGsJ-1">
          <mxGeometry x="150" y="684" width="10" height="40" as="geometry" />
        </mxCell>
        <mxCell id="kG8MOpoZJlM2QHEIAGsJ-96" value="Inicializacija intervala za samodejni preverjanje nedokončanih procesov (ponovni poskus)" style="html=1;align=left;spacingLeft=2;endArrow=block;rounded=0;edgeStyle=orthogonalEdgeStyle;curved=0;rounded=0;" edge="1" parent="kG8MOpoZJlM2QHEIAGsJ-1" target="kG8MOpoZJlM2QHEIAGsJ-95">
          <mxGeometry relative="1" as="geometry">
            <mxPoint x="155" y="664" as="sourcePoint" />
            <Array as="points">
              <mxPoint x="185" y="694" />
            </Array>
          </mxGeometry>
        </mxCell>
      </root>
    </mxGraphModel>
  </diagram>
  <diagram id="shl-Mvq1Bvq6Ac1yElUF" name="shranjevanjePodatkov">
    <mxGraphModel dx="2278" dy="824" grid="1" gridSize="10" guides="1" tooltips="1" connect="1" arrows="1" fold="1" page="1" pageScale="1" pageWidth="827" pageHeight="1169" math="0" shadow="0">
      <root>
        <mxCell id="0" />
        <mxCell id="1" parent="0" />
        <mxCell id="TZKSeNVIynRXjgQxxLGG-1" value="Baza sinhronizacijskih podatkov" style="shape=umlLifeline;perimeter=lifelinePerimeter;whiteSpace=wrap;html=1;container=1;collapsible=0;recursiveResize=0;outlineConnect=0;rounded=1;shadow=0;comic=0;labelBackgroundColor=none;strokeWidth=1;fontFamily=Verdana;fontSize=12;align=center;" vertex="1" parent="1">
          <mxGeometry x="450" y="480" width="100" height="1780" as="geometry" />
        </mxCell>
        <mxCell id="TZKSeNVIynRXjgQxxLGG-2" value="" style="html=1;points=[];perimeter=orthogonalPerimeter;outlineConnect=0;targetShapes=umlLifeline;portConstraint=eastwest;newEdgeStyle={&quot;edgeStyle&quot;:&quot;elbowEdgeStyle&quot;,&quot;elbow&quot;:&quot;vertical&quot;,&quot;curved&quot;:0,&quot;rounded&quot;:0};" vertex="1" parent="TZKSeNVIynRXjgQxxLGG-1">
          <mxGeometry x="45" y="240" width="10" height="60" as="geometry" />
        </mxCell>
        <mxCell id="hY-gM79WcSzCQIGWEYIz-8" value="" style="html=1;points=[];perimeter=orthogonalPerimeter;outlineConnect=0;targetShapes=umlLifeline;portConstraint=eastwest;newEdgeStyle={&quot;edgeStyle&quot;:&quot;elbowEdgeStyle&quot;,&quot;elbow&quot;:&quot;vertical&quot;,&quot;curved&quot;:0,&quot;rounded&quot;:0};" vertex="1" parent="TZKSeNVIynRXjgQxxLGG-1">
          <mxGeometry x="45" y="770" width="10" height="39" as="geometry" />
        </mxCell>
        <mxCell id="TZKSeNVIynRXjgQxxLGG-3" value="Baza konfliktih podatkov" style="shape=umlLifeline;perimeter=lifelinePerimeter;whiteSpace=wrap;html=1;container=1;collapsible=0;recursiveResize=0;outlineConnect=0;rounded=1;shadow=0;comic=0;labelBackgroundColor=none;strokeWidth=1;fontFamily=Verdana;fontSize=12;align=center;" vertex="1" parent="1">
          <mxGeometry x="560" y="480" width="100" height="1760" as="geometry" />
        </mxCell>
        <mxCell id="TZKSeNVIynRXjgQxxLGG-4" value="" style="html=1;points=[];perimeter=orthogonalPerimeter;outlineConnect=0;targetShapes=umlLifeline;portConstraint=eastwest;newEdgeStyle={&quot;edgeStyle&quot;:&quot;elbowEdgeStyle&quot;,&quot;elbow&quot;:&quot;vertical&quot;,&quot;curved&quot;:0,&quot;rounded&quot;:0};" vertex="1" parent="TZKSeNVIynRXjgQxxLGG-3">
          <mxGeometry x="45" y="475" width="10" height="80" as="geometry" />
        </mxCell>
        <mxCell id="TZKSeNVIynRXjgQxxLGG-5" value="Baza za ponovne poskuse" style="shape=umlLifeline;perimeter=lifelinePerimeter;whiteSpace=wrap;html=1;container=1;collapsible=0;recursiveResize=0;outlineConnect=0;rounded=1;shadow=0;comic=0;labelBackgroundColor=none;strokeWidth=1;fontFamily=Verdana;fontSize=12;align=center;" vertex="1" parent="1">
          <mxGeometry x="680" y="480" width="100" height="1760" as="geometry" />
        </mxCell>
        <mxCell id="TZKSeNVIynRXjgQxxLGG-7" value="Baza za začasne podatke" style="shape=umlLifeline;perimeter=lifelinePerimeter;whiteSpace=wrap;html=1;container=1;collapsible=0;recursiveResize=0;outlineConnect=0;rounded=1;shadow=0;comic=0;labelBackgroundColor=none;strokeWidth=1;fontFamily=Verdana;fontSize=12;align=center;" vertex="1" parent="1">
          <mxGeometry x="790" y="480" width="100" height="2160" as="geometry" />
        </mxCell>
        <mxCell id="TZKSeNVIynRXjgQxxLGG-45" value="" style="html=1;points=[];perimeter=orthogonalPerimeter;outlineConnect=0;targetShapes=umlLifeline;portConstraint=eastwest;newEdgeStyle={&quot;edgeStyle&quot;:&quot;elbowEdgeStyle&quot;,&quot;elbow&quot;:&quot;vertical&quot;,&quot;curved&quot;:0,&quot;rounded&quot;:0};" vertex="1" parent="TZKSeNVIynRXjgQxxLGG-7">
          <mxGeometry x="45" y="350" width="10" height="40" as="geometry" />
        </mxCell>
        <mxCell id="TZKSeNVIynRXjgQxxLGG-12" value="Procesorska nit za sinhronizacijo" style="shape=umlLifeline;perimeter=lifelinePerimeter;whiteSpace=wrap;html=1;container=1;collapsible=0;recursiveResize=0;outlineConnect=0;rounded=1;shadow=0;comic=0;labelBackgroundColor=none;strokeWidth=1;fontFamily=Verdana;fontSize=12;align=center;" vertex="1" parent="1">
          <mxGeometry x="900" y="480" width="100" height="2160" as="geometry" />
        </mxCell>
        <mxCell id="TZKSeNVIynRXjgQxxLGG-14" value="Procesorska nit za ponovni poskus" style="shape=umlLifeline;perimeter=lifelinePerimeter;whiteSpace=wrap;html=1;container=1;collapsible=0;recursiveResize=0;outlineConnect=0;rounded=1;shadow=0;comic=0;labelBackgroundColor=none;strokeWidth=1;fontFamily=Verdana;fontSize=12;align=center;" vertex="1" parent="1">
          <mxGeometry x="1020" y="480" width="100" height="1760" as="geometry" />
        </mxCell>
        <mxCell id="TZKSeNVIynRXjgQxxLGG-16" value="Sinhronizacijska knjižnica" style="shape=umlLifeline;perimeter=lifelinePerimeter;whiteSpace=wrap;html=1;container=1;collapsible=0;recursiveResize=0;outlineConnect=0;rounded=1;shadow=0;comic=0;labelBackgroundColor=none;strokeWidth=1;fontFamily=Verdana;fontSize=12;align=center;" vertex="1" parent="1">
          <mxGeometry x="-10" y="480" width="395" height="1780" as="geometry" />
        </mxCell>
        <mxCell id="TZKSeNVIynRXjgQxxLGG-36" value="Alternativni izzidi" style="swimlane;childLayout=stackLayout;resizeParent=1;resizeParentMax=0;horizontal=1;startSize=20;horizontalStack=0;html=1;" vertex="1" parent="TZKSeNVIynRXjgQxxLGG-16">
          <mxGeometry x="-60" y="225" width="370" height="610" as="geometry" />
        </mxCell>
        <mxCell id="TZKSeNVIynRXjgQxxLGG-37" value="Objekt v sinhr. bazi obstaja&lt;br style=&quot;border-color: var(--border-color);&quot;&gt;in je v statusu posiljanja" style="swimlane;startSize=60;horizontal=0;html=1;" vertex="1" parent="TZKSeNVIynRXjgQxxLGG-36">
          <mxGeometry y="20" width="370" height="230" as="geometry" />
        </mxCell>
        <mxCell id="TZKSeNVIynRXjgQxxLGG-51" value="Poslji obvestilo - podatek shranjen v začasno bazo" style="html=1;align=left;spacingLeft=2;endArrow=block;rounded=0;edgeStyle=orthogonalEdgeStyle;curved=0;rounded=0;" edge="1" target="TZKSeNVIynRXjgQxxLGG-50" parent="TZKSeNVIynRXjgQxxLGG-37">
          <mxGeometry relative="1" as="geometry">
            <mxPoint x="263" y="135" as="sourcePoint" />
            <Array as="points">
              <mxPoint x="293" y="165" />
            </Array>
          </mxGeometry>
        </mxCell>
        <mxCell id="TZKSeNVIynRXjgQxxLGG-50" value="" style="html=1;points=[];perimeter=orthogonalPerimeter;outlineConnect=0;targetShapes=umlLifeline;portConstraint=eastwest;newEdgeStyle={&quot;edgeStyle&quot;:&quot;elbowEdgeStyle&quot;,&quot;elbow&quot;:&quot;vertical&quot;,&quot;curved&quot;:0,&quot;rounded&quot;:0};" vertex="1" parent="TZKSeNVIynRXjgQxxLGG-37">
          <mxGeometry x="260" y="155" width="10" height="40" as="geometry" />
        </mxCell>
        <mxCell id="TZKSeNVIynRXjgQxxLGG-38" value="Konflikt obstaja" style="swimlane;startSize=40;horizontal=0;html=1;" vertex="1" parent="TZKSeNVIynRXjgQxxLGG-36">
          <mxGeometry y="250" width="370" height="180" as="geometry" />
        </mxCell>
        <mxCell id="TZKSeNVIynRXjgQxxLGG-55" value="" style="html=1;points=[];perimeter=orthogonalPerimeter;outlineConnect=0;targetShapes=umlLifeline;portConstraint=eastwest;newEdgeStyle={&quot;edgeStyle&quot;:&quot;elbowEdgeStyle&quot;,&quot;elbow&quot;:&quot;vertical&quot;,&quot;curved&quot;:0,&quot;rounded&quot;:0};" vertex="1" parent="TZKSeNVIynRXjgQxxLGG-38">
          <mxGeometry x="258" y="110" width="10" height="40" as="geometry" />
        </mxCell>
        <mxCell id="TZKSeNVIynRXjgQxxLGG-56" value="Pošlji obvestilo, da je shranjevanje ni možno, ker imamo že konflikte" style="html=1;align=left;spacingLeft=2;endArrow=block;rounded=0;edgeStyle=orthogonalEdgeStyle;curved=0;rounded=0;" edge="1" target="TZKSeNVIynRXjgQxxLGG-55" parent="TZKSeNVIynRXjgQxxLGG-38">
          <mxGeometry relative="1" as="geometry">
            <mxPoint x="263" y="90" as="sourcePoint" />
            <Array as="points">
              <mxPoint x="293" y="120" />
            </Array>
          </mxGeometry>
        </mxCell>
        <mxCell id="TZKSeNVIynRXjgQxxLGG-39" value="Uspesno shranjen podatek" style="swimlane;startSize=20;horizontal=0;html=1;" vertex="1" parent="TZKSeNVIynRXjgQxxLGG-36">
          <mxGeometry y="430" width="370" height="180" as="geometry" />
        </mxCell>
        <mxCell id="TZKSeNVIynRXjgQxxLGG-17" value="" style="html=1;points=[];perimeter=orthogonalPerimeter;outlineConnect=0;targetShapes=umlLifeline;portConstraint=eastwest;newEdgeStyle={&quot;edgeStyle&quot;:&quot;elbowEdgeStyle&quot;,&quot;elbow&quot;:&quot;vertical&quot;,&quot;curved&quot;:0,&quot;rounded&quot;:0};" vertex="1" parent="TZKSeNVIynRXjgQxxLGG-16">
          <mxGeometry x="192.5" y="200" width="10" height="730" as="geometry" />
        </mxCell>
        <mxCell id="TZKSeNVIynRXjgQxxLGG-18" value="Dostopna tocka do sinhronizacijske knjiznice na brskalniku" style="shape=note;whiteSpace=wrap;html=1;size=14;verticalAlign=top;align=left;spacingTop=-6;rounded=0;shadow=0;comic=0;labelBackgroundColor=none;strokeWidth=1;fontFamily=Verdana;fontSize=12" vertex="1" parent="1">
          <mxGeometry y="380" width="380" height="70" as="geometry" />
        </mxCell>
        <mxCell id="TZKSeNVIynRXjgQxxLGG-19" value="Operacije z bazo so asinhrone, ampak jih izvajamo tako, da postane logika sinhrona" style="shape=note;whiteSpace=wrap;html=1;size=14;verticalAlign=top;align=left;spacingTop=-6;rounded=0;shadow=0;comic=0;labelBackgroundColor=none;strokeWidth=1;fontFamily=Verdana;fontSize=12" vertex="1" parent="1">
          <mxGeometry x="450" y="380" width="440" height="80" as="geometry" />
        </mxCell>
        <mxCell id="TZKSeNVIynRXjgQxxLGG-25" value="Streznik z zalednim delom sinhronizacijske knjiznice" style="shape=umlLifeline;perimeter=lifelinePerimeter;whiteSpace=wrap;html=1;container=1;collapsible=0;recursiveResize=0;outlineConnect=0;rounded=1;shadow=0;comic=0;labelBackgroundColor=none;strokeWidth=1;fontFamily=Verdana;fontSize=12;align=center;size=60;" vertex="1" parent="1">
          <mxGeometry x="1430" y="480" width="160" height="2160" as="geometry" />
        </mxCell>
        <mxCell id="TZKSeNVIynRXjgQxxLGG-27" value="Aplikacija brskalnika" style="shape=umlLifeline;perimeter=lifelinePerimeter;whiteSpace=wrap;html=1;container=1;collapsible=0;recursiveResize=0;outlineConnect=0;rounded=1;shadow=0;comic=0;labelBackgroundColor=none;strokeWidth=1;fontFamily=Verdana;fontSize=12;align=center;" vertex="1" parent="1">
          <mxGeometry x="-160" y="480" width="108.57000000000001" height="1800" as="geometry" />
        </mxCell>
        <mxCell id="TZKSeNVIynRXjgQxxLGG-28" value="" style="html=1;points=[];perimeter=orthogonalPerimeter;outlineConnect=0;targetShapes=umlLifeline;portConstraint=eastwest;newEdgeStyle={&quot;edgeStyle&quot;:&quot;elbowEdgeStyle&quot;,&quot;elbow&quot;:&quot;vertical&quot;,&quot;curved&quot;:0,&quot;rounded&quot;:0};" vertex="1" parent="TZKSeNVIynRXjgQxxLGG-27">
          <mxGeometry x="45" y="200" width="10" height="790" as="geometry" />
        </mxCell>
        <mxCell id="Jw05yPX0Yw7thksRPxP6-1" value="Shema predpostavlja, da se je inicializacija že zgodila" style="shape=note;whiteSpace=wrap;html=1;size=14;verticalAlign=top;align=left;spacingTop=-6;rounded=0;shadow=0;comic=0;labelBackgroundColor=none;strokeWidth=1;fontFamily=Verdana;fontSize=12" vertex="1" parent="TZKSeNVIynRXjgQxxLGG-27">
          <mxGeometry x="-8.569999999999993" y="70" width="117.14" height="70" as="geometry" />
        </mxCell>
        <mxCell id="TZKSeNVIynRXjgQxxLGG-29" style="edgeStyle=elbowEdgeStyle;rounded=0;orthogonalLoop=1;jettySize=auto;html=1;elbow=vertical;curved=0;entryX=-0.171;entryY=0.016;entryDx=0;entryDy=0;entryPerimeter=0;" edge="1" parent="1" target="TZKSeNVIynRXjgQxxLGG-28">
          <mxGeometry relative="1" as="geometry">
            <mxPoint x="-280.6111111111111" y="692.5555555555557" as="sourcePoint" />
          </mxGeometry>
        </mxCell>
        <mxCell id="TZKSeNVIynRXjgQxxLGG-30" value="Uporabnik shrani &lt;br&gt;podatek za&lt;br&gt;&amp;nbsp;poljubno entiteto&lt;br&gt;" style="edgeLabel;html=1;align=center;verticalAlign=middle;resizable=0;points=[];" vertex="1" connectable="0" parent="TZKSeNVIynRXjgQxxLGG-29">
          <mxGeometry x="-0.4381" y="-2" relative="1" as="geometry">
            <mxPoint x="35" y="-2" as="offset" />
          </mxGeometry>
        </mxCell>
        <mxCell id="TZKSeNVIynRXjgQxxLGG-31" value="" style="shape=umlLifeline;perimeter=lifelinePerimeter;whiteSpace=wrap;html=1;container=1;dropTarget=0;collapsible=0;recursiveResize=0;outlineConnect=0;portConstraint=eastwest;newEdgeStyle={&quot;edgeStyle&quot;:&quot;elbowEdgeStyle&quot;,&quot;elbow&quot;:&quot;vertical&quot;,&quot;curved&quot;:0,&quot;rounded&quot;:0};participant=umlActor;" vertex="1" parent="1">
          <mxGeometry x="-290" y="480" width="20" height="870" as="geometry" />
        </mxCell>
        <mxCell id="TZKSeNVIynRXjgQxxLGG-32" value="Poženi proces za shranjevanje" style="html=1;verticalAlign=bottom;endArrow=block;edgeStyle=elbowEdgeStyle;elbow=vertical;curved=0;rounded=0;" edge="1" parent="1" source="TZKSeNVIynRXjgQxxLGG-28" target="TZKSeNVIynRXjgQxxLGG-17">
          <mxGeometry relative="1" as="geometry">
            <mxPoint x="76" y="1200" as="sourcePoint" />
            <Array as="points">
              <mxPoint x="130" y="690" />
            </Array>
          </mxGeometry>
        </mxCell>
        <mxCell id="TZKSeNVIynRXjgQxxLGG-34" value="Obstaja podatek ki se sinhronizira" style="html=1;verticalAlign=bottom;endArrow=block;edgeStyle=elbowEdgeStyle;elbow=horizontal;curved=0;rounded=0;exitX=0.924;exitY=0.074;exitDx=0;exitDy=0;exitPerimeter=0;entryX=-0.189;entryY=0.117;entryDx=0;entryDy=0;entryPerimeter=0;" edge="1" parent="1" source="TZKSeNVIynRXjgQxxLGG-17" target="TZKSeNVIynRXjgQxxLGG-2">
          <mxGeometry relative="1" as="geometry">
            <mxPoint x="215" y="1315" as="sourcePoint" />
          </mxGeometry>
        </mxCell>
        <mxCell id="TZKSeNVIynRXjgQxxLGG-35" value="Podatek obstaja (sinh_objekt)" style="html=1;verticalAlign=bottom;endArrow=open;dashed=1;endSize=8;edgeStyle=elbowEdgeStyle;elbow=vertical;curved=0;rounded=0;exitX=-0.189;exitY=0.904;exitDx=0;exitDy=0;exitPerimeter=0;entryX=1.172;entryY=0.144;entryDx=0;entryDy=0;entryPerimeter=0;" edge="1" parent="1" source="TZKSeNVIynRXjgQxxLGG-2" target="TZKSeNVIynRXjgQxxLGG-17">
          <mxGeometry relative="1" as="geometry">
            <mxPoint x="240" y="790" as="targetPoint" />
            <Array as="points">
              <mxPoint x="340" y="774" />
            </Array>
            <mxPoint x="494" y="797" as="sourcePoint" />
          </mxGeometry>
        </mxCell>
        <mxCell id="TZKSeNVIynRXjgQxxLGG-43" value="Poisci konflikte za podan objekt" style="html=1;verticalAlign=bottom;endArrow=block;edgeStyle=elbowEdgeStyle;elbow=vertical;curved=0;rounded=0;entryX=0.033;entryY=0.324;entryDx=0;entryDy=0;entryPerimeter=0;" edge="1" parent="1" source="TZKSeNVIynRXjgQxxLGG-17" target="TZKSeNVIynRXjgQxxLGG-4">
          <mxGeometry relative="1" as="geometry">
            <mxPoint x="240" y="980" as="sourcePoint" />
            <Array as="points">
              <mxPoint x="270" y="981" />
            </Array>
          </mxGeometry>
        </mxCell>
        <mxCell id="TZKSeNVIynRXjgQxxLGG-44" value="Vrni konflikte ali prazen podatek" style="html=1;verticalAlign=bottom;endArrow=open;dashed=1;endSize=8;edgeStyle=elbowEdgeStyle;elbow=vertical;curved=0;rounded=0;entryX=0.95;entryY=0.468;entryDx=0;entryDy=0;entryPerimeter=0;" edge="1" parent="1" source="TZKSeNVIynRXjgQxxLGG-4" target="TZKSeNVIynRXjgQxxLGG-17">
          <mxGeometry relative="1" as="geometry">
            <mxPoint x="240" y="1021" as="targetPoint" />
          </mxGeometry>
        </mxCell>
        <mxCell id="TZKSeNVIynRXjgQxxLGG-46" value="Shrani izračunane podatke v začasno bazo" style="html=1;verticalAlign=bottom;endArrow=block;edgeStyle=elbowEdgeStyle;elbow=vertical;curved=0;rounded=0;exitX=1.061;exitY=0.204;exitDx=0;exitDy=0;exitPerimeter=0;entryX=-0.3;entryY=0.272;entryDx=0;entryDy=0;entryPerimeter=0;" edge="1" target="TZKSeNVIynRXjgQxxLGG-45" parent="1" source="TZKSeNVIynRXjgQxxLGG-17">
          <mxGeometry relative="1" as="geometry">
            <mxPoint x="765" y="840" as="sourcePoint" />
            <Array as="points">
              <mxPoint x="510" y="829" />
              <mxPoint x="230" y="840" />
            </Array>
          </mxGeometry>
        </mxCell>
        <mxCell id="TZKSeNVIynRXjgQxxLGG-47" value="Shranjen podatek" style="html=1;verticalAlign=bottom;endArrow=open;dashed=1;endSize=8;edgeStyle=elbowEdgeStyle;elbow=vertical;curved=0;rounded=0;" edge="1" source="TZKSeNVIynRXjgQxxLGG-45" parent="1" target="TZKSeNVIynRXjgQxxLGG-17">
          <mxGeometry relative="1" as="geometry">
            <mxPoint x="765" y="915" as="targetPoint" />
          </mxGeometry>
        </mxCell>
        <mxCell id="TZKSeNVIynRXjgQxxLGG-52" value="Vrni podatek, shranjen v zač. bazo" style="html=1;verticalAlign=bottom;endArrow=open;dashed=1;endSize=8;edgeStyle=elbowEdgeStyle;elbow=vertical;curved=0;rounded=0;entryX=1.144;entryY=0.329;entryDx=0;entryDy=0;entryPerimeter=0;" edge="1" parent="1" source="TZKSeNVIynRXjgQxxLGG-17" target="TZKSeNVIynRXjgQxxLGG-28">
          <mxGeometry relative="1" as="geometry">
            <mxPoint x="130" y="940" as="sourcePoint" />
            <mxPoint x="50" y="940" as="targetPoint" />
          </mxGeometry>
        </mxCell>
        <mxCell id="TZKSeNVIynRXjgQxxLGG-57" value="Vrni napako zaradi konflikta" style="html=1;verticalAlign=bottom;endArrow=open;dashed=1;endSize=8;edgeStyle=elbowEdgeStyle;elbow=vertical;curved=0;rounded=0;" edge="1" parent="1" source="TZKSeNVIynRXjgQxxLGG-17" target="TZKSeNVIynRXjgQxxLGG-28">
          <mxGeometry relative="1" as="geometry">
            <mxPoint x="160" y="1120" as="sourcePoint" />
            <mxPoint x="80" y="1120" as="targetPoint" />
            <Array as="points">
              <mxPoint x="80" y="1120" />
            </Array>
          </mxGeometry>
        </mxCell>
        <mxCell id="TZKSeNVIynRXjgQxxLGG-61" value="Vrni shranjeni podatek" style="html=1;verticalAlign=bottom;endArrow=open;dashed=1;endSize=8;edgeStyle=elbowEdgeStyle;elbow=vertical;curved=0;rounded=0;entryX=0.5;entryY=0.785;entryDx=0;entryDy=0;entryPerimeter=0;" edge="1" parent="1" source="TZKSeNVIynRXjgQxxLGG-17" target="TZKSeNVIynRXjgQxxLGG-28">
          <mxGeometry relative="1" as="geometry">
            <mxPoint x="160" y="1190" as="sourcePoint" />
            <mxPoint x="80" y="1190" as="targetPoint" />
          </mxGeometry>
        </mxCell>
        <mxCell id="hY-gM79WcSzCQIGWEYIz-1" value="Storitev za&lt;br&gt;združevanje podatkov" style="shape=umlLifeline;perimeter=lifelinePerimeter;whiteSpace=wrap;html=1;container=1;dropTarget=0;collapsible=0;recursiveResize=0;outlineConnect=0;portConstraint=eastwest;newEdgeStyle={&quot;edgeStyle&quot;:&quot;elbowEdgeStyle&quot;,&quot;elbow&quot;:&quot;vertical&quot;,&quot;curved&quot;:0,&quot;rounded&quot;:0};" vertex="1" parent="1">
          <mxGeometry x="1180" y="480" width="100" height="2170" as="geometry" />
        </mxCell>
        <mxCell id="hY-gM79WcSzCQIGWEYIz-2" value="" style="html=1;points=[];perimeter=orthogonalPerimeter;outlineConnect=0;targetShapes=umlLifeline;portConstraint=eastwest;newEdgeStyle={&quot;edgeStyle&quot;:&quot;elbowEdgeStyle&quot;,&quot;elbow&quot;:&quot;vertical&quot;,&quot;curved&quot;:0,&quot;rounded&quot;:0};" vertex="1" parent="hY-gM79WcSzCQIGWEYIz-1">
          <mxGeometry x="45" y="300" width="10" height="40" as="geometry" />
        </mxCell>
        <mxCell id="hY-gM79WcSzCQIGWEYIz-5" value="" style="html=1;points=[];perimeter=orthogonalPerimeter;outlineConnect=0;targetShapes=umlLifeline;portConstraint=eastwest;newEdgeStyle={&quot;edgeStyle&quot;:&quot;elbowEdgeStyle&quot;,&quot;elbow&quot;:&quot;vertical&quot;,&quot;curved&quot;:0,&quot;rounded&quot;:0};" vertex="1" parent="hY-gM79WcSzCQIGWEYIz-1">
          <mxGeometry x="45" y="680" width="10" height="80" as="geometry" />
        </mxCell>
        <mxCell id="hY-gM79WcSzCQIGWEYIz-3" value="Izračunaj razliko med &quot;sinh_objekt&quot; in objektom aplikacije in ustrezno združi podatke" style="html=1;verticalAlign=bottom;endArrow=block;edgeStyle=elbowEdgeStyle;elbow=vertical;curved=0;rounded=0;exitX=0.95;exitY=0.155;exitDx=0;exitDy=0;exitPerimeter=0;" edge="1" target="hY-gM79WcSzCQIGWEYIz-2" parent="1" source="TZKSeNVIynRXjgQxxLGG-17">
          <mxGeometry x="0.1002" relative="1" as="geometry">
            <mxPoint x="250" y="790" as="sourcePoint" />
            <Array as="points" />
            <mxPoint as="offset" />
          </mxGeometry>
        </mxCell>
        <mxCell id="hY-gM79WcSzCQIGWEYIz-4" value="Vrni izračunane razlike in združene podatke" style="html=1;verticalAlign=bottom;endArrow=open;dashed=1;endSize=8;edgeStyle=elbowEdgeStyle;elbow=vertical;curved=0;rounded=0;" edge="1" source="hY-gM79WcSzCQIGWEYIz-2" parent="1" target="TZKSeNVIynRXjgQxxLGG-17">
          <mxGeometry x="-0.5835" y="10" relative="1" as="geometry">
            <mxPoint x="1155" y="855" as="targetPoint" />
            <mxPoint x="1" as="offset" />
          </mxGeometry>
        </mxCell>
        <mxCell id="hY-gM79WcSzCQIGWEYIz-6" value="Izračunaj razliko med prejetim podatkom in podatkom v sinh. bazi" style="html=1;verticalAlign=bottom;endArrow=block;edgeStyle=elbowEdgeStyle;elbow=vertical;curved=0;rounded=0;" edge="1" target="hY-gM79WcSzCQIGWEYIz-5" parent="1" source="TZKSeNVIynRXjgQxxLGG-17">
          <mxGeometry relative="1" as="geometry">
            <mxPoint x="1155" y="1160" as="sourcePoint" />
            <Array as="points">
              <mxPoint x="1070" y="1160" />
            </Array>
          </mxGeometry>
        </mxCell>
        <mxCell id="hY-gM79WcSzCQIGWEYIz-7" value="Vrni razliko in združene podatke" style="html=1;verticalAlign=bottom;endArrow=open;dashed=1;endSize=8;edgeStyle=elbowEdgeStyle;elbow=vertical;curved=0;rounded=0;" edge="1" source="hY-gM79WcSzCQIGWEYIz-5" parent="1" target="TZKSeNVIynRXjgQxxLGG-17">
          <mxGeometry relative="1" as="geometry">
            <mxPoint x="1155" y="1235" as="targetPoint" />
          </mxGeometry>
        </mxCell>
        <mxCell id="hY-gM79WcSzCQIGWEYIz-9" value="Shrani združene podatke" style="html=1;verticalAlign=bottom;endArrow=block;edgeStyle=elbowEdgeStyle;elbow=vertical;curved=0;rounded=0;" edge="1" target="hY-gM79WcSzCQIGWEYIz-8" parent="1" source="TZKSeNVIynRXjgQxxLGG-17">
          <mxGeometry relative="1" as="geometry">
            <mxPoint x="425" y="1209" as="sourcePoint" />
          </mxGeometry>
        </mxCell>
        <mxCell id="hY-gM79WcSzCQIGWEYIz-10" value="Vrni shranjen podatek" style="html=1;verticalAlign=bottom;endArrow=open;dashed=1;endSize=8;edgeStyle=elbowEdgeStyle;elbow=vertical;curved=0;rounded=0;" edge="1" source="hY-gM79WcSzCQIGWEYIz-8" parent="1" target="TZKSeNVIynRXjgQxxLGG-17">
          <mxGeometry relative="1" as="geometry">
            <mxPoint x="425" y="1284" as="targetPoint" />
            <Array as="points">
              <mxPoint x="370" y="1300" />
            </Array>
          </mxGeometry>
        </mxCell>
      </root>
    </mxGraphModel>
  </diagram>
  <diagram id="94RldLLPIWLLt5PBWVjD" name="sinhronizacijaPodatka">
    <mxGraphModel dx="3004" dy="1237" grid="1" gridSize="10" guides="1" tooltips="1" connect="1" arrows="1" fold="1" page="1" pageScale="1" pageWidth="827" pageHeight="1169" math="0" shadow="0">
      <root>
        <mxCell id="0" />
        <mxCell id="1" parent="0" />
        <mxCell id="VGOP_OHQhiuxO2ov4X1R-1" value="Baza sinhronizacijskih podatkov" style="shape=umlLifeline;perimeter=lifelinePerimeter;whiteSpace=wrap;html=1;container=1;collapsible=0;recursiveResize=0;outlineConnect=0;rounded=1;shadow=0;comic=0;labelBackgroundColor=none;strokeWidth=1;fontFamily=Verdana;fontSize=12;align=center;" vertex="1" parent="1">
          <mxGeometry x="460" y="480" width="100" height="2970" as="geometry" />
        </mxCell>
        <mxCell id="VGOP_OHQhiuxO2ov4X1R-54" value="" style="html=1;points=[];perimeter=orthogonalPerimeter;outlineConnect=0;targetShapes=umlLifeline;portConstraint=eastwest;newEdgeStyle={&quot;edgeStyle&quot;:&quot;elbowEdgeStyle&quot;,&quot;elbow&quot;:&quot;vertical&quot;,&quot;curved&quot;:0,&quot;rounded&quot;:0};" vertex="1" parent="VGOP_OHQhiuxO2ov4X1R-1">
          <mxGeometry x="45" y="380" width="10" height="80" as="geometry" />
        </mxCell>
        <mxCell id="Ln9rIKD_Rvu5jh2WX0Lf-79" value="" style="html=1;points=[];perimeter=orthogonalPerimeter;outlineConnect=0;targetShapes=umlLifeline;portConstraint=eastwest;newEdgeStyle={&quot;edgeStyle&quot;:&quot;elbowEdgeStyle&quot;,&quot;elbow&quot;:&quot;vertical&quot;,&quot;curved&quot;:0,&quot;rounded&quot;:0};direction=south;" vertex="1" parent="VGOP_OHQhiuxO2ov4X1R-1">
          <mxGeometry x="40" y="1090" width="20" height="25" as="geometry" />
        </mxCell>
        <mxCell id="Ln9rIKD_Rvu5jh2WX0Lf-97" value="" style="html=1;points=[];perimeter=orthogonalPerimeter;outlineConnect=0;targetShapes=umlLifeline;portConstraint=eastwest;newEdgeStyle={&quot;edgeStyle&quot;:&quot;elbowEdgeStyle&quot;,&quot;elbow&quot;:&quot;vertical&quot;,&quot;curved&quot;:0,&quot;rounded&quot;:0};" vertex="1" parent="VGOP_OHQhiuxO2ov4X1R-1">
          <mxGeometry x="45" y="2410" width="10" height="80" as="geometry" />
        </mxCell>
        <mxCell id="VGOP_OHQhiuxO2ov4X1R-4" value="Baza konfliktih podatkov" style="shape=umlLifeline;perimeter=lifelinePerimeter;whiteSpace=wrap;html=1;container=1;collapsible=0;recursiveResize=0;outlineConnect=0;rounded=1;shadow=0;comic=0;labelBackgroundColor=none;strokeWidth=1;fontFamily=Verdana;fontSize=12;align=center;" vertex="1" parent="1">
          <mxGeometry x="580" y="480" width="100" height="2970" as="geometry" />
        </mxCell>
        <mxCell id="Ln9rIKD_Rvu5jh2WX0Lf-90" value="" style="html=1;points=[];perimeter=orthogonalPerimeter;outlineConnect=0;targetShapes=umlLifeline;portConstraint=eastwest;newEdgeStyle={&quot;edgeStyle&quot;:&quot;elbowEdgeStyle&quot;,&quot;elbow&quot;:&quot;vertical&quot;,&quot;curved&quot;:0,&quot;rounded&quot;:0};" vertex="1" parent="VGOP_OHQhiuxO2ov4X1R-4">
          <mxGeometry x="45" y="2270" width="10" height="60" as="geometry" />
        </mxCell>
        <mxCell id="VGOP_OHQhiuxO2ov4X1R-6" value="Baza za ponovne poskuse" style="shape=umlLifeline;perimeter=lifelinePerimeter;whiteSpace=wrap;html=1;container=1;collapsible=0;recursiveResize=0;outlineConnect=0;rounded=1;shadow=0;comic=0;labelBackgroundColor=none;strokeWidth=1;fontFamily=Verdana;fontSize=12;align=center;" vertex="1" parent="1">
          <mxGeometry x="710" y="480" width="100" height="2940" as="geometry" />
        </mxCell>
        <mxCell id="Ln9rIKD_Rvu5jh2WX0Lf-85" value="" style="html=1;points=[];perimeter=orthogonalPerimeter;outlineConnect=0;targetShapes=umlLifeline;portConstraint=eastwest;newEdgeStyle={&quot;edgeStyle&quot;:&quot;elbowEdgeStyle&quot;,&quot;elbow&quot;:&quot;vertical&quot;,&quot;curved&quot;:0,&quot;rounded&quot;:0};" vertex="1" parent="VGOP_OHQhiuxO2ov4X1R-6">
          <mxGeometry x="45" y="1140" width="10" height="30" as="geometry" />
        </mxCell>
        <mxCell id="Ln9rIKD_Rvu5jh2WX0Lf-86" value="Izbriši predhodnji podatek v začasni bazi" style="html=1;verticalAlign=bottom;endArrow=block;edgeStyle=elbowEdgeStyle;elbow=vertical;curved=0;rounded=0;" edge="1" target="Ln9rIKD_Rvu5jh2WX0Lf-85" parent="VGOP_OHQhiuxO2ov4X1R-6">
          <mxGeometry relative="1" as="geometry">
            <mxPoint x="125" y="1140" as="sourcePoint" />
          </mxGeometry>
        </mxCell>
        <mxCell id="VGOP_OHQhiuxO2ov4X1R-7" value="Baza za začasne podatke" style="shape=umlLifeline;perimeter=lifelinePerimeter;whiteSpace=wrap;html=1;container=1;collapsible=0;recursiveResize=0;outlineConnect=0;rounded=1;shadow=0;comic=0;labelBackgroundColor=none;strokeWidth=1;fontFamily=Verdana;fontSize=12;align=center;" vertex="1" parent="1">
          <mxGeometry x="827" y="480" width="100" height="2160" as="geometry" />
        </mxCell>
        <mxCell id="Ln9rIKD_Rvu5jh2WX0Lf-69" value="" style="html=1;points=[];perimeter=orthogonalPerimeter;outlineConnect=0;targetShapes=umlLifeline;portConstraint=eastwest;newEdgeStyle={&quot;edgeStyle&quot;:&quot;elbowEdgeStyle&quot;,&quot;elbow&quot;:&quot;vertical&quot;,&quot;curved&quot;:0,&quot;rounded&quot;:0};" vertex="1" parent="VGOP_OHQhiuxO2ov4X1R-7">
          <mxGeometry x="45" y="735" width="10" height="115" as="geometry" />
        </mxCell>
        <mxCell id="VGOP_OHQhiuxO2ov4X1R-9" value="Procesorska nit za sinhronizacijo" style="shape=umlLifeline;perimeter=lifelinePerimeter;whiteSpace=wrap;html=1;container=1;collapsible=0;recursiveResize=0;outlineConnect=0;rounded=1;shadow=0;comic=0;labelBackgroundColor=none;strokeWidth=1;fontFamily=Verdana;fontSize=12;align=center;" vertex="1" parent="1">
          <mxGeometry x="940" y="480" width="100" height="2690" as="geometry" />
        </mxCell>
        <mxCell id="VGOP_OHQhiuxO2ov4X1R-51" value="" style="html=1;points=[];perimeter=orthogonalPerimeter;outlineConnect=0;targetShapes=umlLifeline;portConstraint=eastwest;newEdgeStyle={&quot;edgeStyle&quot;:&quot;elbowEdgeStyle&quot;,&quot;elbow&quot;:&quot;vertical&quot;,&quot;curved&quot;:0,&quot;rounded&quot;:0};" vertex="1" parent="VGOP_OHQhiuxO2ov4X1R-9">
          <mxGeometry x="45" y="270" width="10" height="2420" as="geometry" />
        </mxCell>
        <mxCell id="Ln9rIKD_Rvu5jh2WX0Lf-1" value="" style="html=1;points=[];perimeter=orthogonalPerimeter;outlineConnect=0;targetShapes=umlLifeline;portConstraint=eastwest;newEdgeStyle={&quot;edgeStyle&quot;:&quot;elbowEdgeStyle&quot;,&quot;elbow&quot;:&quot;vertical&quot;,&quot;curved&quot;:0,&quot;rounded&quot;:0};" vertex="1" parent="VGOP_OHQhiuxO2ov4X1R-9">
          <mxGeometry x="50" y="500" width="10" height="40" as="geometry" />
        </mxCell>
        <mxCell id="Ln9rIKD_Rvu5jh2WX0Lf-2" value="Pripravimo množice za vsako &lt;br&gt;vrsto entitete in razporedimo vrnjene objekte v&amp;nbsp;&lt;br&gt;ustrezno množico" style="html=1;align=left;spacingLeft=2;endArrow=block;rounded=0;edgeStyle=orthogonalEdgeStyle;curved=0;rounded=0;" edge="1" target="Ln9rIKD_Rvu5jh2WX0Lf-1" parent="VGOP_OHQhiuxO2ov4X1R-9">
          <mxGeometry relative="1" as="geometry">
            <mxPoint x="55" y="480" as="sourcePoint" />
            <Array as="points">
              <mxPoint x="85" y="510" />
            </Array>
          </mxGeometry>
        </mxCell>
        <mxCell id="VGOP_OHQhiuxO2ov4X1R-11" value="Sinhronizacijska knjižnica" style="shape=umlLifeline;perimeter=lifelinePerimeter;whiteSpace=wrap;html=1;container=1;collapsible=0;recursiveResize=0;outlineConnect=0;rounded=1;shadow=0;comic=0;labelBackgroundColor=none;strokeWidth=1;fontFamily=Verdana;fontSize=12;align=center;" vertex="1" parent="1">
          <mxGeometry x="-10" y="480" width="350" height="3090" as="geometry" />
        </mxCell>
        <mxCell id="VGOP_OHQhiuxO2ov4X1R-49" value="" style="html=1;points=[];perimeter=orthogonalPerimeter;outlineConnect=0;targetShapes=umlLifeline;portConstraint=eastwest;newEdgeStyle={&quot;edgeStyle&quot;:&quot;elbowEdgeStyle&quot;,&quot;elbow&quot;:&quot;vertical&quot;,&quot;curved&quot;:0,&quot;rounded&quot;:0};" vertex="1" parent="VGOP_OHQhiuxO2ov4X1R-11">
          <mxGeometry x="170" y="220" width="10" height="840" as="geometry" />
        </mxCell>
        <mxCell id="VGOP_OHQhiuxO2ov4X1R-50" value="Požene se interval za sinhronizacijo" style="html=1;align=left;spacingLeft=2;endArrow=block;rounded=0;edgeStyle=orthogonalEdgeStyle;curved=0;rounded=0;exitX=0.499;exitY=0.111;exitDx=0;exitDy=0;exitPerimeter=0;" edge="1" target="VGOP_OHQhiuxO2ov4X1R-49" parent="VGOP_OHQhiuxO2ov4X1R-11" source="VGOP_OHQhiuxO2ov4X1R-11">
          <mxGeometry x="0.0118" relative="1" as="geometry">
            <mxPoint x="200" y="200" as="sourcePoint" />
            <Array as="points">
              <mxPoint x="230" y="198" />
              <mxPoint x="230" y="230" />
            </Array>
            <mxPoint as="offset" />
          </mxGeometry>
        </mxCell>
        <mxCell id="VGOP_OHQhiuxO2ov4X1R-57" value="Opomnil bi, da se celoten proces znotraj intervala, izvaja asinhrono." style="shape=note;whiteSpace=wrap;html=1;size=14;verticalAlign=top;align=left;spacingTop=-6;rounded=0;shadow=0;comic=0;labelBackgroundColor=none;strokeWidth=1;fontFamily=Verdana;fontSize=12" vertex="1" parent="VGOP_OHQhiuxO2ov4X1R-11">
          <mxGeometry x="10" y="390" width="147.14" height="80" as="geometry" />
        </mxCell>
        <mxCell id="Ln9rIKD_Rvu5jh2WX0Lf-100" value="" style="html=1;points=[];perimeter=orthogonalPerimeter;outlineConnect=0;targetShapes=umlLifeline;portConstraint=eastwest;newEdgeStyle={&quot;edgeStyle&quot;:&quot;elbowEdgeStyle&quot;,&quot;elbow&quot;:&quot;vertical&quot;,&quot;curved&quot;:0,&quot;rounded&quot;:0};" vertex="1" parent="VGOP_OHQhiuxO2ov4X1R-11">
          <mxGeometry x="170" y="2510" width="10" height="80" as="geometry" />
        </mxCell>
        <mxCell id="VGOP_OHQhiuxO2ov4X1R-21" value="Dostopna tocka do sinhronizacijske knjiznice na brskalniku" style="shape=note;whiteSpace=wrap;html=1;size=14;verticalAlign=top;align=left;spacingTop=-6;rounded=0;shadow=0;comic=0;labelBackgroundColor=none;strokeWidth=1;fontFamily=Verdana;fontSize=12" vertex="1" parent="1">
          <mxGeometry x="-10" y="390" width="350" height="80" as="geometry" />
        </mxCell>
        <mxCell id="VGOP_OHQhiuxO2ov4X1R-22" value="Operacije z bazo so asinhrone, ampak jih izvajamo tako, da postane logika sinhrona" style="shape=note;whiteSpace=wrap;html=1;size=14;verticalAlign=top;align=left;spacingTop=-6;rounded=0;shadow=0;comic=0;labelBackgroundColor=none;strokeWidth=1;fontFamily=Verdana;fontSize=12" vertex="1" parent="1">
          <mxGeometry x="460" y="390" width="440" height="80" as="geometry" />
        </mxCell>
        <mxCell id="VGOP_OHQhiuxO2ov4X1R-23" value="Streznik z zalednim delom sinhronizacijske knjiznice" style="shape=umlLifeline;perimeter=lifelinePerimeter;whiteSpace=wrap;html=1;container=1;collapsible=0;recursiveResize=0;outlineConnect=0;rounded=1;shadow=0;comic=0;labelBackgroundColor=none;strokeWidth=1;fontFamily=Verdana;fontSize=12;align=center;size=60;" vertex="1" parent="1">
          <mxGeometry x="1430" y="480" width="160" height="2210" as="geometry" />
        </mxCell>
        <mxCell id="Ln9rIKD_Rvu5jh2WX0Lf-4" value="" style="html=1;points=[];perimeter=orthogonalPerimeter;outlineConnect=0;targetShapes=umlLifeline;portConstraint=eastwest;newEdgeStyle={&quot;edgeStyle&quot;:&quot;elbowEdgeStyle&quot;,&quot;elbow&quot;:&quot;vertical&quot;,&quot;curved&quot;:0,&quot;rounded&quot;:0};" vertex="1" parent="VGOP_OHQhiuxO2ov4X1R-23">
          <mxGeometry x="75" y="560" width="10" height="1440" as="geometry" />
        </mxCell>
        <mxCell id="VGOP_OHQhiuxO2ov4X1R-24" value="Aplikacija brskalnika" style="shape=umlLifeline;perimeter=lifelinePerimeter;whiteSpace=wrap;html=1;container=1;collapsible=0;recursiveResize=0;outlineConnect=0;rounded=1;shadow=0;comic=0;labelBackgroundColor=none;strokeWidth=1;fontFamily=Verdana;fontSize=12;align=center;" vertex="1" parent="1">
          <mxGeometry x="-160" y="480" width="108.57000000000001" height="1800" as="geometry" />
        </mxCell>
        <mxCell id="VGOP_OHQhiuxO2ov4X1R-26" value="Shema predpostavlja, da se je inicializacija že zgodila" style="shape=note;whiteSpace=wrap;html=1;size=14;verticalAlign=top;align=left;spacingTop=-6;rounded=0;shadow=0;comic=0;labelBackgroundColor=none;strokeWidth=1;fontFamily=Verdana;fontSize=12" vertex="1" parent="VGOP_OHQhiuxO2ov4X1R-24">
          <mxGeometry x="-8.569999999999993" y="70" width="117.14" height="70" as="geometry" />
        </mxCell>
        <mxCell id="VGOP_OHQhiuxO2ov4X1R-40" value="Storitev za&lt;br&gt;združevanje podatkov" style="shape=umlLifeline;perimeter=lifelinePerimeter;whiteSpace=wrap;html=1;container=1;dropTarget=0;collapsible=0;recursiveResize=0;outlineConnect=0;portConstraint=eastwest;newEdgeStyle={&quot;edgeStyle&quot;:&quot;elbowEdgeStyle&quot;,&quot;elbow&quot;:&quot;vertical&quot;,&quot;curved&quot;:0,&quot;rounded&quot;:0};" vertex="1" parent="1">
          <mxGeometry x="350" y="480" width="100" height="3010" as="geometry" />
        </mxCell>
        <mxCell id="Ln9rIKD_Rvu5jh2WX0Lf-73" value="" style="html=1;points=[];perimeter=orthogonalPerimeter;outlineConnect=0;targetShapes=umlLifeline;portConstraint=eastwest;newEdgeStyle={&quot;edgeStyle&quot;:&quot;elbowEdgeStyle&quot;,&quot;elbow&quot;:&quot;vertical&quot;,&quot;curved&quot;:0,&quot;rounded&quot;:0};" vertex="1" parent="VGOP_OHQhiuxO2ov4X1R-40">
          <mxGeometry x="45" y="900" width="10" height="80" as="geometry" />
        </mxCell>
        <mxCell id="Ln9rIKD_Rvu5jh2WX0Lf-76" value="" style="html=1;points=[];perimeter=orthogonalPerimeter;outlineConnect=0;targetShapes=umlLifeline;portConstraint=eastwest;newEdgeStyle={&quot;edgeStyle&quot;:&quot;elbowEdgeStyle&quot;,&quot;elbow&quot;:&quot;vertical&quot;,&quot;curved&quot;:0,&quot;rounded&quot;:0};" vertex="1" parent="VGOP_OHQhiuxO2ov4X1R-40">
          <mxGeometry x="45" y="990" width="10" height="80" as="geometry" />
        </mxCell>
        <mxCell id="VGOP_OHQhiuxO2ov4X1R-52" value="Začni proces sinhornizacije" style="html=1;verticalAlign=bottom;endArrow=block;edgeStyle=elbowEdgeStyle;elbow=vertical;curved=0;rounded=0;" edge="1" target="VGOP_OHQhiuxO2ov4X1R-51" parent="1" source="VGOP_OHQhiuxO2ov4X1R-49">
          <mxGeometry relative="1" as="geometry">
            <mxPoint x="425" y="760" as="sourcePoint" />
            <Array as="points">
              <mxPoint x="550" y="760" />
            </Array>
          </mxGeometry>
        </mxCell>
        <mxCell id="VGOP_OHQhiuxO2ov4X1R-55" value="Poišči vse objekte v stanju &quot;pending_sync&quot;" style="html=1;verticalAlign=bottom;endArrow=block;edgeStyle=elbowEdgeStyle;elbow=vertical;curved=0;rounded=0;" edge="1" target="VGOP_OHQhiuxO2ov4X1R-54" parent="1" source="VGOP_OHQhiuxO2ov4X1R-51">
          <mxGeometry relative="1" as="geometry">
            <mxPoint x="575" y="860" as="sourcePoint" />
            <Array as="points">
              <mxPoint x="710" y="870" />
            </Array>
          </mxGeometry>
        </mxCell>
        <mxCell id="VGOP_OHQhiuxO2ov4X1R-56" value="Vrni tabelo vseh ustreznih objektov" style="html=1;verticalAlign=bottom;endArrow=open;dashed=1;endSize=8;edgeStyle=elbowEdgeStyle;elbow=vertical;curved=0;rounded=0;" edge="1" source="VGOP_OHQhiuxO2ov4X1R-54" parent="1" target="VGOP_OHQhiuxO2ov4X1R-51">
          <mxGeometry relative="1" as="geometry">
            <mxPoint x="575" y="935" as="targetPoint" />
          </mxGeometry>
        </mxCell>
        <mxCell id="Ln9rIKD_Rvu5jh2WX0Lf-5" value="Za vsako entiteto pošljemo zahtevo za sinhronizacijo podatkov na zaledni sistem&lt;br&gt;(api/refactored/sync-merging/{entity_name})" style="html=1;verticalAlign=bottom;endArrow=block;edgeStyle=elbowEdgeStyle;elbow=vertical;curved=0;rounded=0;" edge="1" target="Ln9rIKD_Rvu5jh2WX0Lf-4" parent="1" source="VGOP_OHQhiuxO2ov4X1R-51">
          <mxGeometry relative="1" as="geometry">
            <mxPoint x="1435" y="1040" as="sourcePoint" />
            <mxPoint x="1420" y="1050" as="targetPoint" />
            <Array as="points">
              <mxPoint x="1230" y="1050" />
            </Array>
          </mxGeometry>
        </mxCell>
        <mxCell id="Ln9rIKD_Rvu5jh2WX0Lf-7" value="Storitev za konfiguracijo" style="shape=umlLifeline;perimeter=lifelinePerimeter;whiteSpace=wrap;html=1;container=1;dropTarget=0;collapsible=0;recursiveResize=0;outlineConnect=0;portConstraint=eastwest;newEdgeStyle={&quot;edgeStyle&quot;:&quot;elbowEdgeStyle&quot;,&quot;elbow&quot;:&quot;vertical&quot;,&quot;curved&quot;:0,&quot;rounded&quot;:0};" vertex="1" parent="1">
          <mxGeometry x="2068" y="490" width="100" height="2040" as="geometry" />
        </mxCell>
        <mxCell id="Ln9rIKD_Rvu5jh2WX0Lf-52" value="" style="html=1;points=[];perimeter=orthogonalPerimeter;outlineConnect=0;targetShapes=umlLifeline;portConstraint=eastwest;newEdgeStyle={&quot;edgeStyle&quot;:&quot;elbowEdgeStyle&quot;,&quot;elbow&quot;:&quot;vertical&quot;,&quot;curved&quot;:0,&quot;rounded&quot;:0};" vertex="1" parent="Ln9rIKD_Rvu5jh2WX0Lf-7">
          <mxGeometry x="45" y="1480" width="10" height="130" as="geometry" />
        </mxCell>
        <mxCell id="Ln9rIKD_Rvu5jh2WX0Lf-8" value="Storitev za združevanje podatkov" style="shape=umlLifeline;perimeter=lifelinePerimeter;whiteSpace=wrap;html=1;container=1;dropTarget=0;collapsible=0;recursiveResize=0;outlineConnect=0;portConstraint=eastwest;newEdgeStyle={&quot;edgeStyle&quot;:&quot;elbowEdgeStyle&quot;,&quot;elbow&quot;:&quot;vertical&quot;,&quot;curved&quot;:0,&quot;rounded&quot;:0};" vertex="1" parent="1">
          <mxGeometry x="1860" y="490" width="100" height="2110" as="geometry" />
        </mxCell>
        <mxCell id="Ln9rIKD_Rvu5jh2WX0Lf-46" value="" style="html=1;points=[];perimeter=orthogonalPerimeter;outlineConnect=0;targetShapes=umlLifeline;portConstraint=eastwest;newEdgeStyle={&quot;edgeStyle&quot;:&quot;elbowEdgeStyle&quot;,&quot;elbow&quot;:&quot;vertical&quot;,&quot;curved&quot;:0,&quot;rounded&quot;:0};" vertex="1" parent="Ln9rIKD_Rvu5jh2WX0Lf-8">
          <mxGeometry x="45" y="1300" width="10" height="530" as="geometry" />
        </mxCell>
        <mxCell id="Ln9rIKD_Rvu5jh2WX0Lf-48" value="" style="html=1;points=[];perimeter=orthogonalPerimeter;outlineConnect=0;targetShapes=umlLifeline;portConstraint=eastwest;newEdgeStyle={&quot;edgeStyle&quot;:&quot;elbowEdgeStyle&quot;,&quot;elbow&quot;:&quot;vertical&quot;,&quot;curved&quot;:0,&quot;rounded&quot;:0};" vertex="1" parent="Ln9rIKD_Rvu5jh2WX0Lf-8">
          <mxGeometry x="50" y="1340" width="10" height="40" as="geometry" />
        </mxCell>
        <mxCell id="Ln9rIKD_Rvu5jh2WX0Lf-49" value="Pretvori podatek iz zahteve v tabelo" style="html=1;align=left;spacingLeft=2;endArrow=block;rounded=0;edgeStyle=orthogonalEdgeStyle;curved=0;rounded=0;" edge="1" target="Ln9rIKD_Rvu5jh2WX0Lf-48" parent="Ln9rIKD_Rvu5jh2WX0Lf-8">
          <mxGeometry relative="1" as="geometry">
            <mxPoint x="55" y="1320" as="sourcePoint" />
            <Array as="points">
              <mxPoint x="85" y="1350" />
            </Array>
          </mxGeometry>
        </mxCell>
        <mxCell id="Ln9rIKD_Rvu5jh2WX0Lf-50" value="" style="html=1;points=[];perimeter=orthogonalPerimeter;outlineConnect=0;targetShapes=umlLifeline;portConstraint=eastwest;newEdgeStyle={&quot;edgeStyle&quot;:&quot;elbowEdgeStyle&quot;,&quot;elbow&quot;:&quot;vertical&quot;,&quot;curved&quot;:0,&quot;rounded&quot;:0};" vertex="1" parent="Ln9rIKD_Rvu5jh2WX0Lf-8">
          <mxGeometry x="50" y="1420" width="10" height="40" as="geometry" />
        </mxCell>
        <mxCell id="Ln9rIKD_Rvu5jh2WX0Lf-51" value="Pretvori predhodnji podatek iz baze v tabelo" style="html=1;align=left;spacingLeft=2;endArrow=block;rounded=0;edgeStyle=orthogonalEdgeStyle;curved=0;rounded=0;" edge="1" target="Ln9rIKD_Rvu5jh2WX0Lf-50" parent="Ln9rIKD_Rvu5jh2WX0Lf-8">
          <mxGeometry x="0.0117" relative="1" as="geometry">
            <mxPoint x="55" y="1400" as="sourcePoint" />
            <Array as="points">
              <mxPoint x="85" y="1430" />
            </Array>
            <mxPoint as="offset" />
          </mxGeometry>
        </mxCell>
        <mxCell id="Ln9rIKD_Rvu5jh2WX0Lf-59" value="" style="html=1;points=[];perimeter=orthogonalPerimeter;outlineConnect=0;targetShapes=umlLifeline;portConstraint=eastwest;newEdgeStyle={&quot;edgeStyle&quot;:&quot;elbowEdgeStyle&quot;,&quot;elbow&quot;:&quot;vertical&quot;,&quot;curved&quot;:0,&quot;rounded&quot;:0};" vertex="1" parent="Ln9rIKD_Rvu5jh2WX0Lf-8">
          <mxGeometry x="50" y="1630" width="10" height="40" as="geometry" />
        </mxCell>
        <mxCell id="Ln9rIKD_Rvu5jh2WX0Lf-60" value="Združimo podatke na podlagi pravil" style="html=1;align=left;spacingLeft=2;endArrow=block;rounded=0;edgeStyle=orthogonalEdgeStyle;curved=0;rounded=0;" edge="1" target="Ln9rIKD_Rvu5jh2WX0Lf-59" parent="Ln9rIKD_Rvu5jh2WX0Lf-8">
          <mxGeometry relative="1" as="geometry">
            <mxPoint x="55" y="1610" as="sourcePoint" />
            <Array as="points">
              <mxPoint x="85" y="1640" />
            </Array>
          </mxGeometry>
        </mxCell>
        <mxCell id="Ln9rIKD_Rvu5jh2WX0Lf-9" value="Storitev za manipulacijo z entiteto" style="shape=umlLifeline;perimeter=lifelinePerimeter;whiteSpace=wrap;html=1;container=1;dropTarget=0;collapsible=0;recursiveResize=0;outlineConnect=0;portConstraint=eastwest;newEdgeStyle={&quot;edgeStyle&quot;:&quot;elbowEdgeStyle&quot;,&quot;elbow&quot;:&quot;vertical&quot;,&quot;curved&quot;:0,&quot;rounded&quot;:0};" vertex="1" parent="1">
          <mxGeometry x="1670" y="490" width="100" height="1480" as="geometry" />
        </mxCell>
        <mxCell id="Ln9rIKD_Rvu5jh2WX0Lf-28" value="" style="html=1;points=[];perimeter=orthogonalPerimeter;outlineConnect=0;targetShapes=umlLifeline;portConstraint=eastwest;newEdgeStyle={&quot;edgeStyle&quot;:&quot;elbowEdgeStyle&quot;,&quot;elbow&quot;:&quot;vertical&quot;,&quot;curved&quot;:0,&quot;rounded&quot;:0};" vertex="1" parent="Ln9rIKD_Rvu5jh2WX0Lf-9">
          <mxGeometry x="45" y="560" width="10" height="410" as="geometry" />
        </mxCell>
        <mxCell id="Ln9rIKD_Rvu5jh2WX0Lf-10" value="Podatkovna baza zalednega sistema" style="shape=umlLifeline;perimeter=lifelinePerimeter;whiteSpace=wrap;html=1;container=1;dropTarget=0;collapsible=0;recursiveResize=0;outlineConnect=0;portConstraint=eastwest;newEdgeStyle={&quot;edgeStyle&quot;:&quot;elbowEdgeStyle&quot;,&quot;elbow&quot;:&quot;vertical&quot;,&quot;curved&quot;:0,&quot;rounded&quot;:0};" vertex="1" parent="1">
          <mxGeometry x="2270" y="490" width="100" height="2080" as="geometry" />
        </mxCell>
        <mxCell id="Ln9rIKD_Rvu5jh2WX0Lf-32" value="" style="html=1;points=[];perimeter=orthogonalPerimeter;outlineConnect=0;targetShapes=umlLifeline;portConstraint=eastwest;newEdgeStyle={&quot;edgeStyle&quot;:&quot;elbowEdgeStyle&quot;,&quot;elbow&quot;:&quot;vertical&quot;,&quot;curved&quot;:0,&quot;rounded&quot;:0};" vertex="1" parent="Ln9rIKD_Rvu5jh2WX0Lf-10">
          <mxGeometry x="45" y="980" width="10" height="380" as="geometry" />
        </mxCell>
        <mxCell id="Ln9rIKD_Rvu5jh2WX0Lf-20" value="Alternativni izzidi" style="swimlane;childLayout=stackLayout;resizeParent=1;resizeParentMax=0;horizontal=1;startSize=20;horizontalStack=0;html=1;" vertex="1" parent="1">
          <mxGeometry x="1030" y="1150" width="660" height="280" as="geometry" />
        </mxCell>
        <mxCell id="Ln9rIKD_Rvu5jh2WX0Lf-21" value="Entiteta ne obstaja" style="swimlane;startSize=20;horizontal=0;html=1;" vertex="1" parent="Ln9rIKD_Rvu5jh2WX0Lf-20">
          <mxGeometry y="20" width="660" height="130" as="geometry" />
        </mxCell>
        <mxCell id="Ln9rIKD_Rvu5jh2WX0Lf-22" value="Entiteta obstaja" style="swimlane;startSize=20;horizontal=0;html=1;" vertex="1" parent="Ln9rIKD_Rvu5jh2WX0Lf-20">
          <mxGeometry y="150" width="660" height="130" as="geometry" />
        </mxCell>
        <mxCell id="Ln9rIKD_Rvu5jh2WX0Lf-26" style="edgeStyle=elbowEdgeStyle;rounded=0;orthogonalLoop=1;jettySize=auto;html=1;elbow=vertical;curved=0;entryX=-0.1;entryY=0.033;entryDx=0;entryDy=0;entryPerimeter=0;" edge="1" parent="1" source="Ln9rIKD_Rvu5jh2WX0Lf-4" target="Ln9rIKD_Rvu5jh2WX0Lf-28">
          <mxGeometry relative="1" as="geometry">
            <mxPoint x="1670" y="1060" as="targetPoint" />
          </mxGeometry>
        </mxCell>
        <mxCell id="Ln9rIKD_Rvu5jh2WX0Lf-27" value="Poišči PHP entiteto&lt;br&gt;preko posredovanega &lt;br&gt;imena v zahtevi" style="edgeLabel;html=1;align=center;verticalAlign=middle;resizable=0;points=[];" vertex="1" connectable="0" parent="Ln9rIKD_Rvu5jh2WX0Lf-26">
          <mxGeometry x="-0.162" y="1" relative="1" as="geometry">
            <mxPoint as="offset" />
          </mxGeometry>
        </mxCell>
        <mxCell id="Ln9rIKD_Rvu5jh2WX0Lf-29" value="Entiteta ne obstaja" style="html=1;verticalAlign=bottom;endArrow=open;dashed=1;endSize=8;edgeStyle=elbowEdgeStyle;elbow=vertical;curved=0;rounded=0;entryX=1.2;entryY=0.186;entryDx=0;entryDy=0;entryPerimeter=0;" edge="1" parent="1" source="Ln9rIKD_Rvu5jh2WX0Lf-28" target="Ln9rIKD_Rvu5jh2WX0Lf-4">
          <mxGeometry relative="1" as="geometry">
            <mxPoint x="1660" y="1170" as="sourcePoint" />
            <mxPoint x="1580" y="1170" as="targetPoint" />
          </mxGeometry>
        </mxCell>
        <mxCell id="Ln9rIKD_Rvu5jh2WX0Lf-30" value="Vrni odgovor, ki vključuje opis napake (ENTITY_DOES_NOT_EXIST)" style="html=1;verticalAlign=bottom;endArrow=open;dashed=1;endSize=8;edgeStyle=elbowEdgeStyle;elbow=vertical;curved=0;rounded=0;" edge="1" parent="1" source="Ln9rIKD_Rvu5jh2WX0Lf-4" target="VGOP_OHQhiuxO2ov4X1R-51">
          <mxGeometry relative="1" as="geometry">
            <mxPoint x="1450" y="1169" as="sourcePoint" />
            <mxPoint x="960" y="1220" as="targetPoint" />
            <Array as="points">
              <mxPoint x="1130" y="1220" />
            </Array>
          </mxGeometry>
        </mxCell>
        <mxCell id="Ln9rIKD_Rvu5jh2WX0Lf-31" value="Entiteta obstaja&amp;nbsp;" style="html=1;verticalAlign=bottom;endArrow=open;dashed=1;endSize=8;edgeStyle=elbowEdgeStyle;elbow=vertical;curved=0;rounded=0;" edge="1" parent="1" source="Ln9rIKD_Rvu5jh2WX0Lf-28">
          <mxGeometry x="0.0041" relative="1" as="geometry">
            <mxPoint x="1670" y="1330" as="sourcePoint" />
            <mxPoint x="1516" y="1380" as="targetPoint" />
            <mxPoint as="offset" />
          </mxGeometry>
        </mxCell>
        <mxCell id="Ln9rIKD_Rvu5jh2WX0Lf-33" style="edgeStyle=elbowEdgeStyle;rounded=0;orthogonalLoop=1;jettySize=auto;html=1;elbow=vertical;curved=0;entryX=0.026;entryY=0.084;entryDx=0;entryDy=0;entryPerimeter=0;" edge="1" parent="1" source="Ln9rIKD_Rvu5jh2WX0Lf-4" target="Ln9rIKD_Rvu5jh2WX0Lf-32">
          <mxGeometry relative="1" as="geometry" />
        </mxCell>
        <mxCell id="Ln9rIKD_Rvu5jh2WX0Lf-34" value="Poišči obstoječi objekt v podatkovni bazi - na podlagi objekta iz zahteve" style="edgeLabel;html=1;align=center;verticalAlign=middle;resizable=0;points=[];" vertex="1" connectable="0" parent="Ln9rIKD_Rvu5jh2WX0Lf-33">
          <mxGeometry x="0.1307" relative="1" as="geometry">
            <mxPoint as="offset" />
          </mxGeometry>
        </mxCell>
        <mxCell id="Ln9rIKD_Rvu5jh2WX0Lf-35" value="Vrne prazen podatek" style="html=1;verticalAlign=bottom;endArrow=open;dashed=1;endSize=8;edgeStyle=elbowEdgeStyle;elbow=vertical;curved=0;rounded=0;entryX=1.1;entryY=0.365;entryDx=0;entryDy=0;entryPerimeter=0;" edge="1" parent="1" source="Ln9rIKD_Rvu5jh2WX0Lf-32" target="Ln9rIKD_Rvu5jh2WX0Lf-4">
          <mxGeometry relative="1" as="geometry">
            <mxPoint x="2040" y="1520" as="sourcePoint" />
            <mxPoint x="1960" y="1520" as="targetPoint" />
          </mxGeometry>
        </mxCell>
        <mxCell id="Ln9rIKD_Rvu5jh2WX0Lf-36" value="Alternativni izzidi" style="swimlane;childLayout=stackLayout;resizeParent=1;resizeParentMax=0;horizontal=1;startSize=20;horizontalStack=0;html=1;" vertex="1" parent="1">
          <mxGeometry x="1180" y="1520" width="540" height="760" as="geometry" />
        </mxCell>
        <mxCell id="Ln9rIKD_Rvu5jh2WX0Lf-37" value="Baza nima &lt;br&gt;predhodnega podatka za objekt" style="swimlane;startSize=40;horizontal=0;html=1;" vertex="1" parent="Ln9rIKD_Rvu5jh2WX0Lf-36">
          <mxGeometry y="20" width="540" height="190" as="geometry" />
        </mxCell>
        <mxCell id="Ln9rIKD_Rvu5jh2WX0Lf-38" value="Baza ima predhodni podatek" style="swimlane;startSize=20;horizontal=0;html=1;" vertex="1" parent="Ln9rIKD_Rvu5jh2WX0Lf-36">
          <mxGeometry y="210" width="540" height="550" as="geometry" />
        </mxCell>
        <mxCell id="Ln9rIKD_Rvu5jh2WX0Lf-40" value="Shrani objekt iz zahteve v podatkovno bazo" style="html=1;verticalAlign=bottom;endArrow=block;edgeStyle=elbowEdgeStyle;elbow=vertical;curved=0;rounded=0;" edge="1" parent="1" target="Ln9rIKD_Rvu5jh2WX0Lf-32">
          <mxGeometry width="80" relative="1" as="geometry">
            <mxPoint x="1517" y="1590" as="sourcePoint" />
            <mxPoint x="2220" y="1623" as="targetPoint" />
            <Array as="points">
              <mxPoint x="1517" y="1590" />
            </Array>
          </mxGeometry>
        </mxCell>
        <mxCell id="Ln9rIKD_Rvu5jh2WX0Lf-41" value="Podatek uspešno shranjen" style="html=1;verticalAlign=bottom;endArrow=open;dashed=1;endSize=8;edgeStyle=elbowEdgeStyle;elbow=vertical;curved=0;rounded=0;" edge="1" parent="1" source="Ln9rIKD_Rvu5jh2WX0Lf-32" target="Ln9rIKD_Rvu5jh2WX0Lf-4">
          <mxGeometry relative="1" as="geometry">
            <mxPoint x="1960" y="1680" as="sourcePoint" />
            <mxPoint x="1880" y="1680" as="targetPoint" />
          </mxGeometry>
        </mxCell>
        <mxCell id="Ln9rIKD_Rvu5jh2WX0Lf-42" value="Vrni (uspešen) odgovor, ki vključuje shranjeni podatek" style="html=1;verticalAlign=bottom;endArrow=open;dashed=1;endSize=8;edgeStyle=elbowEdgeStyle;elbow=vertical;curved=0;rounded=0;entryX=1.167;entryY=0.394;entryDx=0;entryDy=0;entryPerimeter=0;" edge="1" parent="1" source="Ln9rIKD_Rvu5jh2WX0Lf-4" target="VGOP_OHQhiuxO2ov4X1R-51">
          <mxGeometry relative="1" as="geometry">
            <mxPoint x="1320" y="1680" as="sourcePoint" />
            <mxPoint x="1030" y="1660" as="targetPoint" />
          </mxGeometry>
        </mxCell>
        <mxCell id="Ln9rIKD_Rvu5jh2WX0Lf-43" value="" style="endArrow=none;dashed=1;html=1;rounded=0;strokeWidth=4;" edge="1" parent="1">
          <mxGeometry width="50" height="50" relative="1" as="geometry">
            <mxPoint x="1360" y="970" as="sourcePoint" />
            <mxPoint x="1360" y="280" as="targetPoint" />
          </mxGeometry>
        </mxCell>
        <mxCell id="Ln9rIKD_Rvu5jh2WX0Lf-44" value="Grafična ponazoritev &quot;ločnice&quot; med brskalnikom in zalednim sistemom" style="shape=note;size=20;whiteSpace=wrap;html=1;" vertex="1" parent="1">
          <mxGeometry x="1310" y="160" width="100" height="100" as="geometry" />
        </mxCell>
        <mxCell id="Ln9rIKD_Rvu5jh2WX0Lf-45" value="Dobimo predhodnji podatek iz baze" style="html=1;verticalAlign=bottom;endArrow=open;dashed=1;endSize=8;edgeStyle=elbowEdgeStyle;elbow=vertical;curved=0;rounded=0;" edge="1" parent="1" source="Ln9rIKD_Rvu5jh2WX0Lf-32">
          <mxGeometry relative="1" as="geometry">
            <mxPoint x="1850" y="1760.46" as="sourcePoint" />
            <mxPoint x="1517" y="1770" as="targetPoint" />
            <Array as="points">
              <mxPoint x="1690" y="1770" />
            </Array>
          </mxGeometry>
        </mxCell>
        <mxCell id="Ln9rIKD_Rvu5jh2WX0Lf-47" value="Poišči razlike in združi podatek iz zahteve in predhodnji podatek" style="html=1;verticalAlign=bottom;endArrow=block;edgeStyle=elbowEdgeStyle;elbow=vertical;curved=0;rounded=0;" edge="1" parent="1" source="Ln9rIKD_Rvu5jh2WX0Lf-4" target="Ln9rIKD_Rvu5jh2WX0Lf-46">
          <mxGeometry width="80" relative="1" as="geometry">
            <mxPoint x="1530" y="1800" as="sourcePoint" />
            <mxPoint x="1610" y="1800" as="targetPoint" />
            <Array as="points">
              <mxPoint x="1810" y="1797" />
            </Array>
          </mxGeometry>
        </mxCell>
        <mxCell id="Ln9rIKD_Rvu5jh2WX0Lf-53" value="Poišči pravila za &lt;br&gt;združevanje za&lt;br&gt;&amp;nbsp;identificirano entiteto" style="edgeStyle=elbowEdgeStyle;rounded=0;orthogonalLoop=1;jettySize=auto;html=1;elbow=horizontal;curved=0;" edge="1" parent="1" source="Ln9rIKD_Rvu5jh2WX0Lf-46" target="Ln9rIKD_Rvu5jh2WX0Lf-52">
          <mxGeometry relative="1" as="geometry">
            <Array as="points">
              <mxPoint x="2020" y="1980" />
            </Array>
          </mxGeometry>
        </mxCell>
        <mxCell id="Ln9rIKD_Rvu5jh2WX0Lf-55" value="Dobimo pravila za&amp;nbsp;&lt;br style=&quot;border-color: var(--border-color);&quot;&gt;združevnje polj entitete" style="html=1;verticalAlign=bottom;endArrow=open;dashed=1;endSize=8;edgeStyle=elbowEdgeStyle;elbow=vertical;curved=0;rounded=0;" edge="1" parent="1" source="Ln9rIKD_Rvu5jh2WX0Lf-52" target="Ln9rIKD_Rvu5jh2WX0Lf-46">
          <mxGeometry relative="1" as="geometry">
            <mxPoint x="2100" y="2070" as="sourcePoint" />
            <mxPoint x="2020" y="2070" as="targetPoint" />
          </mxGeometry>
        </mxCell>
        <mxCell id="Ln9rIKD_Rvu5jh2WX0Lf-61" value="Vrnemo združene podatke" style="html=1;verticalAlign=bottom;endArrow=open;dashed=1;endSize=8;edgeStyle=elbowEdgeStyle;elbow=vertical;curved=0;rounded=0;" edge="1" parent="1" source="Ln9rIKD_Rvu5jh2WX0Lf-46" target="Ln9rIKD_Rvu5jh2WX0Lf-4">
          <mxGeometry x="0.0007" relative="1" as="geometry">
            <mxPoint x="1860" y="2200" as="sourcePoint" />
            <mxPoint x="1780" y="2200" as="targetPoint" />
            <Array as="points">
              <mxPoint x="1710" y="2200" />
            </Array>
            <mxPoint as="offset" />
          </mxGeometry>
        </mxCell>
        <mxCell id="Ln9rIKD_Rvu5jh2WX0Lf-62" value="Vrnemo odgovor ki vsebuje združene podatke" style="html=1;verticalAlign=bottom;endArrow=open;dashed=1;endSize=8;edgeStyle=elbowEdgeStyle;elbow=vertical;curved=0;rounded=0;entryX=1.1;entryY=0.682;entryDx=0;entryDy=0;entryPerimeter=0;" edge="1" parent="1" source="Ln9rIKD_Rvu5jh2WX0Lf-4" target="VGOP_OHQhiuxO2ov4X1R-51">
          <mxGeometry relative="1" as="geometry">
            <mxPoint x="1370" y="2200" as="sourcePoint" />
            <mxPoint x="1290" y="2200" as="targetPoint" />
          </mxGeometry>
        </mxCell>
        <mxCell id="Ln9rIKD_Rvu5jh2WX0Lf-63" value="Alternativni izzidi" style="swimlane;childLayout=stackLayout;resizeParent=1;resizeParentMax=0;horizontal=1;startSize=20;horizontalStack=0;html=1;" vertex="1" parent="1">
          <mxGeometry x="690" y="2440" width="390" height="660" as="geometry" />
        </mxCell>
        <mxCell id="Ln9rIKD_Rvu5jh2WX0Lf-64" value="Uspešno &lt;br&gt;združeni podatki" style="swimlane;startSize=50;horizontal=0;html=1;" vertex="1" parent="Ln9rIKD_Rvu5jh2WX0Lf-63">
          <mxGeometry y="20" width="390" height="230" as="geometry" />
        </mxCell>
        <mxCell id="Ln9rIKD_Rvu5jh2WX0Lf-89" value="Izvedemo isto logiko" style="html=1;align=left;spacingLeft=2;endArrow=block;rounded=0;edgeStyle=orthogonalEdgeStyle;curved=0;rounded=0;" edge="1" parent="Ln9rIKD_Rvu5jh2WX0Lf-64">
          <mxGeometry relative="1" as="geometry">
            <mxPoint x="305" y="60" as="sourcePoint" />
            <Array as="points">
              <mxPoint x="335" y="90" />
            </Array>
            <mxPoint x="240" y="-1220" as="targetPoint" />
          </mxGeometry>
        </mxCell>
        <mxCell id="Ln9rIKD_Rvu5jh2WX0Lf-65" value="Prišlo je do konflikta" style="swimlane;startSize=20;horizontal=0;html=1;" vertex="1" parent="Ln9rIKD_Rvu5jh2WX0Lf-63">
          <mxGeometry y="250" width="390" height="410" as="geometry" />
        </mxCell>
        <mxCell id="Ln9rIKD_Rvu5jh2WX0Lf-71" value="Preveri ali vmes&lt;br&gt;prišlo do&lt;br&gt;novih podatkov" style="html=1;verticalAlign=bottom;endArrow=block;edgeStyle=elbowEdgeStyle;elbow=horizontal;curved=0;rounded=0;" edge="1" parent="1" source="VGOP_OHQhiuxO2ov4X1R-51" target="Ln9rIKD_Rvu5jh2WX0Lf-69">
          <mxGeometry x="-0.0044" width="80" relative="1" as="geometry">
            <mxPoint x="890" y="1280" as="sourcePoint" />
            <mxPoint x="910" y="1242" as="targetPoint" />
            <Array as="points">
              <mxPoint x="930" y="1242" />
            </Array>
            <mxPoint as="offset" />
          </mxGeometry>
        </mxCell>
        <mxCell id="Ln9rIKD_Rvu5jh2WX0Lf-72" value="Vrne nove &lt;br&gt;podatke ali &lt;br&gt;prazen podatek" style="html=1;verticalAlign=bottom;endArrow=open;dashed=1;endSize=8;edgeStyle=elbowEdgeStyle;elbow=vertical;curved=0;rounded=0;entryX=-0.033;entryY=0.235;entryDx=0;entryDy=0;entryPerimeter=0;" edge="1" parent="1" source="Ln9rIKD_Rvu5jh2WX0Lf-69" target="VGOP_OHQhiuxO2ov4X1R-51">
          <mxGeometry relative="1" as="geometry">
            <mxPoint x="870" y="1330" as="sourcePoint" />
            <mxPoint x="950" y="1319" as="targetPoint" />
          </mxGeometry>
        </mxCell>
        <mxCell id="Ln9rIKD_Rvu5jh2WX0Lf-74" value="Če imamo nove podatke izračunaj razlike" style="html=1;verticalAlign=bottom;endArrow=block;edgeStyle=elbowEdgeStyle;elbow=vertical;curved=0;rounded=0;" edge="1" target="Ln9rIKD_Rvu5jh2WX0Lf-73" parent="1" source="VGOP_OHQhiuxO2ov4X1R-51">
          <mxGeometry x="-0.0142" relative="1" as="geometry">
            <mxPoint x="475" y="1380" as="sourcePoint" />
            <Array as="points">
              <mxPoint x="540" y="1380" />
            </Array>
            <mxPoint as="offset" />
          </mxGeometry>
        </mxCell>
        <mxCell id="Ln9rIKD_Rvu5jh2WX0Lf-75" value="Vrne razlike med objektom v začasni bazi in objektu iz odgovora zahteve" style="html=1;verticalAlign=bottom;endArrow=open;dashed=1;endSize=8;edgeStyle=elbowEdgeStyle;elbow=vertical;curved=0;rounded=0;" edge="1" source="Ln9rIKD_Rvu5jh2WX0Lf-73" parent="1" target="VGOP_OHQhiuxO2ov4X1R-51">
          <mxGeometry relative="1" as="geometry">
            <mxPoint x="475" y="1455" as="targetPoint" />
          </mxGeometry>
        </mxCell>
        <mxCell id="Ln9rIKD_Rvu5jh2WX0Lf-77" value="Če imamo nov podatek združi podatke in nastavi status &quot;pending_sync&quot;" style="html=1;verticalAlign=bottom;endArrow=block;edgeStyle=elbowEdgeStyle;elbow=vertical;curved=0;rounded=0;exitX=-0.167;exitY=0.298;exitDx=0;exitDy=0;exitPerimeter=0;" edge="1" target="Ln9rIKD_Rvu5jh2WX0Lf-76" parent="1" source="VGOP_OHQhiuxO2ov4X1R-51">
          <mxGeometry relative="1" as="geometry">
            <mxPoint x="475" y="1470" as="sourcePoint" />
          </mxGeometry>
        </mxCell>
        <mxCell id="Ln9rIKD_Rvu5jh2WX0Lf-78" value="Vrne združene podatke z novim + spremenjen status" style="html=1;verticalAlign=bottom;endArrow=open;dashed=1;endSize=8;edgeStyle=elbowEdgeStyle;elbow=vertical;curved=0;rounded=0;entryX=0.1;entryY=0.329;entryDx=0;entryDy=0;entryPerimeter=0;" edge="1" source="Ln9rIKD_Rvu5jh2WX0Lf-76" parent="1" target="VGOP_OHQhiuxO2ov4X1R-51">
          <mxGeometry relative="1" as="geometry">
            <mxPoint x="475" y="1545" as="targetPoint" />
          </mxGeometry>
        </mxCell>
        <mxCell id="Ln9rIKD_Rvu5jh2WX0Lf-80" value="Shrani nov (združen) objekt" style="html=1;verticalAlign=bottom;endArrow=block;edgeStyle=elbowEdgeStyle;elbow=vertical;curved=0;rounded=0;exitX=-0.033;exitY=0.337;exitDx=0;exitDy=0;exitPerimeter=0;" edge="1" target="Ln9rIKD_Rvu5jh2WX0Lf-79" parent="1" source="VGOP_OHQhiuxO2ov4X1R-51">
          <mxGeometry relative="1" as="geometry">
            <mxPoint x="585" y="1560" as="sourcePoint" />
          </mxGeometry>
        </mxCell>
        <mxCell id="Ln9rIKD_Rvu5jh2WX0Lf-81" value="Uspešno shranjen objekt" style="html=1;verticalAlign=bottom;endArrow=open;dashed=1;endSize=8;edgeStyle=elbowEdgeStyle;elbow=vertical;curved=0;rounded=0;entryX=-0.033;entryY=0.352;entryDx=0;entryDy=0;entryPerimeter=0;" edge="1" source="Ln9rIKD_Rvu5jh2WX0Lf-79" parent="1" target="VGOP_OHQhiuxO2ov4X1R-51">
          <mxGeometry relative="1" as="geometry">
            <mxPoint x="585" y="1635" as="targetPoint" />
          </mxGeometry>
        </mxCell>
        <mxCell id="Ln9rIKD_Rvu5jh2WX0Lf-87" value="Uspešno zbrisan podatek" style="html=1;verticalAlign=bottom;endArrow=open;dashed=1;endSize=8;edgeStyle=elbowEdgeStyle;elbow=vertical;curved=0;rounded=0;entryX=-0.3;entryY=0.374;entryDx=0;entryDy=0;entryPerimeter=0;" edge="1" source="Ln9rIKD_Rvu5jh2WX0Lf-85" parent="1" target="VGOP_OHQhiuxO2ov4X1R-51">
          <mxGeometry relative="1" as="geometry">
            <mxPoint x="835" y="1695" as="targetPoint" />
          </mxGeometry>
        </mxCell>
        <mxCell id="Ln9rIKD_Rvu5jh2WX0Lf-91" value="Shranimo konflikte v bazo za konflikte" style="html=1;verticalAlign=bottom;endArrow=block;edgeStyle=elbowEdgeStyle;elbow=vertical;curved=0;rounded=0;exitX=0.017;exitY=0.826;exitDx=0;exitDy=0;exitPerimeter=0;" edge="1" target="Ln9rIKD_Rvu5jh2WX0Lf-90" parent="1" source="VGOP_OHQhiuxO2ov4X1R-51">
          <mxGeometry relative="1" as="geometry">
            <mxPoint x="585" y="2750" as="sourcePoint" />
          </mxGeometry>
        </mxCell>
        <mxCell id="Ln9rIKD_Rvu5jh2WX0Lf-92" value="Uspešno shranjen podatek" style="html=1;verticalAlign=bottom;endArrow=open;dashed=1;endSize=8;edgeStyle=elbowEdgeStyle;elbow=vertical;curved=0;rounded=0;" edge="1" source="Ln9rIKD_Rvu5jh2WX0Lf-90" parent="1" target="VGOP_OHQhiuxO2ov4X1R-51">
          <mxGeometry relative="1" as="geometry">
            <mxPoint x="585" y="2825" as="targetPoint" />
          </mxGeometry>
        </mxCell>
        <mxCell id="Ln9rIKD_Rvu5jh2WX0Lf-98" value="Objektu, ki smo ga poslali v zahtevi popravimo status na &quot;conflicted&quot;" style="html=1;verticalAlign=bottom;endArrow=block;edgeStyle=elbowEdgeStyle;elbow=vertical;curved=0;rounded=0;" edge="1" target="Ln9rIKD_Rvu5jh2WX0Lf-97" parent="1" source="VGOP_OHQhiuxO2ov4X1R-51">
          <mxGeometry relative="1" as="geometry">
            <mxPoint x="970" y="2890" as="sourcePoint" />
          </mxGeometry>
        </mxCell>
        <mxCell id="Ln9rIKD_Rvu5jh2WX0Lf-99" value="Uspešno popravljen podatek" style="html=1;verticalAlign=bottom;endArrow=open;dashed=1;endSize=8;edgeStyle=elbowEdgeStyle;elbow=vertical;curved=0;rounded=0;entryX=-0.15;entryY=0.915;entryDx=0;entryDy=0;entryPerimeter=0;" edge="1" source="Ln9rIKD_Rvu5jh2WX0Lf-97" parent="1" target="VGOP_OHQhiuxO2ov4X1R-51">
          <mxGeometry relative="1" as="geometry">
            <mxPoint x="585" y="2965" as="targetPoint" />
          </mxGeometry>
        </mxCell>
        <mxCell id="Ln9rIKD_Rvu5jh2WX0Lf-101" value="Pošljemo obvestilo o konfliktu (CONFLICT)" style="html=1;verticalAlign=bottom;endArrow=block;edgeStyle=elbowEdgeStyle;elbow=vertical;curved=0;rounded=0;" edge="1" parent="1" source="VGOP_OHQhiuxO2ov4X1R-51" target="Ln9rIKD_Rvu5jh2WX0Lf-100">
          <mxGeometry width="80" relative="1" as="geometry">
            <mxPoint x="540" y="3030" as="sourcePoint" />
            <mxPoint x="620" y="3030" as="targetPoint" />
            <Array as="points">
              <mxPoint x="820" y="3030" />
            </Array>
          </mxGeometry>
        </mxCell>
      </root>
    </mxGraphModel>
  </diagram>
  <diagram id="aLhxB_o28iFIjOTlZUwl" name="preverjanjeNeuspelihPoskusov">
    <mxGraphModel dx="2568" dy="989" grid="1" gridSize="10" guides="1" tooltips="1" connect="1" arrows="1" fold="1" page="1" pageScale="1" pageWidth="827" pageHeight="1169" math="0" shadow="0">
      <root>
        <mxCell id="0" />
        <mxCell id="1" parent="0" />
        <mxCell id="vA3sisHmmeUZaoT9jqeU-1" value="Baza sinhronizacijskih podatkov" style="shape=umlLifeline;perimeter=lifelinePerimeter;whiteSpace=wrap;html=1;container=1;collapsible=0;recursiveResize=0;outlineConnect=0;rounded=1;shadow=0;comic=0;labelBackgroundColor=none;strokeWidth=1;fontFamily=Verdana;fontSize=12;align=center;" vertex="1" parent="1">
          <mxGeometry x="460" y="480" width="100" height="2970" as="geometry" />
        </mxCell>
        <mxCell id="vA3sisHmmeUZaoT9jqeU-2" value="" style="html=1;points=[];perimeter=orthogonalPerimeter;outlineConnect=0;targetShapes=umlLifeline;portConstraint=eastwest;newEdgeStyle={&quot;edgeStyle&quot;:&quot;elbowEdgeStyle&quot;,&quot;elbow&quot;:&quot;vertical&quot;,&quot;curved&quot;:0,&quot;rounded&quot;:0};" vertex="1" parent="vA3sisHmmeUZaoT9jqeU-1">
          <mxGeometry x="45" y="380" width="10" height="80" as="geometry" />
        </mxCell>
        <mxCell id="vA3sisHmmeUZaoT9jqeU-3" value="" style="html=1;points=[];perimeter=orthogonalPerimeter;outlineConnect=0;targetShapes=umlLifeline;portConstraint=eastwest;newEdgeStyle={&quot;edgeStyle&quot;:&quot;elbowEdgeStyle&quot;,&quot;elbow&quot;:&quot;vertical&quot;,&quot;curved&quot;:0,&quot;rounded&quot;:0};direction=south;" vertex="1" parent="vA3sisHmmeUZaoT9jqeU-1">
          <mxGeometry x="40" y="1090" width="20" height="25" as="geometry" />
        </mxCell>
        <mxCell id="vA3sisHmmeUZaoT9jqeU-4" value="" style="html=1;points=[];perimeter=orthogonalPerimeter;outlineConnect=0;targetShapes=umlLifeline;portConstraint=eastwest;newEdgeStyle={&quot;edgeStyle&quot;:&quot;elbowEdgeStyle&quot;,&quot;elbow&quot;:&quot;vertical&quot;,&quot;curved&quot;:0,&quot;rounded&quot;:0};" vertex="1" parent="vA3sisHmmeUZaoT9jqeU-1">
          <mxGeometry x="45" y="2410" width="10" height="80" as="geometry" />
        </mxCell>
        <mxCell id="vA3sisHmmeUZaoT9jqeU-5" value="Baza konfliktih podatkov" style="shape=umlLifeline;perimeter=lifelinePerimeter;whiteSpace=wrap;html=1;container=1;collapsible=0;recursiveResize=0;outlineConnect=0;rounded=1;shadow=0;comic=0;labelBackgroundColor=none;strokeWidth=1;fontFamily=Verdana;fontSize=12;align=center;" vertex="1" parent="1">
          <mxGeometry x="580" y="480" width="100" height="2970" as="geometry" />
        </mxCell>
        <mxCell id="vA3sisHmmeUZaoT9jqeU-6" value="" style="html=1;points=[];perimeter=orthogonalPerimeter;outlineConnect=0;targetShapes=umlLifeline;portConstraint=eastwest;newEdgeStyle={&quot;edgeStyle&quot;:&quot;elbowEdgeStyle&quot;,&quot;elbow&quot;:&quot;vertical&quot;,&quot;curved&quot;:0,&quot;rounded&quot;:0};" vertex="1" parent="vA3sisHmmeUZaoT9jqeU-5">
          <mxGeometry x="45" y="2270" width="10" height="60" as="geometry" />
        </mxCell>
        <mxCell id="vA3sisHmmeUZaoT9jqeU-7" value="Baza za ponovne poskuse" style="shape=umlLifeline;perimeter=lifelinePerimeter;whiteSpace=wrap;html=1;container=1;collapsible=0;recursiveResize=0;outlineConnect=0;rounded=1;shadow=0;comic=0;labelBackgroundColor=none;strokeWidth=1;fontFamily=Verdana;fontSize=12;align=center;" vertex="1" parent="1">
          <mxGeometry x="710" y="480" width="100" height="2940" as="geometry" />
        </mxCell>
        <mxCell id="vA3sisHmmeUZaoT9jqeU-8" value="" style="html=1;points=[];perimeter=orthogonalPerimeter;outlineConnect=0;targetShapes=umlLifeline;portConstraint=eastwest;newEdgeStyle={&quot;edgeStyle&quot;:&quot;elbowEdgeStyle&quot;,&quot;elbow&quot;:&quot;vertical&quot;,&quot;curved&quot;:0,&quot;rounded&quot;:0};" vertex="1" parent="vA3sisHmmeUZaoT9jqeU-7">
          <mxGeometry x="45" y="1140" width="10" height="30" as="geometry" />
        </mxCell>
        <mxCell id="vA3sisHmmeUZaoT9jqeU-9" value="Izbriši predhodnji podatek v začasni bazi" style="html=1;verticalAlign=bottom;endArrow=block;edgeStyle=elbowEdgeStyle;elbow=vertical;curved=0;rounded=0;" edge="1" parent="vA3sisHmmeUZaoT9jqeU-7" target="vA3sisHmmeUZaoT9jqeU-8">
          <mxGeometry relative="1" as="geometry">
            <mxPoint x="125" y="1140" as="sourcePoint" />
          </mxGeometry>
        </mxCell>
        <mxCell id="vA3sisHmmeUZaoT9jqeU-10" value="Baza za začasne podatke" style="shape=umlLifeline;perimeter=lifelinePerimeter;whiteSpace=wrap;html=1;container=1;collapsible=0;recursiveResize=0;outlineConnect=0;rounded=1;shadow=0;comic=0;labelBackgroundColor=none;strokeWidth=1;fontFamily=Verdana;fontSize=12;align=center;" vertex="1" parent="1">
          <mxGeometry x="827" y="480" width="100" height="2160" as="geometry" />
        </mxCell>
        <mxCell id="vA3sisHmmeUZaoT9jqeU-11" value="" style="html=1;points=[];perimeter=orthogonalPerimeter;outlineConnect=0;targetShapes=umlLifeline;portConstraint=eastwest;newEdgeStyle={&quot;edgeStyle&quot;:&quot;elbowEdgeStyle&quot;,&quot;elbow&quot;:&quot;vertical&quot;,&quot;curved&quot;:0,&quot;rounded&quot;:0};" vertex="1" parent="vA3sisHmmeUZaoT9jqeU-10">
          <mxGeometry x="45" y="735" width="10" height="115" as="geometry" />
        </mxCell>
        <mxCell id="vA3sisHmmeUZaoT9jqeU-12" value="Procesorska nit za sinhronizacijo" style="shape=umlLifeline;perimeter=lifelinePerimeter;whiteSpace=wrap;html=1;container=1;collapsible=0;recursiveResize=0;outlineConnect=0;rounded=1;shadow=0;comic=0;labelBackgroundColor=none;strokeWidth=1;fontFamily=Verdana;fontSize=12;align=center;" vertex="1" parent="1">
          <mxGeometry x="940" y="480" width="100" height="2690" as="geometry" />
        </mxCell>
        <mxCell id="vA3sisHmmeUZaoT9jqeU-13" value="" style="html=1;points=[];perimeter=orthogonalPerimeter;outlineConnect=0;targetShapes=umlLifeline;portConstraint=eastwest;newEdgeStyle={&quot;edgeStyle&quot;:&quot;elbowEdgeStyle&quot;,&quot;elbow&quot;:&quot;vertical&quot;,&quot;curved&quot;:0,&quot;rounded&quot;:0};" vertex="1" parent="vA3sisHmmeUZaoT9jqeU-12">
          <mxGeometry x="45" y="270" width="10" height="2420" as="geometry" />
        </mxCell>
        <mxCell id="vA3sisHmmeUZaoT9jqeU-14" value="" style="html=1;points=[];perimeter=orthogonalPerimeter;outlineConnect=0;targetShapes=umlLifeline;portConstraint=eastwest;newEdgeStyle={&quot;edgeStyle&quot;:&quot;elbowEdgeStyle&quot;,&quot;elbow&quot;:&quot;vertical&quot;,&quot;curved&quot;:0,&quot;rounded&quot;:0};" vertex="1" parent="vA3sisHmmeUZaoT9jqeU-12">
          <mxGeometry x="50" y="500" width="10" height="40" as="geometry" />
        </mxCell>
        <mxCell id="vA3sisHmmeUZaoT9jqeU-15" value="Pripravimo množice za vsako &lt;br&gt;vrsto entitete in razporedimo vrnjene objekte v&amp;nbsp;&lt;br&gt;ustrezno množico" style="html=1;align=left;spacingLeft=2;endArrow=block;rounded=0;edgeStyle=orthogonalEdgeStyle;curved=0;rounded=0;" edge="1" parent="vA3sisHmmeUZaoT9jqeU-12" target="vA3sisHmmeUZaoT9jqeU-14">
          <mxGeometry relative="1" as="geometry">
            <mxPoint x="55" y="480" as="sourcePoint" />
            <Array as="points">
              <mxPoint x="85" y="510" />
            </Array>
          </mxGeometry>
        </mxCell>
        <mxCell id="vA3sisHmmeUZaoT9jqeU-16" value="Sinhronizacijska knjižnica" style="shape=umlLifeline;perimeter=lifelinePerimeter;whiteSpace=wrap;html=1;container=1;collapsible=0;recursiveResize=0;outlineConnect=0;rounded=1;shadow=0;comic=0;labelBackgroundColor=none;strokeWidth=1;fontFamily=Verdana;fontSize=12;align=center;" vertex="1" parent="1">
          <mxGeometry x="-10" y="480" width="350" height="3090" as="geometry" />
        </mxCell>
        <mxCell id="vA3sisHmmeUZaoT9jqeU-17" value="" style="html=1;points=[];perimeter=orthogonalPerimeter;outlineConnect=0;targetShapes=umlLifeline;portConstraint=eastwest;newEdgeStyle={&quot;edgeStyle&quot;:&quot;elbowEdgeStyle&quot;,&quot;elbow&quot;:&quot;vertical&quot;,&quot;curved&quot;:0,&quot;rounded&quot;:0};" vertex="1" parent="vA3sisHmmeUZaoT9jqeU-16">
          <mxGeometry x="170" y="220" width="10" height="840" as="geometry" />
        </mxCell>
        <mxCell id="vA3sisHmmeUZaoT9jqeU-18" value="Požene se interval za ponovni poizkus" style="html=1;align=left;spacingLeft=2;endArrow=block;rounded=0;edgeStyle=orthogonalEdgeStyle;curved=0;rounded=0;exitX=0.499;exitY=0.111;exitDx=0;exitDy=0;exitPerimeter=0;" edge="1" parent="vA3sisHmmeUZaoT9jqeU-16" source="vA3sisHmmeUZaoT9jqeU-16" target="vA3sisHmmeUZaoT9jqeU-17">
          <mxGeometry x="0.0109" relative="1" as="geometry">
            <mxPoint x="200" y="200" as="sourcePoint" />
            <Array as="points">
              <mxPoint x="230" y="198" />
              <mxPoint x="230" y="230" />
            </Array>
            <mxPoint as="offset" />
          </mxGeometry>
        </mxCell>
        <mxCell id="vA3sisHmmeUZaoT9jqeU-19" value="Opomnil bi, da se celoten proces znotraj intervala, izvaja asinhrono." style="shape=note;whiteSpace=wrap;html=1;size=14;verticalAlign=top;align=left;spacingTop=-6;rounded=0;shadow=0;comic=0;labelBackgroundColor=none;strokeWidth=1;fontFamily=Verdana;fontSize=12" vertex="1" parent="vA3sisHmmeUZaoT9jqeU-16">
          <mxGeometry x="10" y="390" width="147.14" height="80" as="geometry" />
        </mxCell>
        <mxCell id="vA3sisHmmeUZaoT9jqeU-20" value="" style="html=1;points=[];perimeter=orthogonalPerimeter;outlineConnect=0;targetShapes=umlLifeline;portConstraint=eastwest;newEdgeStyle={&quot;edgeStyle&quot;:&quot;elbowEdgeStyle&quot;,&quot;elbow&quot;:&quot;vertical&quot;,&quot;curved&quot;:0,&quot;rounded&quot;:0};" vertex="1" parent="vA3sisHmmeUZaoT9jqeU-16">
          <mxGeometry x="170" y="2510" width="10" height="80" as="geometry" />
        </mxCell>
        <mxCell id="vA3sisHmmeUZaoT9jqeU-21" value="Dostopna tocka do sinhronizacijske knjiznice na brskalniku" style="shape=note;whiteSpace=wrap;html=1;size=14;verticalAlign=top;align=left;spacingTop=-6;rounded=0;shadow=0;comic=0;labelBackgroundColor=none;strokeWidth=1;fontFamily=Verdana;fontSize=12" vertex="1" parent="1">
          <mxGeometry x="-10" y="390" width="350" height="80" as="geometry" />
        </mxCell>
        <mxCell id="vA3sisHmmeUZaoT9jqeU-22" value="Operacije z bazo so asinhrone, ampak jih izvajamo tako, da postane logika sinhrona" style="shape=note;whiteSpace=wrap;html=1;size=14;verticalAlign=top;align=left;spacingTop=-6;rounded=0;shadow=0;comic=0;labelBackgroundColor=none;strokeWidth=1;fontFamily=Verdana;fontSize=12" vertex="1" parent="1">
          <mxGeometry x="460" y="390" width="440" height="80" as="geometry" />
        </mxCell>
        <mxCell id="vA3sisHmmeUZaoT9jqeU-23" value="Streznik z zalednim delom sinhronizacijske knjiznice" style="shape=umlLifeline;perimeter=lifelinePerimeter;whiteSpace=wrap;html=1;container=1;collapsible=0;recursiveResize=0;outlineConnect=0;rounded=1;shadow=0;comic=0;labelBackgroundColor=none;strokeWidth=1;fontFamily=Verdana;fontSize=12;align=center;size=60;" vertex="1" parent="1">
          <mxGeometry x="1430" y="480" width="160" height="2210" as="geometry" />
        </mxCell>
        <mxCell id="vA3sisHmmeUZaoT9jqeU-24" value="" style="html=1;points=[];perimeter=orthogonalPerimeter;outlineConnect=0;targetShapes=umlLifeline;portConstraint=eastwest;newEdgeStyle={&quot;edgeStyle&quot;:&quot;elbowEdgeStyle&quot;,&quot;elbow&quot;:&quot;vertical&quot;,&quot;curved&quot;:0,&quot;rounded&quot;:0};" vertex="1" parent="vA3sisHmmeUZaoT9jqeU-23">
          <mxGeometry x="75" y="560" width="10" height="1440" as="geometry" />
        </mxCell>
        <mxCell id="vA3sisHmmeUZaoT9jqeU-25" value="Aplikacija brskalnika" style="shape=umlLifeline;perimeter=lifelinePerimeter;whiteSpace=wrap;html=1;container=1;collapsible=0;recursiveResize=0;outlineConnect=0;rounded=1;shadow=0;comic=0;labelBackgroundColor=none;strokeWidth=1;fontFamily=Verdana;fontSize=12;align=center;" vertex="1" parent="1">
          <mxGeometry x="-160" y="480" width="108.57000000000001" height="1800" as="geometry" />
        </mxCell>
        <mxCell id="vA3sisHmmeUZaoT9jqeU-26" value="Shema predpostavlja, da se je inicializacija že zgodila" style="shape=note;whiteSpace=wrap;html=1;size=14;verticalAlign=top;align=left;spacingTop=-6;rounded=0;shadow=0;comic=0;labelBackgroundColor=none;strokeWidth=1;fontFamily=Verdana;fontSize=12" vertex="1" parent="vA3sisHmmeUZaoT9jqeU-25">
          <mxGeometry x="-8.569999999999993" y="70" width="117.14" height="70" as="geometry" />
        </mxCell>
        <mxCell id="vA3sisHmmeUZaoT9jqeU-27" value="Storitev za&lt;br&gt;združevanje podatkov" style="shape=umlLifeline;perimeter=lifelinePerimeter;whiteSpace=wrap;html=1;container=1;dropTarget=0;collapsible=0;recursiveResize=0;outlineConnect=0;portConstraint=eastwest;newEdgeStyle={&quot;edgeStyle&quot;:&quot;elbowEdgeStyle&quot;,&quot;elbow&quot;:&quot;vertical&quot;,&quot;curved&quot;:0,&quot;rounded&quot;:0};" vertex="1" parent="1">
          <mxGeometry x="350" y="480" width="100" height="3010" as="geometry" />
        </mxCell>
        <mxCell id="vA3sisHmmeUZaoT9jqeU-28" value="" style="html=1;points=[];perimeter=orthogonalPerimeter;outlineConnect=0;targetShapes=umlLifeline;portConstraint=eastwest;newEdgeStyle={&quot;edgeStyle&quot;:&quot;elbowEdgeStyle&quot;,&quot;elbow&quot;:&quot;vertical&quot;,&quot;curved&quot;:0,&quot;rounded&quot;:0};" vertex="1" parent="vA3sisHmmeUZaoT9jqeU-27">
          <mxGeometry x="45" y="900" width="10" height="80" as="geometry" />
        </mxCell>
        <mxCell id="vA3sisHmmeUZaoT9jqeU-29" value="" style="html=1;points=[];perimeter=orthogonalPerimeter;outlineConnect=0;targetShapes=umlLifeline;portConstraint=eastwest;newEdgeStyle={&quot;edgeStyle&quot;:&quot;elbowEdgeStyle&quot;,&quot;elbow&quot;:&quot;vertical&quot;,&quot;curved&quot;:0,&quot;rounded&quot;:0};" vertex="1" parent="vA3sisHmmeUZaoT9jqeU-27">
          <mxGeometry x="45" y="990" width="10" height="80" as="geometry" />
        </mxCell>
        <mxCell id="vA3sisHmmeUZaoT9jqeU-30" value="Začni proces sinhornizacije" style="html=1;verticalAlign=bottom;endArrow=block;edgeStyle=elbowEdgeStyle;elbow=vertical;curved=0;rounded=0;" edge="1" parent="1" source="vA3sisHmmeUZaoT9jqeU-17" target="vA3sisHmmeUZaoT9jqeU-13">
          <mxGeometry relative="1" as="geometry">
            <mxPoint x="425" y="760" as="sourcePoint" />
            <Array as="points">
              <mxPoint x="550" y="760" />
            </Array>
          </mxGeometry>
        </mxCell>
        <mxCell id="vA3sisHmmeUZaoT9jqeU-31" value="Poišči vse objekte v stanju &quot;pending_sync&quot;" style="html=1;verticalAlign=bottom;endArrow=block;edgeStyle=elbowEdgeStyle;elbow=vertical;curved=0;rounded=0;" edge="1" parent="1" source="vA3sisHmmeUZaoT9jqeU-13" target="vA3sisHmmeUZaoT9jqeU-2">
          <mxGeometry relative="1" as="geometry">
            <mxPoint x="575" y="860" as="sourcePoint" />
            <Array as="points">
              <mxPoint x="710" y="870" />
            </Array>
          </mxGeometry>
        </mxCell>
        <mxCell id="vA3sisHmmeUZaoT9jqeU-32" value="Vrni tabelo vseh ustreznih objektov" style="html=1;verticalAlign=bottom;endArrow=open;dashed=1;endSize=8;edgeStyle=elbowEdgeStyle;elbow=vertical;curved=0;rounded=0;" edge="1" parent="1" source="vA3sisHmmeUZaoT9jqeU-2" target="vA3sisHmmeUZaoT9jqeU-13">
          <mxGeometry relative="1" as="geometry">
            <mxPoint x="575" y="935" as="targetPoint" />
          </mxGeometry>
        </mxCell>
        <mxCell id="vA3sisHmmeUZaoT9jqeU-33" value="Za vsako entiteto pošljemo zahtevo za sinhronizacijo podatkov na zaledni sistem&lt;br&gt;(api/refactored/sync-merging/{entity_name})" style="html=1;verticalAlign=bottom;endArrow=block;edgeStyle=elbowEdgeStyle;elbow=vertical;curved=0;rounded=0;" edge="1" parent="1" source="vA3sisHmmeUZaoT9jqeU-13" target="vA3sisHmmeUZaoT9jqeU-24">
          <mxGeometry relative="1" as="geometry">
            <mxPoint x="1435" y="1040" as="sourcePoint" />
            <mxPoint x="1420" y="1050" as="targetPoint" />
            <Array as="points">
              <mxPoint x="1230" y="1050" />
            </Array>
          </mxGeometry>
        </mxCell>
        <mxCell id="vA3sisHmmeUZaoT9jqeU-34" value="Storitev za konfiguracijo" style="shape=umlLifeline;perimeter=lifelinePerimeter;whiteSpace=wrap;html=1;container=1;dropTarget=0;collapsible=0;recursiveResize=0;outlineConnect=0;portConstraint=eastwest;newEdgeStyle={&quot;edgeStyle&quot;:&quot;elbowEdgeStyle&quot;,&quot;elbow&quot;:&quot;vertical&quot;,&quot;curved&quot;:0,&quot;rounded&quot;:0};" vertex="1" parent="1">
          <mxGeometry x="2068" y="490" width="100" height="2040" as="geometry" />
        </mxCell>
        <mxCell id="vA3sisHmmeUZaoT9jqeU-35" value="" style="html=1;points=[];perimeter=orthogonalPerimeter;outlineConnect=0;targetShapes=umlLifeline;portConstraint=eastwest;newEdgeStyle={&quot;edgeStyle&quot;:&quot;elbowEdgeStyle&quot;,&quot;elbow&quot;:&quot;vertical&quot;,&quot;curved&quot;:0,&quot;rounded&quot;:0};" vertex="1" parent="vA3sisHmmeUZaoT9jqeU-34">
          <mxGeometry x="45" y="1480" width="10" height="130" as="geometry" />
        </mxCell>
        <mxCell id="vA3sisHmmeUZaoT9jqeU-36" value="Storitev za združevanje podatkov" style="shape=umlLifeline;perimeter=lifelinePerimeter;whiteSpace=wrap;html=1;container=1;dropTarget=0;collapsible=0;recursiveResize=0;outlineConnect=0;portConstraint=eastwest;newEdgeStyle={&quot;edgeStyle&quot;:&quot;elbowEdgeStyle&quot;,&quot;elbow&quot;:&quot;vertical&quot;,&quot;curved&quot;:0,&quot;rounded&quot;:0};" vertex="1" parent="1">
          <mxGeometry x="1860" y="490" width="100" height="2110" as="geometry" />
        </mxCell>
        <mxCell id="vA3sisHmmeUZaoT9jqeU-37" value="" style="html=1;points=[];perimeter=orthogonalPerimeter;outlineConnect=0;targetShapes=umlLifeline;portConstraint=eastwest;newEdgeStyle={&quot;edgeStyle&quot;:&quot;elbowEdgeStyle&quot;,&quot;elbow&quot;:&quot;vertical&quot;,&quot;curved&quot;:0,&quot;rounded&quot;:0};" vertex="1" parent="vA3sisHmmeUZaoT9jqeU-36">
          <mxGeometry x="45" y="1300" width="10" height="530" as="geometry" />
        </mxCell>
        <mxCell id="vA3sisHmmeUZaoT9jqeU-38" value="" style="html=1;points=[];perimeter=orthogonalPerimeter;outlineConnect=0;targetShapes=umlLifeline;portConstraint=eastwest;newEdgeStyle={&quot;edgeStyle&quot;:&quot;elbowEdgeStyle&quot;,&quot;elbow&quot;:&quot;vertical&quot;,&quot;curved&quot;:0,&quot;rounded&quot;:0};" vertex="1" parent="vA3sisHmmeUZaoT9jqeU-36">
          <mxGeometry x="50" y="1340" width="10" height="40" as="geometry" />
        </mxCell>
        <mxCell id="vA3sisHmmeUZaoT9jqeU-39" value="Pretvori podatek iz zahteve v tabelo" style="html=1;align=left;spacingLeft=2;endArrow=block;rounded=0;edgeStyle=orthogonalEdgeStyle;curved=0;rounded=0;" edge="1" parent="vA3sisHmmeUZaoT9jqeU-36" target="vA3sisHmmeUZaoT9jqeU-38">
          <mxGeometry relative="1" as="geometry">
            <mxPoint x="55" y="1320" as="sourcePoint" />
            <Array as="points">
              <mxPoint x="85" y="1350" />
            </Array>
          </mxGeometry>
        </mxCell>
        <mxCell id="vA3sisHmmeUZaoT9jqeU-40" value="" style="html=1;points=[];perimeter=orthogonalPerimeter;outlineConnect=0;targetShapes=umlLifeline;portConstraint=eastwest;newEdgeStyle={&quot;edgeStyle&quot;:&quot;elbowEdgeStyle&quot;,&quot;elbow&quot;:&quot;vertical&quot;,&quot;curved&quot;:0,&quot;rounded&quot;:0};" vertex="1" parent="vA3sisHmmeUZaoT9jqeU-36">
          <mxGeometry x="50" y="1420" width="10" height="40" as="geometry" />
        </mxCell>
        <mxCell id="vA3sisHmmeUZaoT9jqeU-41" value="Pretvori predhodnji podatek iz baze v tabelo" style="html=1;align=left;spacingLeft=2;endArrow=block;rounded=0;edgeStyle=orthogonalEdgeStyle;curved=0;rounded=0;" edge="1" parent="vA3sisHmmeUZaoT9jqeU-36" target="vA3sisHmmeUZaoT9jqeU-40">
          <mxGeometry x="0.0117" relative="1" as="geometry">
            <mxPoint x="55" y="1400" as="sourcePoint" />
            <Array as="points">
              <mxPoint x="85" y="1430" />
            </Array>
            <mxPoint as="offset" />
          </mxGeometry>
        </mxCell>
        <mxCell id="vA3sisHmmeUZaoT9jqeU-42" value="" style="html=1;points=[];perimeter=orthogonalPerimeter;outlineConnect=0;targetShapes=umlLifeline;portConstraint=eastwest;newEdgeStyle={&quot;edgeStyle&quot;:&quot;elbowEdgeStyle&quot;,&quot;elbow&quot;:&quot;vertical&quot;,&quot;curved&quot;:0,&quot;rounded&quot;:0};" vertex="1" parent="vA3sisHmmeUZaoT9jqeU-36">
          <mxGeometry x="50" y="1630" width="10" height="40" as="geometry" />
        </mxCell>
        <mxCell id="vA3sisHmmeUZaoT9jqeU-43" value="Združimo podatke na podlagi pravil" style="html=1;align=left;spacingLeft=2;endArrow=block;rounded=0;edgeStyle=orthogonalEdgeStyle;curved=0;rounded=0;" edge="1" parent="vA3sisHmmeUZaoT9jqeU-36" target="vA3sisHmmeUZaoT9jqeU-42">
          <mxGeometry relative="1" as="geometry">
            <mxPoint x="55" y="1610" as="sourcePoint" />
            <Array as="points">
              <mxPoint x="85" y="1640" />
            </Array>
          </mxGeometry>
        </mxCell>
        <mxCell id="vA3sisHmmeUZaoT9jqeU-44" value="Storitev za manipulacijo z entiteto" style="shape=umlLifeline;perimeter=lifelinePerimeter;whiteSpace=wrap;html=1;container=1;dropTarget=0;collapsible=0;recursiveResize=0;outlineConnect=0;portConstraint=eastwest;newEdgeStyle={&quot;edgeStyle&quot;:&quot;elbowEdgeStyle&quot;,&quot;elbow&quot;:&quot;vertical&quot;,&quot;curved&quot;:0,&quot;rounded&quot;:0};" vertex="1" parent="1">
          <mxGeometry x="1670" y="490" width="100" height="1480" as="geometry" />
        </mxCell>
        <mxCell id="vA3sisHmmeUZaoT9jqeU-45" value="" style="html=1;points=[];perimeter=orthogonalPerimeter;outlineConnect=0;targetShapes=umlLifeline;portConstraint=eastwest;newEdgeStyle={&quot;edgeStyle&quot;:&quot;elbowEdgeStyle&quot;,&quot;elbow&quot;:&quot;vertical&quot;,&quot;curved&quot;:0,&quot;rounded&quot;:0};" vertex="1" parent="vA3sisHmmeUZaoT9jqeU-44">
          <mxGeometry x="45" y="560" width="10" height="410" as="geometry" />
        </mxCell>
        <mxCell id="vA3sisHmmeUZaoT9jqeU-46" value="Podatkovna baza zalednega sistema" style="shape=umlLifeline;perimeter=lifelinePerimeter;whiteSpace=wrap;html=1;container=1;dropTarget=0;collapsible=0;recursiveResize=0;outlineConnect=0;portConstraint=eastwest;newEdgeStyle={&quot;edgeStyle&quot;:&quot;elbowEdgeStyle&quot;,&quot;elbow&quot;:&quot;vertical&quot;,&quot;curved&quot;:0,&quot;rounded&quot;:0};" vertex="1" parent="1">
          <mxGeometry x="2270" y="490" width="100" height="2080" as="geometry" />
        </mxCell>
        <mxCell id="vA3sisHmmeUZaoT9jqeU-47" value="" style="html=1;points=[];perimeter=orthogonalPerimeter;outlineConnect=0;targetShapes=umlLifeline;portConstraint=eastwest;newEdgeStyle={&quot;edgeStyle&quot;:&quot;elbowEdgeStyle&quot;,&quot;elbow&quot;:&quot;vertical&quot;,&quot;curved&quot;:0,&quot;rounded&quot;:0};" vertex="1" parent="vA3sisHmmeUZaoT9jqeU-46">
          <mxGeometry x="45" y="980" width="10" height="380" as="geometry" />
        </mxCell>
        <mxCell id="vA3sisHmmeUZaoT9jqeU-48" value="Alternativni izzidi" style="swimlane;childLayout=stackLayout;resizeParent=1;resizeParentMax=0;horizontal=1;startSize=20;horizontalStack=0;html=1;" vertex="1" parent="1">
          <mxGeometry x="1030" y="1150" width="660" height="280" as="geometry" />
        </mxCell>
        <mxCell id="vA3sisHmmeUZaoT9jqeU-49" value="Entiteta ne obstaja" style="swimlane;startSize=20;horizontal=0;html=1;" vertex="1" parent="vA3sisHmmeUZaoT9jqeU-48">
          <mxGeometry y="20" width="660" height="130" as="geometry" />
        </mxCell>
        <mxCell id="vA3sisHmmeUZaoT9jqeU-50" value="Entiteta obstaja" style="swimlane;startSize=20;horizontal=0;html=1;" vertex="1" parent="vA3sisHmmeUZaoT9jqeU-48">
          <mxGeometry y="150" width="660" height="130" as="geometry" />
        </mxCell>
        <mxCell id="vA3sisHmmeUZaoT9jqeU-51" style="edgeStyle=elbowEdgeStyle;rounded=0;orthogonalLoop=1;jettySize=auto;html=1;elbow=vertical;curved=0;entryX=-0.1;entryY=0.033;entryDx=0;entryDy=0;entryPerimeter=0;" edge="1" parent="1" source="vA3sisHmmeUZaoT9jqeU-24" target="vA3sisHmmeUZaoT9jqeU-45">
          <mxGeometry relative="1" as="geometry">
            <mxPoint x="1670" y="1060" as="targetPoint" />
          </mxGeometry>
        </mxCell>
        <mxCell id="vA3sisHmmeUZaoT9jqeU-52" value="Poišči PHP entiteto&lt;br&gt;preko posredovanega &lt;br&gt;imena v zahtevi" style="edgeLabel;html=1;align=center;verticalAlign=middle;resizable=0;points=[];" vertex="1" connectable="0" parent="vA3sisHmmeUZaoT9jqeU-51">
          <mxGeometry x="-0.162" y="1" relative="1" as="geometry">
            <mxPoint as="offset" />
          </mxGeometry>
        </mxCell>
        <mxCell id="vA3sisHmmeUZaoT9jqeU-53" value="Entiteta ne obstaja" style="html=1;verticalAlign=bottom;endArrow=open;dashed=1;endSize=8;edgeStyle=elbowEdgeStyle;elbow=vertical;curved=0;rounded=0;entryX=1.2;entryY=0.186;entryDx=0;entryDy=0;entryPerimeter=0;" edge="1" parent="1" source="vA3sisHmmeUZaoT9jqeU-45" target="vA3sisHmmeUZaoT9jqeU-24">
          <mxGeometry relative="1" as="geometry">
            <mxPoint x="1660" y="1170" as="sourcePoint" />
            <mxPoint x="1580" y="1170" as="targetPoint" />
          </mxGeometry>
        </mxCell>
        <mxCell id="vA3sisHmmeUZaoT9jqeU-54" value="Vrni odgovor, ki vključuje opis napake (ENTITY_DOES_NOT_EXIST)" style="html=1;verticalAlign=bottom;endArrow=open;dashed=1;endSize=8;edgeStyle=elbowEdgeStyle;elbow=vertical;curved=0;rounded=0;" edge="1" parent="1" source="vA3sisHmmeUZaoT9jqeU-24" target="vA3sisHmmeUZaoT9jqeU-13">
          <mxGeometry relative="1" as="geometry">
            <mxPoint x="1450" y="1169" as="sourcePoint" />
            <mxPoint x="960" y="1220" as="targetPoint" />
            <Array as="points">
              <mxPoint x="1130" y="1220" />
            </Array>
          </mxGeometry>
        </mxCell>
        <mxCell id="vA3sisHmmeUZaoT9jqeU-55" value="Entiteta obstaja&amp;nbsp;" style="html=1;verticalAlign=bottom;endArrow=open;dashed=1;endSize=8;edgeStyle=elbowEdgeStyle;elbow=vertical;curved=0;rounded=0;" edge="1" parent="1" source="vA3sisHmmeUZaoT9jqeU-45">
          <mxGeometry x="0.0041" relative="1" as="geometry">
            <mxPoint x="1670" y="1330" as="sourcePoint" />
            <mxPoint x="1516" y="1380" as="targetPoint" />
            <mxPoint as="offset" />
          </mxGeometry>
        </mxCell>
        <mxCell id="vA3sisHmmeUZaoT9jqeU-56" style="edgeStyle=elbowEdgeStyle;rounded=0;orthogonalLoop=1;jettySize=auto;html=1;elbow=vertical;curved=0;entryX=0.026;entryY=0.084;entryDx=0;entryDy=0;entryPerimeter=0;" edge="1" parent="1" source="vA3sisHmmeUZaoT9jqeU-24" target="vA3sisHmmeUZaoT9jqeU-47">
          <mxGeometry relative="1" as="geometry" />
        </mxCell>
        <mxCell id="vA3sisHmmeUZaoT9jqeU-57" value="Poišči obstoječi objekt v podatkovni bazi - na podlagi objekta iz zahteve" style="edgeLabel;html=1;align=center;verticalAlign=middle;resizable=0;points=[];" vertex="1" connectable="0" parent="vA3sisHmmeUZaoT9jqeU-56">
          <mxGeometry x="0.1307" relative="1" as="geometry">
            <mxPoint as="offset" />
          </mxGeometry>
        </mxCell>
        <mxCell id="vA3sisHmmeUZaoT9jqeU-58" value="Vrne prazen podatek" style="html=1;verticalAlign=bottom;endArrow=open;dashed=1;endSize=8;edgeStyle=elbowEdgeStyle;elbow=vertical;curved=0;rounded=0;entryX=1.1;entryY=0.365;entryDx=0;entryDy=0;entryPerimeter=0;" edge="1" parent="1" source="vA3sisHmmeUZaoT9jqeU-47" target="vA3sisHmmeUZaoT9jqeU-24">
          <mxGeometry relative="1" as="geometry">
            <mxPoint x="2040" y="1520" as="sourcePoint" />
            <mxPoint x="1960" y="1520" as="targetPoint" />
          </mxGeometry>
        </mxCell>
        <mxCell id="vA3sisHmmeUZaoT9jqeU-59" value="Alternativni izzidi" style="swimlane;childLayout=stackLayout;resizeParent=1;resizeParentMax=0;horizontal=1;startSize=20;horizontalStack=0;html=1;" vertex="1" parent="1">
          <mxGeometry x="1180" y="1520" width="540" height="760" as="geometry" />
        </mxCell>
        <mxCell id="vA3sisHmmeUZaoT9jqeU-60" value="Baza nima &lt;br&gt;predhodnega podatka za objekt" style="swimlane;startSize=40;horizontal=0;html=1;" vertex="1" parent="vA3sisHmmeUZaoT9jqeU-59">
          <mxGeometry y="20" width="540" height="190" as="geometry" />
        </mxCell>
        <mxCell id="vA3sisHmmeUZaoT9jqeU-61" value="Baza ima predhodni podatek" style="swimlane;startSize=20;horizontal=0;html=1;" vertex="1" parent="vA3sisHmmeUZaoT9jqeU-59">
          <mxGeometry y="210" width="540" height="550" as="geometry" />
        </mxCell>
        <mxCell id="vA3sisHmmeUZaoT9jqeU-62" value="Shrani objekt iz zahteve v podatkovno bazo" style="html=1;verticalAlign=bottom;endArrow=block;edgeStyle=elbowEdgeStyle;elbow=vertical;curved=0;rounded=0;" edge="1" parent="1" target="vA3sisHmmeUZaoT9jqeU-47">
          <mxGeometry width="80" relative="1" as="geometry">
            <mxPoint x="1517" y="1590" as="sourcePoint" />
            <mxPoint x="2220" y="1623" as="targetPoint" />
            <Array as="points">
              <mxPoint x="1517" y="1590" />
            </Array>
          </mxGeometry>
        </mxCell>
        <mxCell id="vA3sisHmmeUZaoT9jqeU-63" value="Podatek uspešno shranjen" style="html=1;verticalAlign=bottom;endArrow=open;dashed=1;endSize=8;edgeStyle=elbowEdgeStyle;elbow=vertical;curved=0;rounded=0;" edge="1" parent="1" source="vA3sisHmmeUZaoT9jqeU-47" target="vA3sisHmmeUZaoT9jqeU-24">
          <mxGeometry relative="1" as="geometry">
            <mxPoint x="1960" y="1680" as="sourcePoint" />
            <mxPoint x="1880" y="1680" as="targetPoint" />
          </mxGeometry>
        </mxCell>
        <mxCell id="vA3sisHmmeUZaoT9jqeU-64" value="Vrni (uspešen) odgovor, ki vključuje shranjeni podatek" style="html=1;verticalAlign=bottom;endArrow=open;dashed=1;endSize=8;edgeStyle=elbowEdgeStyle;elbow=vertical;curved=0;rounded=0;entryX=1.167;entryY=0.394;entryDx=0;entryDy=0;entryPerimeter=0;" edge="1" parent="1" source="vA3sisHmmeUZaoT9jqeU-24" target="vA3sisHmmeUZaoT9jqeU-13">
          <mxGeometry relative="1" as="geometry">
            <mxPoint x="1320" y="1680" as="sourcePoint" />
            <mxPoint x="1030" y="1660" as="targetPoint" />
          </mxGeometry>
        </mxCell>
        <mxCell id="vA3sisHmmeUZaoT9jqeU-65" value="" style="endArrow=none;dashed=1;html=1;rounded=0;strokeWidth=4;" edge="1" parent="1">
          <mxGeometry width="50" height="50" relative="1" as="geometry">
            <mxPoint x="1360" y="970" as="sourcePoint" />
            <mxPoint x="1360" y="280" as="targetPoint" />
          </mxGeometry>
        </mxCell>
        <mxCell id="vA3sisHmmeUZaoT9jqeU-66" value="Grafična ponazoritev &quot;ločnice&quot; med brskalnikom in zalednim sistemom" style="shape=note;size=20;whiteSpace=wrap;html=1;" vertex="1" parent="1">
          <mxGeometry x="1310" y="160" width="100" height="100" as="geometry" />
        </mxCell>
        <mxCell id="vA3sisHmmeUZaoT9jqeU-67" value="Dobimo predhodnji podatek iz baze" style="html=1;verticalAlign=bottom;endArrow=open;dashed=1;endSize=8;edgeStyle=elbowEdgeStyle;elbow=vertical;curved=0;rounded=0;" edge="1" parent="1" source="vA3sisHmmeUZaoT9jqeU-47">
          <mxGeometry relative="1" as="geometry">
            <mxPoint x="1850" y="1760.46" as="sourcePoint" />
            <mxPoint x="1517" y="1770" as="targetPoint" />
            <Array as="points">
              <mxPoint x="1690" y="1770" />
            </Array>
          </mxGeometry>
        </mxCell>
        <mxCell id="vA3sisHmmeUZaoT9jqeU-68" value="Poišči razlike in združi podatek iz zahteve in predhodnji podatek" style="html=1;verticalAlign=bottom;endArrow=block;edgeStyle=elbowEdgeStyle;elbow=vertical;curved=0;rounded=0;" edge="1" parent="1" source="vA3sisHmmeUZaoT9jqeU-24" target="vA3sisHmmeUZaoT9jqeU-37">
          <mxGeometry width="80" relative="1" as="geometry">
            <mxPoint x="1530" y="1800" as="sourcePoint" />
            <mxPoint x="1610" y="1800" as="targetPoint" />
            <Array as="points">
              <mxPoint x="1810" y="1797" />
            </Array>
          </mxGeometry>
        </mxCell>
        <mxCell id="vA3sisHmmeUZaoT9jqeU-69" value="Poišči pravila za &lt;br&gt;združevanje za&lt;br&gt;&amp;nbsp;identificirano entiteto" style="edgeStyle=elbowEdgeStyle;rounded=0;orthogonalLoop=1;jettySize=auto;html=1;elbow=horizontal;curved=0;" edge="1" parent="1" source="vA3sisHmmeUZaoT9jqeU-37" target="vA3sisHmmeUZaoT9jqeU-35">
          <mxGeometry relative="1" as="geometry">
            <Array as="points">
              <mxPoint x="2020" y="1980" />
            </Array>
          </mxGeometry>
        </mxCell>
        <mxCell id="vA3sisHmmeUZaoT9jqeU-70" value="Dobimo pravila za&amp;nbsp;&lt;br style=&quot;border-color: var(--border-color);&quot;&gt;združevnje polj entitete" style="html=1;verticalAlign=bottom;endArrow=open;dashed=1;endSize=8;edgeStyle=elbowEdgeStyle;elbow=vertical;curved=0;rounded=0;" edge="1" parent="1" source="vA3sisHmmeUZaoT9jqeU-35" target="vA3sisHmmeUZaoT9jqeU-37">
          <mxGeometry relative="1" as="geometry">
            <mxPoint x="2100" y="2070" as="sourcePoint" />
            <mxPoint x="2020" y="2070" as="targetPoint" />
          </mxGeometry>
        </mxCell>
        <mxCell id="vA3sisHmmeUZaoT9jqeU-71" value="Vrnemo združene podatke" style="html=1;verticalAlign=bottom;endArrow=open;dashed=1;endSize=8;edgeStyle=elbowEdgeStyle;elbow=vertical;curved=0;rounded=0;" edge="1" parent="1" source="vA3sisHmmeUZaoT9jqeU-37" target="vA3sisHmmeUZaoT9jqeU-24">
          <mxGeometry x="0.0007" relative="1" as="geometry">
            <mxPoint x="1860" y="2200" as="sourcePoint" />
            <mxPoint x="1780" y="2200" as="targetPoint" />
            <Array as="points">
              <mxPoint x="1710" y="2200" />
            </Array>
            <mxPoint as="offset" />
          </mxGeometry>
        </mxCell>
        <mxCell id="vA3sisHmmeUZaoT9jqeU-72" value="Vrnemo odgovor ki vsebuje združene podatke" style="html=1;verticalAlign=bottom;endArrow=open;dashed=1;endSize=8;edgeStyle=elbowEdgeStyle;elbow=vertical;curved=0;rounded=0;entryX=1.1;entryY=0.682;entryDx=0;entryDy=0;entryPerimeter=0;" edge="1" parent="1" source="vA3sisHmmeUZaoT9jqeU-24" target="vA3sisHmmeUZaoT9jqeU-13">
          <mxGeometry relative="1" as="geometry">
            <mxPoint x="1370" y="2200" as="sourcePoint" />
            <mxPoint x="1290" y="2200" as="targetPoint" />
          </mxGeometry>
        </mxCell>
        <mxCell id="vA3sisHmmeUZaoT9jqeU-73" value="Alternativni izzidi" style="swimlane;childLayout=stackLayout;resizeParent=1;resizeParentMax=0;horizontal=1;startSize=20;horizontalStack=0;html=1;" vertex="1" parent="1">
          <mxGeometry x="690" y="2440" width="390" height="660" as="geometry" />
        </mxCell>
        <mxCell id="vA3sisHmmeUZaoT9jqeU-74" value="Uspešno &lt;br&gt;združeni podatki" style="swimlane;startSize=50;horizontal=0;html=1;" vertex="1" parent="vA3sisHmmeUZaoT9jqeU-73">
          <mxGeometry y="20" width="390" height="230" as="geometry" />
        </mxCell>
        <mxCell id="vA3sisHmmeUZaoT9jqeU-75" value="Izvedemo isto logiko" style="html=1;align=left;spacingLeft=2;endArrow=block;rounded=0;edgeStyle=orthogonalEdgeStyle;curved=0;rounded=0;" edge="1" parent="vA3sisHmmeUZaoT9jqeU-74">
          <mxGeometry relative="1" as="geometry">
            <mxPoint x="305" y="60" as="sourcePoint" />
            <Array as="points">
              <mxPoint x="335" y="90" />
            </Array>
            <mxPoint x="240" y="-1220" as="targetPoint" />
          </mxGeometry>
        </mxCell>
        <mxCell id="vA3sisHmmeUZaoT9jqeU-76" value="Prišlo je do konflikta" style="swimlane;startSize=20;horizontal=0;html=1;" vertex="1" parent="vA3sisHmmeUZaoT9jqeU-73">
          <mxGeometry y="250" width="390" height="410" as="geometry" />
        </mxCell>
        <mxCell id="vA3sisHmmeUZaoT9jqeU-77" value="Preveri ali vmes&lt;br&gt;prišlo do&lt;br&gt;novih podatkov" style="html=1;verticalAlign=bottom;endArrow=block;edgeStyle=elbowEdgeStyle;elbow=horizontal;curved=0;rounded=0;" edge="1" parent="1" source="vA3sisHmmeUZaoT9jqeU-13" target="vA3sisHmmeUZaoT9jqeU-11">
          <mxGeometry x="-0.0044" width="80" relative="1" as="geometry">
            <mxPoint x="890" y="1280" as="sourcePoint" />
            <mxPoint x="910" y="1242" as="targetPoint" />
            <Array as="points">
              <mxPoint x="930" y="1242" />
            </Array>
            <mxPoint as="offset" />
          </mxGeometry>
        </mxCell>
        <mxCell id="vA3sisHmmeUZaoT9jqeU-78" value="Vrne nove &lt;br&gt;podatke ali &lt;br&gt;prazen podatek" style="html=1;verticalAlign=bottom;endArrow=open;dashed=1;endSize=8;edgeStyle=elbowEdgeStyle;elbow=vertical;curved=0;rounded=0;entryX=-0.033;entryY=0.235;entryDx=0;entryDy=0;entryPerimeter=0;" edge="1" parent="1" source="vA3sisHmmeUZaoT9jqeU-11" target="vA3sisHmmeUZaoT9jqeU-13">
          <mxGeometry relative="1" as="geometry">
            <mxPoint x="870" y="1330" as="sourcePoint" />
            <mxPoint x="950" y="1319" as="targetPoint" />
          </mxGeometry>
        </mxCell>
        <mxCell id="vA3sisHmmeUZaoT9jqeU-79" value="Če imamo nove podatke izračunaj razlike" style="html=1;verticalAlign=bottom;endArrow=block;edgeStyle=elbowEdgeStyle;elbow=vertical;curved=0;rounded=0;" edge="1" parent="1" source="vA3sisHmmeUZaoT9jqeU-13" target="vA3sisHmmeUZaoT9jqeU-28">
          <mxGeometry x="-0.0142" relative="1" as="geometry">
            <mxPoint x="475" y="1380" as="sourcePoint" />
            <Array as="points">
              <mxPoint x="540" y="1380" />
            </Array>
            <mxPoint as="offset" />
          </mxGeometry>
        </mxCell>
        <mxCell id="vA3sisHmmeUZaoT9jqeU-80" value="Vrne razlike med objektom v začasni bazi in objektu iz odgovora zahteve" style="html=1;verticalAlign=bottom;endArrow=open;dashed=1;endSize=8;edgeStyle=elbowEdgeStyle;elbow=vertical;curved=0;rounded=0;" edge="1" parent="1" source="vA3sisHmmeUZaoT9jqeU-28" target="vA3sisHmmeUZaoT9jqeU-13">
          <mxGeometry relative="1" as="geometry">
            <mxPoint x="475" y="1455" as="targetPoint" />
          </mxGeometry>
        </mxCell>
        <mxCell id="vA3sisHmmeUZaoT9jqeU-81" value="Če imamo nov podatek združi podatke in nastavi status &quot;pending_sync&quot;" style="html=1;verticalAlign=bottom;endArrow=block;edgeStyle=elbowEdgeStyle;elbow=vertical;curved=0;rounded=0;exitX=-0.167;exitY=0.298;exitDx=0;exitDy=0;exitPerimeter=0;" edge="1" parent="1" source="vA3sisHmmeUZaoT9jqeU-13" target="vA3sisHmmeUZaoT9jqeU-29">
          <mxGeometry relative="1" as="geometry">
            <mxPoint x="475" y="1470" as="sourcePoint" />
          </mxGeometry>
        </mxCell>
        <mxCell id="vA3sisHmmeUZaoT9jqeU-82" value="Vrne združene podatke z novim + spremenjen status" style="html=1;verticalAlign=bottom;endArrow=open;dashed=1;endSize=8;edgeStyle=elbowEdgeStyle;elbow=vertical;curved=0;rounded=0;entryX=0.1;entryY=0.329;entryDx=0;entryDy=0;entryPerimeter=0;" edge="1" parent="1" source="vA3sisHmmeUZaoT9jqeU-29" target="vA3sisHmmeUZaoT9jqeU-13">
          <mxGeometry relative="1" as="geometry">
            <mxPoint x="475" y="1545" as="targetPoint" />
          </mxGeometry>
        </mxCell>
        <mxCell id="vA3sisHmmeUZaoT9jqeU-83" value="Shrani nov (združen) objekt" style="html=1;verticalAlign=bottom;endArrow=block;edgeStyle=elbowEdgeStyle;elbow=vertical;curved=0;rounded=0;exitX=-0.033;exitY=0.337;exitDx=0;exitDy=0;exitPerimeter=0;" edge="1" parent="1" source="vA3sisHmmeUZaoT9jqeU-13" target="vA3sisHmmeUZaoT9jqeU-3">
          <mxGeometry relative="1" as="geometry">
            <mxPoint x="585" y="1560" as="sourcePoint" />
          </mxGeometry>
        </mxCell>
        <mxCell id="vA3sisHmmeUZaoT9jqeU-84" value="Uspešno shranjen objekt" style="html=1;verticalAlign=bottom;endArrow=open;dashed=1;endSize=8;edgeStyle=elbowEdgeStyle;elbow=vertical;curved=0;rounded=0;entryX=-0.033;entryY=0.352;entryDx=0;entryDy=0;entryPerimeter=0;" edge="1" parent="1" source="vA3sisHmmeUZaoT9jqeU-3" target="vA3sisHmmeUZaoT9jqeU-13">
          <mxGeometry relative="1" as="geometry">
            <mxPoint x="585" y="1635" as="targetPoint" />
          </mxGeometry>
        </mxCell>
        <mxCell id="vA3sisHmmeUZaoT9jqeU-85" value="Uspešno zbrisan podatek" style="html=1;verticalAlign=bottom;endArrow=open;dashed=1;endSize=8;edgeStyle=elbowEdgeStyle;elbow=vertical;curved=0;rounded=0;entryX=-0.3;entryY=0.374;entryDx=0;entryDy=0;entryPerimeter=0;" edge="1" parent="1" source="vA3sisHmmeUZaoT9jqeU-8" target="vA3sisHmmeUZaoT9jqeU-13">
          <mxGeometry relative="1" as="geometry">
            <mxPoint x="835" y="1695" as="targetPoint" />
          </mxGeometry>
        </mxCell>
        <mxCell id="vA3sisHmmeUZaoT9jqeU-86" value="Shranimo konflikte v bazo za konflikte" style="html=1;verticalAlign=bottom;endArrow=block;edgeStyle=elbowEdgeStyle;elbow=vertical;curved=0;rounded=0;exitX=0.017;exitY=0.826;exitDx=0;exitDy=0;exitPerimeter=0;" edge="1" parent="1" source="vA3sisHmmeUZaoT9jqeU-13" target="vA3sisHmmeUZaoT9jqeU-6">
          <mxGeometry relative="1" as="geometry">
            <mxPoint x="585" y="2750" as="sourcePoint" />
          </mxGeometry>
        </mxCell>
        <mxCell id="vA3sisHmmeUZaoT9jqeU-87" value="Uspešno shranjen podatek" style="html=1;verticalAlign=bottom;endArrow=open;dashed=1;endSize=8;edgeStyle=elbowEdgeStyle;elbow=vertical;curved=0;rounded=0;" edge="1" parent="1" source="vA3sisHmmeUZaoT9jqeU-6" target="vA3sisHmmeUZaoT9jqeU-13">
          <mxGeometry relative="1" as="geometry">
            <mxPoint x="585" y="2825" as="targetPoint" />
          </mxGeometry>
        </mxCell>
        <mxCell id="vA3sisHmmeUZaoT9jqeU-88" value="Objektu, ki smo ga poslali v zahtevi popravimo status na &quot;conflicted&quot;" style="html=1;verticalAlign=bottom;endArrow=block;edgeStyle=elbowEdgeStyle;elbow=vertical;curved=0;rounded=0;" edge="1" parent="1" source="vA3sisHmmeUZaoT9jqeU-13" target="vA3sisHmmeUZaoT9jqeU-4">
          <mxGeometry relative="1" as="geometry">
            <mxPoint x="970" y="2890" as="sourcePoint" />
          </mxGeometry>
        </mxCell>
        <mxCell id="vA3sisHmmeUZaoT9jqeU-89" value="Uspešno popravljen podatek" style="html=1;verticalAlign=bottom;endArrow=open;dashed=1;endSize=8;edgeStyle=elbowEdgeStyle;elbow=vertical;curved=0;rounded=0;entryX=-0.15;entryY=0.915;entryDx=0;entryDy=0;entryPerimeter=0;" edge="1" parent="1" source="vA3sisHmmeUZaoT9jqeU-4" target="vA3sisHmmeUZaoT9jqeU-13">
          <mxGeometry relative="1" as="geometry">
            <mxPoint x="585" y="2965" as="targetPoint" />
          </mxGeometry>
        </mxCell>
        <mxCell id="vA3sisHmmeUZaoT9jqeU-90" value="Pošljemo obvestilo o konfliktu (CONFLICT)" style="html=1;verticalAlign=bottom;endArrow=block;edgeStyle=elbowEdgeStyle;elbow=vertical;curved=0;rounded=0;" edge="1" parent="1" source="vA3sisHmmeUZaoT9jqeU-13" target="vA3sisHmmeUZaoT9jqeU-20">
          <mxGeometry width="80" relative="1" as="geometry">
            <mxPoint x="540" y="3030" as="sourcePoint" />
            <mxPoint x="620" y="3030" as="targetPoint" />
            <Array as="points">
              <mxPoint x="820" y="3030" />
            </Array>
          </mxGeometry>
        </mxCell>
      </root>
    </mxGraphModel>
  </diagram>
  <diagram name="reševanjeKonfliktov" id="DML8RPRzErQQCZ7crM_-">
    <mxGraphModel dx="2071" dy="707" grid="1" gridSize="10" guides="1" tooltips="1" connect="1" arrows="1" fold="1" page="1" pageScale="1" pageWidth="827" pageHeight="1169" math="0" shadow="0">
      <root>
        <mxCell id="IsXBaeBT_RepAmFhAnBz-0" />
        <mxCell id="IsXBaeBT_RepAmFhAnBz-1" parent="IsXBaeBT_RepAmFhAnBz-0" />
        <mxCell id="IsXBaeBT_RepAmFhAnBz-2" value="Baza sinhronizacijskih podatkov" style="shape=umlLifeline;perimeter=lifelinePerimeter;whiteSpace=wrap;html=1;container=1;collapsible=0;recursiveResize=0;outlineConnect=0;rounded=1;shadow=0;comic=0;labelBackgroundColor=none;strokeWidth=1;fontFamily=Verdana;fontSize=12;align=center;" vertex="1" parent="IsXBaeBT_RepAmFhAnBz-1">
          <mxGeometry x="460" y="480" width="100" height="2970" as="geometry" />
        </mxCell>
        <mxCell id="pbPh78cCbFt60r4yvOK_-28" value="" style="html=1;points=[];perimeter=orthogonalPerimeter;outlineConnect=0;targetShapes=umlLifeline;portConstraint=eastwest;newEdgeStyle={&quot;edgeStyle&quot;:&quot;elbowEdgeStyle&quot;,&quot;elbow&quot;:&quot;vertical&quot;,&quot;curved&quot;:0,&quot;rounded&quot;:0};" vertex="1" parent="IsXBaeBT_RepAmFhAnBz-2">
          <mxGeometry x="45" y="835" width="10" height="40" as="geometry" />
        </mxCell>
        <mxCell id="IsXBaeBT_RepAmFhAnBz-6" value="Baza konfliktih podatkov" style="shape=umlLifeline;perimeter=lifelinePerimeter;whiteSpace=wrap;html=1;container=1;collapsible=0;recursiveResize=0;outlineConnect=0;rounded=1;shadow=0;comic=0;labelBackgroundColor=none;strokeWidth=1;fontFamily=Verdana;fontSize=12;align=center;" vertex="1" parent="IsXBaeBT_RepAmFhAnBz-1">
          <mxGeometry x="580" y="480" width="100" height="2970" as="geometry" />
        </mxCell>
        <mxCell id="pbPh78cCbFt60r4yvOK_-4" value="" style="html=1;points=[];perimeter=orthogonalPerimeter;outlineConnect=0;targetShapes=umlLifeline;portConstraint=eastwest;newEdgeStyle={&quot;edgeStyle&quot;:&quot;elbowEdgeStyle&quot;,&quot;elbow&quot;:&quot;vertical&quot;,&quot;curved&quot;:0,&quot;rounded&quot;:0};" vertex="1" parent="IsXBaeBT_RepAmFhAnBz-6">
          <mxGeometry x="45" y="290" width="10" height="80" as="geometry" />
        </mxCell>
        <mxCell id="pbPh78cCbFt60r4yvOK_-20" value="" style="html=1;points=[];perimeter=orthogonalPerimeter;outlineConnect=0;targetShapes=umlLifeline;portConstraint=eastwest;newEdgeStyle={&quot;edgeStyle&quot;:&quot;elbowEdgeStyle&quot;,&quot;elbow&quot;:&quot;vertical&quot;,&quot;curved&quot;:0,&quot;rounded&quot;:0};" vertex="1" parent="IsXBaeBT_RepAmFhAnBz-6">
          <mxGeometry x="45" y="510" width="10" height="60" as="geometry" />
        </mxCell>
        <mxCell id="pbPh78cCbFt60r4yvOK_-32" value="" style="html=1;points=[];perimeter=orthogonalPerimeter;outlineConnect=0;targetShapes=umlLifeline;portConstraint=eastwest;newEdgeStyle={&quot;edgeStyle&quot;:&quot;elbowEdgeStyle&quot;,&quot;elbow&quot;:&quot;vertical&quot;,&quot;curved&quot;:0,&quot;rounded&quot;:0};" vertex="1" parent="IsXBaeBT_RepAmFhAnBz-6">
          <mxGeometry x="45" y="910" width="10" height="45" as="geometry" />
        </mxCell>
        <mxCell id="pbPh78cCbFt60r4yvOK_-39" value="" style="html=1;points=[];perimeter=orthogonalPerimeter;outlineConnect=0;targetShapes=umlLifeline;portConstraint=eastwest;newEdgeStyle={&quot;edgeStyle&quot;:&quot;elbowEdgeStyle&quot;,&quot;elbow&quot;:&quot;vertical&quot;,&quot;curved&quot;:0,&quot;rounded&quot;:0};" vertex="1" parent="IsXBaeBT_RepAmFhAnBz-6">
          <mxGeometry x="45" y="1194" width="10" height="80" as="geometry" />
        </mxCell>
        <mxCell id="IsXBaeBT_RepAmFhAnBz-17" value="Sinhronizacijska knjižnica" style="shape=umlLifeline;perimeter=lifelinePerimeter;whiteSpace=wrap;html=1;container=1;collapsible=0;recursiveResize=0;outlineConnect=0;rounded=1;shadow=0;comic=0;labelBackgroundColor=none;strokeWidth=1;fontFamily=Verdana;fontSize=12;align=center;" vertex="1" parent="IsXBaeBT_RepAmFhAnBz-1">
          <mxGeometry x="-10" y="480" width="350" height="3090" as="geometry" />
        </mxCell>
        <mxCell id="IsXBaeBT_RepAmFhAnBz-18" value="" style="html=1;points=[];perimeter=orthogonalPerimeter;outlineConnect=0;targetShapes=umlLifeline;portConstraint=eastwest;newEdgeStyle={&quot;edgeStyle&quot;:&quot;elbowEdgeStyle&quot;,&quot;elbow&quot;:&quot;vertical&quot;,&quot;curved&quot;:0,&quot;rounded&quot;:0};" vertex="1" parent="IsXBaeBT_RepAmFhAnBz-17">
          <mxGeometry x="170" y="220" width="10" height="1760" as="geometry" />
        </mxCell>
        <mxCell id="pbPh78cCbFt60r4yvOK_-23" value="Nastavimo lokalno spremembo v konfliktno polje in odstranimo konflikt" style="html=1;align=left;spacingLeft=2;endArrow=block;rounded=0;edgeStyle=orthogonalEdgeStyle;curved=0;rounded=0;" edge="1" target="pbPh78cCbFt60r4yvOK_-22" parent="IsXBaeBT_RepAmFhAnBz-17">
          <mxGeometry relative="1" as="geometry">
            <mxPoint x="180" y="580" as="sourcePoint" />
            <Array as="points">
              <mxPoint x="180" y="600" />
              <mxPoint x="210" y="600" />
              <mxPoint x="210" y="630" />
            </Array>
          </mxGeometry>
        </mxCell>
        <mxCell id="pbPh78cCbFt60r4yvOK_-35" value="" style="html=1;points=[];perimeter=orthogonalPerimeter;outlineConnect=0;targetShapes=umlLifeline;portConstraint=eastwest;newEdgeStyle={&quot;edgeStyle&quot;:&quot;elbowEdgeStyle&quot;,&quot;elbow&quot;:&quot;vertical&quot;,&quot;curved&quot;:0,&quot;rounded&quot;:0};" vertex="1" parent="IsXBaeBT_RepAmFhAnBz-17">
          <mxGeometry x="175" y="1054" width="10" height="40" as="geometry" />
        </mxCell>
        <mxCell id="pbPh78cCbFt60r4yvOK_-36" value="Pošljemo obvestilo, da je bil rešen&lt;br&gt;&amp;nbsp;konflikt in da posodobitve &lt;br&gt;čakajo na sinhronizacijo" style="html=1;align=left;spacingLeft=2;endArrow=block;rounded=0;edgeStyle=orthogonalEdgeStyle;curved=0;rounded=0;zIndex=1000" edge="1" target="pbPh78cCbFt60r4yvOK_-35" parent="IsXBaeBT_RepAmFhAnBz-17">
          <mxGeometry x="-1" y="-181" relative="1" as="geometry">
            <mxPoint x="180" y="1034" as="sourcePoint" />
            <Array as="points">
              <mxPoint x="210" y="1064" />
            </Array>
            <mxPoint x="-180" y="-161" as="offset" />
          </mxGeometry>
        </mxCell>
        <mxCell id="pbPh78cCbFt60r4yvOK_-46" value="Alternativne&lt;br&gt;možnosti" style="swimlane;childLayout=stackLayout;resizeParent=1;resizeParentMax=0;horizontal=1;startSize=30;horizontalStack=0;html=1;" vertex="1" parent="IsXBaeBT_RepAmFhAnBz-17">
          <mxGeometry x="57.56999999999999" y="550" width="170" height="190" as="geometry" />
        </mxCell>
        <mxCell id="pbPh78cCbFt60r4yvOK_-47" value="Uporabimo &lt;br&gt;lokalne&lt;br&gt;spremembe" style="swimlane;startSize=95;horizontal=0;html=1;" vertex="1" parent="pbPh78cCbFt60r4yvOK_-46">
          <mxGeometry y="30" width="170" height="80" as="geometry" />
        </mxCell>
        <mxCell id="pbPh78cCbFt60r4yvOK_-22" value="" style="html=1;points=[];perimeter=orthogonalPerimeter;outlineConnect=0;targetShapes=umlLifeline;portConstraint=eastwest;newEdgeStyle={&quot;edgeStyle&quot;:&quot;elbowEdgeStyle&quot;,&quot;elbow&quot;:&quot;vertical&quot;,&quot;curved&quot;:0,&quot;rounded&quot;:0};" vertex="1" parent="pbPh78cCbFt60r4yvOK_-47">
          <mxGeometry x="117.43" y="30" width="10" height="40" as="geometry" />
        </mxCell>
        <mxCell id="pbPh78cCbFt60r4yvOK_-48" value="Uporabimo &lt;br&gt;spremembe&lt;br&gt;iz &lt;br&gt;zaled. &lt;br&gt;sistema" style="swimlane;startSize=95;horizontal=0;html=1;" vertex="1" parent="pbPh78cCbFt60r4yvOK_-46">
          <mxGeometry y="110" width="170" height="80" as="geometry" />
        </mxCell>
        <mxCell id="pbPh78cCbFt60r4yvOK_-53" value="" style="html=1;points=[];perimeter=orthogonalPerimeter;outlineConnect=0;targetShapes=umlLifeline;portConstraint=eastwest;newEdgeStyle={&quot;edgeStyle&quot;:&quot;elbowEdgeStyle&quot;,&quot;elbow&quot;:&quot;vertical&quot;,&quot;curved&quot;:0,&quot;rounded&quot;:0};" vertex="1" parent="pbPh78cCbFt60r4yvOK_-48">
          <mxGeometry x="117.43" y="20" width="10" height="40" as="geometry" />
        </mxCell>
        <mxCell id="pbPh78cCbFt60r4yvOK_-54" value="Nastavimo spremembo iz zaled. sistema v konfliktno polje in odstranimo konflikt" style="html=1;align=left;spacingLeft=2;endArrow=block;rounded=0;edgeStyle=orthogonalEdgeStyle;curved=0;rounded=0;" edge="1" target="pbPh78cCbFt60r4yvOK_-53" parent="pbPh78cCbFt60r4yvOK_-48">
          <mxGeometry relative="1" as="geometry">
            <mxPoint x="122.43" as="sourcePoint" />
            <Array as="points">
              <mxPoint x="152.43" y="30" />
            </Array>
          </mxGeometry>
        </mxCell>
        <mxCell id="IsXBaeBT_RepAmFhAnBz-22" value="Dostopna tocka do sinhronizacijske knjiznice na brskalniku" style="shape=note;whiteSpace=wrap;html=1;size=14;verticalAlign=top;align=left;spacingTop=-6;rounded=0;shadow=0;comic=0;labelBackgroundColor=none;strokeWidth=1;fontFamily=Verdana;fontSize=12" vertex="1" parent="IsXBaeBT_RepAmFhAnBz-1">
          <mxGeometry x="-10" y="390" width="350" height="80" as="geometry" />
        </mxCell>
        <mxCell id="IsXBaeBT_RepAmFhAnBz-23" value="Operacije z bazo so asinhrone, ampak jih izvajamo tako, da postane logika sinhrona" style="shape=note;whiteSpace=wrap;html=1;size=14;verticalAlign=top;align=left;spacingTop=-6;rounded=0;shadow=0;comic=0;labelBackgroundColor=none;strokeWidth=1;fontFamily=Verdana;fontSize=12" vertex="1" parent="IsXBaeBT_RepAmFhAnBz-1">
          <mxGeometry x="460" y="390" width="220" height="80" as="geometry" />
        </mxCell>
        <mxCell id="IsXBaeBT_RepAmFhAnBz-26" value="Aplikacija brskalnika" style="shape=umlLifeline;perimeter=lifelinePerimeter;whiteSpace=wrap;html=1;container=1;collapsible=0;recursiveResize=0;outlineConnect=0;rounded=1;shadow=0;comic=0;labelBackgroundColor=none;strokeWidth=1;fontFamily=Verdana;fontSize=12;align=center;" vertex="1" parent="IsXBaeBT_RepAmFhAnBz-1">
          <mxGeometry x="-160" y="480" width="108.57000000000001" height="1800" as="geometry" />
        </mxCell>
        <mxCell id="IsXBaeBT_RepAmFhAnBz-27" value="Shema predpostavlja, da se je inicializacija že zgodila" style="shape=note;whiteSpace=wrap;html=1;size=14;verticalAlign=top;align=left;spacingTop=-6;rounded=0;shadow=0;comic=0;labelBackgroundColor=none;strokeWidth=1;fontFamily=Verdana;fontSize=12" vertex="1" parent="IsXBaeBT_RepAmFhAnBz-26">
          <mxGeometry x="-8.569999999999993" y="70" width="117.14" height="70" as="geometry" />
        </mxCell>
        <mxCell id="pbPh78cCbFt60r4yvOK_-17" value="" style="html=1;points=[];perimeter=orthogonalPerimeter;outlineConnect=0;targetShapes=umlLifeline;portConstraint=eastwest;newEdgeStyle={&quot;edgeStyle&quot;:&quot;elbowEdgeStyle&quot;,&quot;elbow&quot;:&quot;vertical&quot;,&quot;curved&quot;:0,&quot;rounded&quot;:0};" vertex="1" parent="IsXBaeBT_RepAmFhAnBz-26">
          <mxGeometry x="49" y="240" width="10" height="80" as="geometry" />
        </mxCell>
        <mxCell id="pbPh78cCbFt60r4yvOK_-18" value="" style="html=1;points=[];perimeter=orthogonalPerimeter;outlineConnect=0;targetShapes=umlLifeline;portConstraint=eastwest;newEdgeStyle={&quot;edgeStyle&quot;:&quot;elbowEdgeStyle&quot;,&quot;elbow&quot;:&quot;vertical&quot;,&quot;curved&quot;:0,&quot;rounded&quot;:0};" vertex="1" parent="IsXBaeBT_RepAmFhAnBz-26">
          <mxGeometry x="49" y="410" width="10" height="970" as="geometry" />
        </mxCell>
        <mxCell id="IsXBaeBT_RepAmFhAnBz-28" value="Storitev za&lt;br&gt;združevanje podatkov" style="shape=umlLifeline;perimeter=lifelinePerimeter;whiteSpace=wrap;html=1;container=1;dropTarget=0;collapsible=0;recursiveResize=0;outlineConnect=0;portConstraint=eastwest;newEdgeStyle={&quot;edgeStyle&quot;:&quot;elbowEdgeStyle&quot;,&quot;elbow&quot;:&quot;vertical&quot;,&quot;curved&quot;:0,&quot;rounded&quot;:0};" vertex="1" parent="IsXBaeBT_RepAmFhAnBz-1">
          <mxGeometry x="350" y="480" width="100" height="3010" as="geometry" />
        </mxCell>
        <mxCell id="pbPh78cCbFt60r4yvOK_-3" value="Zahteva za seznam vseh konfliktov neke entitete" style="html=1;verticalAlign=bottom;endArrow=block;edgeStyle=elbowEdgeStyle;elbow=vertical;curved=0;rounded=0;entryX=0;entryY=0.02;entryDx=0;entryDy=0;entryPerimeter=0;exitX=0.962;exitY=0.123;exitDx=0;exitDy=0;exitPerimeter=0;" edge="1" parent="IsXBaeBT_RepAmFhAnBz-1" source="pbPh78cCbFt60r4yvOK_-17" target="IsXBaeBT_RepAmFhAnBz-18">
          <mxGeometry width="80" relative="1" as="geometry">
            <mxPoint x="-90" y="720" as="sourcePoint" />
            <mxPoint x="-10" y="720" as="targetPoint" />
          </mxGeometry>
        </mxCell>
        <mxCell id="pbPh78cCbFt60r4yvOK_-5" value="Poišči konflikte za podano entiteto" style="html=1;verticalAlign=bottom;endArrow=block;edgeStyle=elbowEdgeStyle;elbow=vertical;curved=0;rounded=0;entryX=-0.093;entryY=0.048;entryDx=0;entryDy=0;entryPerimeter=0;" edge="1" target="pbPh78cCbFt60r4yvOK_-4" parent="IsXBaeBT_RepAmFhAnBz-1" source="IsXBaeBT_RepAmFhAnBz-18">
          <mxGeometry relative="1" as="geometry">
            <mxPoint x="555" y="770" as="sourcePoint" />
          </mxGeometry>
        </mxCell>
        <mxCell id="pbPh78cCbFt60r4yvOK_-6" value="Vrni pripadajoče konflikte ali prazen podatek" style="html=1;verticalAlign=bottom;endArrow=open;dashed=1;endSize=8;edgeStyle=elbowEdgeStyle;elbow=vertical;curved=0;rounded=0;" edge="1" source="pbPh78cCbFt60r4yvOK_-4" parent="IsXBaeBT_RepAmFhAnBz-1" target="IsXBaeBT_RepAmFhAnBz-18">
          <mxGeometry relative="1" as="geometry">
            <mxPoint x="555" y="845" as="targetPoint" />
          </mxGeometry>
        </mxCell>
        <mxCell id="pbPh78cCbFt60r4yvOK_-7" value="Vrne seznam konfliktov ali prazen podatek" style="html=1;verticalAlign=bottom;endArrow=open;dashed=1;endSize=8;edgeStyle=elbowEdgeStyle;elbow=vertical;curved=0;rounded=0;" edge="1" parent="IsXBaeBT_RepAmFhAnBz-1" source="IsXBaeBT_RepAmFhAnBz-18">
          <mxGeometry x="0.0003" relative="1" as="geometry">
            <mxPoint x="120" y="810" as="sourcePoint" />
            <mxPoint x="-101" y="790" as="targetPoint" />
            <Array as="points">
              <mxPoint x="-70" y="790" />
              <mxPoint x="-100" y="810" />
              <mxPoint x="100" y="810" />
              <mxPoint x="120" y="810" />
            </Array>
            <mxPoint as="offset" />
          </mxGeometry>
        </mxCell>
        <mxCell id="pbPh78cCbFt60r4yvOK_-8" value="" style="shape=umlLifeline;perimeter=lifelinePerimeter;whiteSpace=wrap;html=1;container=1;dropTarget=0;collapsible=0;recursiveResize=0;outlineConnect=0;portConstraint=eastwest;newEdgeStyle={&quot;edgeStyle&quot;:&quot;elbowEdgeStyle&quot;,&quot;elbow&quot;:&quot;vertical&quot;,&quot;curved&quot;:0,&quot;rounded&quot;:0};participant=umlActor;" vertex="1" parent="IsXBaeBT_RepAmFhAnBz-1">
          <mxGeometry x="-290" y="480" width="20" height="930" as="geometry" />
        </mxCell>
        <mxCell id="pbPh78cCbFt60r4yvOK_-9" value="Zahteva za prikaz konfliktov&lt;br&gt;neke entitete" style="html=1;verticalAlign=bottom;endArrow=block;edgeStyle=elbowEdgeStyle;elbow=vertical;curved=0;rounded=0;entryX=-0.119;entryY=0.136;entryDx=0;entryDy=0;entryPerimeter=0;" edge="1" parent="IsXBaeBT_RepAmFhAnBz-1" source="pbPh78cCbFt60r4yvOK_-8" target="pbPh78cCbFt60r4yvOK_-17">
          <mxGeometry width="80" relative="1" as="geometry">
            <mxPoint x="-270" y="710.5" as="sourcePoint" />
            <mxPoint x="-190" y="710.5" as="targetPoint" />
          </mxGeometry>
        </mxCell>
        <mxCell id="pbPh78cCbFt60r4yvOK_-10" value="Vrne seznam konfliktov&lt;br&gt;ali prazen podatek" style="html=1;verticalAlign=bottom;endArrow=open;dashed=1;endSize=8;edgeStyle=elbowEdgeStyle;elbow=vertical;curved=0;rounded=0;exitX=-0.065;exitY=0.792;exitDx=0;exitDy=0;exitPerimeter=0;" edge="1" parent="IsXBaeBT_RepAmFhAnBz-1" source="pbPh78cCbFt60r4yvOK_-17" target="pbPh78cCbFt60r4yvOK_-8">
          <mxGeometry relative="1" as="geometry">
            <mxPoint x="-140" y="810" as="sourcePoint" />
            <mxPoint x="-220" y="810" as="targetPoint" />
          </mxGeometry>
        </mxCell>
        <mxCell id="pbPh78cCbFt60r4yvOK_-11" value="Zahteva za rešitev &lt;br&gt;določenega konflikta" style="html=1;verticalAlign=bottom;endArrow=block;edgeStyle=elbowEdgeStyle;elbow=vertical;curved=0;rounded=0;entryX=0.49;entryY=0.222;entryDx=0;entryDy=0;entryPerimeter=0;" edge="1" parent="IsXBaeBT_RepAmFhAnBz-1" source="pbPh78cCbFt60r4yvOK_-8" target="IsXBaeBT_RepAmFhAnBz-26">
          <mxGeometry width="80" relative="1" as="geometry">
            <mxPoint x="-270" y="880.19" as="sourcePoint" />
            <mxPoint x="-190" y="880.19" as="targetPoint" />
            <Array as="points">
              <mxPoint x="-110" y="880" />
            </Array>
          </mxGeometry>
        </mxCell>
        <mxCell id="pbPh78cCbFt60r4yvOK_-12" value="Zahteva za rešitev &lt;br&gt;določenega konflikta z &lt;br&gt;lokalnimi spremembami" style="html=1;verticalAlign=bottom;endArrow=block;edgeStyle=elbowEdgeStyle;elbow=vertical;curved=0;rounded=0;" edge="1" parent="IsXBaeBT_RepAmFhAnBz-1">
          <mxGeometry x="0.001" width="80" relative="1" as="geometry">
            <mxPoint x="-100" y="989" as="sourcePoint" />
            <mxPoint x="159" y="989" as="targetPoint" />
            <Array as="points">
              <mxPoint x="30" y="989" />
            </Array>
            <mxPoint as="offset" />
          </mxGeometry>
        </mxCell>
        <mxCell id="pbPh78cCbFt60r4yvOK_-19" value="Poišči podatke povezane s podanim konfliktom" style="html=1;verticalAlign=bottom;endArrow=block;edgeStyle=elbowEdgeStyle;elbow=vertical;curved=0;rounded=0;" edge="1" parent="IsXBaeBT_RepAmFhAnBz-1" source="IsXBaeBT_RepAmFhAnBz-18" target="pbPh78cCbFt60r4yvOK_-20">
          <mxGeometry width="80" relative="1" as="geometry">
            <mxPoint x="230" y="1030" as="sourcePoint" />
            <mxPoint x="310" y="1030" as="targetPoint" />
            <Array as="points">
              <mxPoint x="171" y="990" />
            </Array>
          </mxGeometry>
        </mxCell>
        <mxCell id="pbPh78cCbFt60r4yvOK_-21" value="Vrne vse podatke povezane s konfliktom" style="html=1;verticalAlign=bottom;endArrow=open;dashed=1;endSize=8;edgeStyle=elbowEdgeStyle;elbow=vertical;curved=0;rounded=0;" edge="1" parent="IsXBaeBT_RepAmFhAnBz-1" source="pbPh78cCbFt60r4yvOK_-20">
          <mxGeometry relative="1" as="geometry">
            <mxPoint x="500" y="1040" as="sourcePoint" />
            <mxPoint x="171" y="1020" as="targetPoint" />
          </mxGeometry>
        </mxCell>
        <mxCell id="pbPh78cCbFt60r4yvOK_-24" value="Alternativne možnosti" style="swimlane;childLayout=stackLayout;resizeParent=1;resizeParentMax=0;horizontal=1;startSize=20;horizontalStack=0;html=1;" vertex="1" parent="IsXBaeBT_RepAmFhAnBz-1">
          <mxGeometry x="230" y="1280" width="160" height="520" as="geometry" />
        </mxCell>
        <mxCell id="pbPh78cCbFt60r4yvOK_-25" value="Odstranili smo &lt;br&gt;zadnji konflikt" style="swimlane;startSize=40;horizontal=0;html=1;" vertex="1" parent="pbPh78cCbFt60r4yvOK_-24">
          <mxGeometry y="20" width="160" height="330" as="geometry" />
        </mxCell>
        <mxCell id="pbPh78cCbFt60r4yvOK_-26" value="Odstranili smo&lt;br&gt;enega od konfliktov" style="swimlane;startSize=30;horizontal=0;html=1;" vertex="1" parent="pbPh78cCbFt60r4yvOK_-24">
          <mxGeometry y="350" width="160" height="170" as="geometry" />
        </mxCell>
        <mxCell id="pbPh78cCbFt60r4yvOK_-29" value="Shranimo v bazo posodobljen podatek s spremembami" style="html=1;verticalAlign=bottom;endArrow=block;edgeStyle=elbowEdgeStyle;elbow=vertical;curved=0;rounded=0;exitX=1.055;exitY=0.448;exitDx=0;exitDy=0;exitPerimeter=0;" edge="1" target="pbPh78cCbFt60r4yvOK_-28" parent="IsXBaeBT_RepAmFhAnBz-1" source="IsXBaeBT_RepAmFhAnBz-18">
          <mxGeometry relative="1" as="geometry">
            <mxPoint x="435" y="1160" as="sourcePoint" />
            <Array as="points">
              <mxPoint x="340" y="1320" />
            </Array>
          </mxGeometry>
        </mxCell>
        <mxCell id="pbPh78cCbFt60r4yvOK_-30" value="Uspešno shranjen podatek" style="html=1;verticalAlign=bottom;endArrow=open;dashed=1;endSize=8;edgeStyle=elbowEdgeStyle;elbow=vertical;curved=0;rounded=0;" edge="1" source="pbPh78cCbFt60r4yvOK_-28" parent="IsXBaeBT_RepAmFhAnBz-1" target="IsXBaeBT_RepAmFhAnBz-18">
          <mxGeometry x="0.0005" relative="1" as="geometry">
            <mxPoint x="435" y="1235" as="targetPoint" />
            <Array as="points">
              <mxPoint x="338" y="1350" />
            </Array>
            <mxPoint as="offset" />
          </mxGeometry>
        </mxCell>
        <mxCell id="pbPh78cCbFt60r4yvOK_-33" value="Pobrišemo vse povezano z rešenim konfliktom" style="html=1;verticalAlign=bottom;endArrow=block;edgeStyle=elbowEdgeStyle;elbow=vertical;curved=0;rounded=0;" edge="1" target="pbPh78cCbFt60r4yvOK_-32" parent="IsXBaeBT_RepAmFhAnBz-1" source="IsXBaeBT_RepAmFhAnBz-18">
          <mxGeometry relative="1" as="geometry">
            <mxPoint x="555" y="1220" as="sourcePoint" />
            <Array as="points">
              <mxPoint x="620" y="1400" />
            </Array>
          </mxGeometry>
        </mxCell>
        <mxCell id="pbPh78cCbFt60r4yvOK_-34" value="Uspešno pobrisan podatek" style="html=1;verticalAlign=bottom;endArrow=open;dashed=1;endSize=8;edgeStyle=elbowEdgeStyle;elbow=vertical;curved=0;rounded=0;exitX=-0.093;exitY=0.76;exitDx=0;exitDy=0;exitPerimeter=0;" edge="1" source="pbPh78cCbFt60r4yvOK_-32" parent="IsXBaeBT_RepAmFhAnBz-1">
          <mxGeometry relative="1" as="geometry">
            <mxPoint x="170" y="1424" as="targetPoint" />
            <Array as="points">
              <mxPoint x="400" y="1424" />
            </Array>
          </mxGeometry>
        </mxCell>
        <mxCell id="pbPh78cCbFt60r4yvOK_-38" value="Uspešno zaključena operacija" style="html=1;verticalAlign=bottom;endArrow=open;dashed=1;endSize=8;edgeStyle=elbowEdgeStyle;elbow=vertical;curved=0;rounded=0;entryX=1.14;entryY=0.739;entryDx=0;entryDy=0;entryPerimeter=0;" edge="1" parent="IsXBaeBT_RepAmFhAnBz-1" source="IsXBaeBT_RepAmFhAnBz-18" target="pbPh78cCbFt60r4yvOK_-18">
          <mxGeometry x="-0.011" relative="1" as="geometry">
            <mxPoint x="-140" y="1370" as="sourcePoint" />
            <mxPoint x="-20" y="1370" as="targetPoint" />
            <Array as="points" />
            <mxPoint as="offset" />
          </mxGeometry>
        </mxCell>
        <mxCell id="pbPh78cCbFt60r4yvOK_-40" value="V bazi popravimo vse povezano s konfliktom (popravljen objekt + odstranjen konflikt)" style="html=1;verticalAlign=bottom;endArrow=block;edgeStyle=elbowEdgeStyle;elbow=vertical;curved=0;rounded=0;" edge="1" target="pbPh78cCbFt60r4yvOK_-39" parent="IsXBaeBT_RepAmFhAnBz-1" source="IsXBaeBT_RepAmFhAnBz-18">
          <mxGeometry relative="1" as="geometry">
            <mxPoint x="555" y="1380" as="sourcePoint" />
            <Array as="points">
              <mxPoint x="620" y="1670" />
            </Array>
            <mxPoint as="offset" />
          </mxGeometry>
        </mxCell>
        <mxCell id="pbPh78cCbFt60r4yvOK_-41" value="Uspešno shranjen podatek" style="html=1;verticalAlign=bottom;endArrow=open;dashed=1;endSize=8;edgeStyle=elbowEdgeStyle;elbow=vertical;curved=0;rounded=0;" edge="1" source="pbPh78cCbFt60r4yvOK_-39" parent="IsXBaeBT_RepAmFhAnBz-1" target="IsXBaeBT_RepAmFhAnBz-18">
          <mxGeometry relative="1" as="geometry">
            <mxPoint x="555" y="1455" as="targetPoint" />
          </mxGeometry>
        </mxCell>
        <mxCell id="pbPh78cCbFt60r4yvOK_-42" value="Uspešno zaključena operacija" style="html=1;verticalAlign=bottom;endArrow=open;dashed=1;endSize=8;edgeStyle=elbowEdgeStyle;elbow=vertical;curved=0;rounded=0;" edge="1" parent="IsXBaeBT_RepAmFhAnBz-1" target="pbPh78cCbFt60r4yvOK_-18">
          <mxGeometry relative="1" as="geometry">
            <mxPoint x="159" y="1609.2" as="sourcePoint" />
            <mxPoint x="30" y="1450" as="targetPoint" />
            <Array as="points">
              <mxPoint x="150" y="1790" />
            </Array>
          </mxGeometry>
        </mxCell>
      </root>
    </mxGraphModel>
  </diagram>
  <diagram name="DEPRECATEDinicializacijaKnjiznice" id="13e1069c-82ec-6db2-03f1-153e76fe0fe0">
    <mxGraphModel dx="3109" dy="1992" grid="1" gridSize="10" guides="1" tooltips="1" connect="1" arrows="1" fold="1" page="1" pageScale="1" pageWidth="1100" pageHeight="850" background="none" math="0" shadow="0">
      <root>
        <mxCell id="0" />
        <mxCell id="1" parent="0" />
        <mxCell id="7baba1c4bc27f4b0-2" value="Baza sinhronizacijskih podatkov" style="shape=umlLifeline;perimeter=lifelinePerimeter;whiteSpace=wrap;html=1;container=1;collapsible=0;recursiveResize=0;outlineConnect=0;rounded=1;shadow=0;comic=0;labelBackgroundColor=none;strokeWidth=1;fontFamily=Verdana;fontSize=12;align=center;" parent="1" vertex="1">
          <mxGeometry x="240" y="80" width="100" height="2180" as="geometry" />
        </mxCell>
        <mxCell id="7baba1c4bc27f4b0-10" value="" style="html=1;points=[];perimeter=orthogonalPerimeter;rounded=0;shadow=0;comic=0;labelBackgroundColor=none;strokeWidth=1;fontFamily=Verdana;fontSize=12;align=center;" parent="7baba1c4bc27f4b0-2" vertex="1">
          <mxGeometry x="45" y="100" width="10" height="230" as="geometry" />
        </mxCell>
        <mxCell id="cZ3sVCJCufPpELabxpdB-27" value="" style="html=1;points=[];perimeter=orthogonalPerimeter;outlineConnect=0;targetShapes=umlLifeline;portConstraint=eastwest;newEdgeStyle={&quot;edgeStyle&quot;:&quot;elbowEdgeStyle&quot;,&quot;elbow&quot;:&quot;vertical&quot;,&quot;curved&quot;:0,&quot;rounded&quot;:0};" vertex="1" parent="7baba1c4bc27f4b0-2">
          <mxGeometry x="45" y="570" width="10" height="50" as="geometry" />
        </mxCell>
        <mxCell id="cZ3sVCJCufPpELabxpdB-93" value="" style="html=1;points=[];perimeter=orthogonalPerimeter;outlineConnect=0;targetShapes=umlLifeline;portConstraint=eastwest;newEdgeStyle={&quot;edgeStyle&quot;:&quot;elbowEdgeStyle&quot;,&quot;elbow&quot;:&quot;vertical&quot;,&quot;curved&quot;:0,&quot;rounded&quot;:0};" vertex="1" parent="7baba1c4bc27f4b0-2">
          <mxGeometry x="35.41" y="1290" width="10" height="110" as="geometry" />
        </mxCell>
        <mxCell id="7baba1c4bc27f4b0-3" value="Baza konfliktih podatkov" style="shape=umlLifeline;perimeter=lifelinePerimeter;whiteSpace=wrap;html=1;container=1;collapsible=0;recursiveResize=0;outlineConnect=0;rounded=1;shadow=0;comic=0;labelBackgroundColor=none;strokeWidth=1;fontFamily=Verdana;fontSize=12;align=center;" parent="1" vertex="1">
          <mxGeometry x="400" y="80" width="100" height="2160" as="geometry" />
        </mxCell>
        <mxCell id="7baba1c4bc27f4b0-13" value="" style="html=1;points=[];perimeter=orthogonalPerimeter;rounded=0;shadow=0;comic=0;labelBackgroundColor=none;strokeWidth=1;fontFamily=Verdana;fontSize=12;align=center;" parent="7baba1c4bc27f4b0-3" vertex="1">
          <mxGeometry x="45" y="120" width="10" height="200" as="geometry" />
        </mxCell>
        <mxCell id="cZ3sVCJCufPpELabxpdB-28" value="" style="html=1;points=[];perimeter=orthogonalPerimeter;outlineConnect=0;targetShapes=umlLifeline;portConstraint=eastwest;newEdgeStyle={&quot;edgeStyle&quot;:&quot;elbowEdgeStyle&quot;,&quot;elbow&quot;:&quot;vertical&quot;,&quot;curved&quot;:0,&quot;rounded&quot;:0};" vertex="1" parent="7baba1c4bc27f4b0-3">
          <mxGeometry x="45" y="610" width="10" height="40" as="geometry" />
        </mxCell>
        <mxCell id="cZ3sVCJCufPpELabxpdB-74" value="" style="html=1;points=[];perimeter=orthogonalPerimeter;outlineConnect=0;targetShapes=umlLifeline;portConstraint=eastwest;newEdgeStyle={&quot;edgeStyle&quot;:&quot;elbowEdgeStyle&quot;,&quot;elbow&quot;:&quot;vertical&quot;,&quot;curved&quot;:0,&quot;rounded&quot;:0};" vertex="1" parent="7baba1c4bc27f4b0-3">
          <mxGeometry x="35.41" y="1170" width="10" height="80" as="geometry" />
        </mxCell>
        <mxCell id="7baba1c4bc27f4b0-4" value="Baza za ponovne poskuse" style="shape=umlLifeline;perimeter=lifelinePerimeter;whiteSpace=wrap;html=1;container=1;collapsible=0;recursiveResize=0;outlineConnect=0;rounded=1;shadow=0;comic=0;labelBackgroundColor=none;strokeWidth=1;fontFamily=Verdana;fontSize=12;align=center;" parent="1" vertex="1">
          <mxGeometry x="540" y="80" width="100" height="2160" as="geometry" />
        </mxCell>
        <mxCell id="cZ3sVCJCufPpELabxpdB-29" value="" style="html=1;points=[];perimeter=orthogonalPerimeter;outlineConnect=0;targetShapes=umlLifeline;portConstraint=eastwest;newEdgeStyle={&quot;edgeStyle&quot;:&quot;elbowEdgeStyle&quot;,&quot;elbow&quot;:&quot;vertical&quot;,&quot;curved&quot;:0,&quot;rounded&quot;:0};" vertex="1" parent="7baba1c4bc27f4b0-4">
          <mxGeometry x="45" y="660" width="10" height="40" as="geometry" />
        </mxCell>
        <mxCell id="cZ3sVCJCufPpELabxpdB-54" value="" style="html=1;points=[];perimeter=orthogonalPerimeter;outlineConnect=0;targetShapes=umlLifeline;portConstraint=eastwest;newEdgeStyle={&quot;edgeStyle&quot;:&quot;elbowEdgeStyle&quot;,&quot;elbow&quot;:&quot;vertical&quot;,&quot;curved&quot;:0,&quot;rounded&quot;:0};" vertex="1" parent="7baba1c4bc27f4b0-4">
          <mxGeometry x="35.41" y="1170" width="10" height="80" as="geometry" />
        </mxCell>
        <mxCell id="7baba1c4bc27f4b0-5" value="Baza za začasne podatke" style="shape=umlLifeline;perimeter=lifelinePerimeter;whiteSpace=wrap;html=1;container=1;collapsible=0;recursiveResize=0;outlineConnect=0;rounded=1;shadow=0;comic=0;labelBackgroundColor=none;strokeWidth=1;fontFamily=Verdana;fontSize=12;align=center;" parent="1" vertex="1">
          <mxGeometry x="680" y="80" width="100" height="2160" as="geometry" />
        </mxCell>
        <mxCell id="cZ3sVCJCufPpELabxpdB-30" value="" style="html=1;points=[];perimeter=orthogonalPerimeter;outlineConnect=0;targetShapes=umlLifeline;portConstraint=eastwest;newEdgeStyle={&quot;edgeStyle&quot;:&quot;elbowEdgeStyle&quot;,&quot;elbow&quot;:&quot;vertical&quot;,&quot;curved&quot;:0,&quot;rounded&quot;:0};" vertex="1" parent="7baba1c4bc27f4b0-5">
          <mxGeometry x="45" y="710" width="10" height="30" as="geometry" />
        </mxCell>
        <mxCell id="7baba1c4bc27f4b0-6" value="Procesorska nit za sinhronizacijo" style="shape=umlLifeline;perimeter=lifelinePerimeter;whiteSpace=wrap;html=1;container=1;collapsible=0;recursiveResize=0;outlineConnect=0;rounded=1;shadow=0;comic=0;labelBackgroundColor=none;strokeWidth=1;fontFamily=Verdana;fontSize=12;align=center;" parent="1" vertex="1">
          <mxGeometry x="820" y="80" width="100" height="2160" as="geometry" />
        </mxCell>
        <mxCell id="cZ3sVCJCufPpELabxpdB-41" value="" style="html=1;points=[];perimeter=orthogonalPerimeter;outlineConnect=0;targetShapes=umlLifeline;portConstraint=eastwest;newEdgeStyle={&quot;edgeStyle&quot;:&quot;elbowEdgeStyle&quot;,&quot;elbow&quot;:&quot;vertical&quot;,&quot;curved&quot;:0,&quot;rounded&quot;:0};" vertex="1" parent="7baba1c4bc27f4b0-6">
          <mxGeometry x="45" y="740" width="10" height="80" as="geometry" />
        </mxCell>
        <mxCell id="7baba1c4bc27f4b0-7" value="Procesorska nit za ponovni poskus" style="shape=umlLifeline;perimeter=lifelinePerimeter;whiteSpace=wrap;html=1;container=1;collapsible=0;recursiveResize=0;outlineConnect=0;rounded=1;shadow=0;comic=0;labelBackgroundColor=none;strokeWidth=1;fontFamily=Verdana;fontSize=12;align=center;" parent="1" vertex="1">
          <mxGeometry x="960" y="80" width="100" height="2160" as="geometry" />
        </mxCell>
        <mxCell id="cZ3sVCJCufPpELabxpdB-44" value="" style="html=1;points=[];perimeter=orthogonalPerimeter;outlineConnect=0;targetShapes=umlLifeline;portConstraint=eastwest;newEdgeStyle={&quot;edgeStyle&quot;:&quot;elbowEdgeStyle&quot;,&quot;elbow&quot;:&quot;vertical&quot;,&quot;curved&quot;:0,&quot;rounded&quot;:0};" vertex="1" parent="7baba1c4bc27f4b0-7">
          <mxGeometry x="45" y="830" width="10" height="50" as="geometry" />
        </mxCell>
        <mxCell id="7baba1c4bc27f4b0-8" value="Sinhronizacijska knjižnica" style="shape=umlLifeline;perimeter=lifelinePerimeter;whiteSpace=wrap;html=1;container=1;collapsible=0;recursiveResize=0;outlineConnect=0;rounded=1;shadow=0;comic=0;labelBackgroundColor=none;strokeWidth=1;fontFamily=Verdana;fontSize=12;align=center;" parent="1" vertex="1">
          <mxGeometry x="101.43" y="90" width="100" height="2170" as="geometry" />
        </mxCell>
        <mxCell id="7baba1c4bc27f4b0-9" value="" style="html=1;points=[];perimeter=orthogonalPerimeter;rounded=0;shadow=0;comic=0;labelBackgroundColor=none;strokeWidth=1;fontFamily=Verdana;fontSize=12;align=center;" parent="7baba1c4bc27f4b0-8" vertex="1">
          <mxGeometry x="45" y="100" width="10" height="440" as="geometry" />
        </mxCell>
        <mxCell id="cZ3sVCJCufPpELabxpdB-26" value="" style="html=1;points=[];perimeter=orthogonalPerimeter;outlineConnect=0;targetShapes=umlLifeline;portConstraint=eastwest;newEdgeStyle={&quot;edgeStyle&quot;:&quot;elbowEdgeStyle&quot;,&quot;elbow&quot;:&quot;vertical&quot;,&quot;curved&quot;:0,&quot;rounded&quot;:0};" vertex="1" parent="7baba1c4bc27f4b0-8">
          <mxGeometry x="44.57" y="560" width="10" height="520" as="geometry" />
        </mxCell>
        <mxCell id="cZ3sVCJCufPpELabxpdB-71" value="" style="html=1;points=[];perimeter=orthogonalPerimeter;outlineConnect=0;targetShapes=umlLifeline;portConstraint=eastwest;newEdgeStyle={&quot;edgeStyle&quot;:&quot;elbowEdgeStyle&quot;,&quot;elbow&quot;:&quot;vertical&quot;,&quot;curved&quot;:0,&quot;rounded&quot;:0};" vertex="1" parent="7baba1c4bc27f4b0-8">
          <mxGeometry x="34.980000000000004" y="1140" width="10" height="310" as="geometry" />
        </mxCell>
        <mxCell id="Df6f4fNq-TRuwmSUqYlD-4" value="" style="html=1;points=[];perimeter=orthogonalPerimeter;outlineConnect=0;targetShapes=umlLifeline;portConstraint=eastwest;newEdgeStyle={&quot;edgeStyle&quot;:&quot;elbowEdgeStyle&quot;,&quot;elbow&quot;:&quot;vertical&quot;,&quot;curved&quot;:0,&quot;rounded&quot;:0};" vertex="1" parent="7baba1c4bc27f4b0-8">
          <mxGeometry x="49.56999999999999" y="900" width="10" height="40" as="geometry" />
        </mxCell>
        <mxCell id="Df6f4fNq-TRuwmSUqYlD-5" value="Inicializacija naročnine na obvestila" style="html=1;align=left;spacingLeft=2;endArrow=block;rounded=0;edgeStyle=orthogonalEdgeStyle;curved=0;rounded=0;" edge="1" target="Df6f4fNq-TRuwmSUqYlD-4" parent="7baba1c4bc27f4b0-8">
          <mxGeometry relative="1" as="geometry">
            <mxPoint x="54.56999999999999" y="880" as="sourcePoint" />
            <Array as="points">
              <mxPoint x="84.57" y="910" />
            </Array>
          </mxGeometry>
        </mxCell>
        <mxCell id="Df6f4fNq-TRuwmSUqYlD-6" value="" style="html=1;points=[];perimeter=orthogonalPerimeter;outlineConnect=0;targetShapes=umlLifeline;portConstraint=eastwest;newEdgeStyle={&quot;edgeStyle&quot;:&quot;elbowEdgeStyle&quot;,&quot;elbow&quot;:&quot;vertical&quot;,&quot;curved&quot;:0,&quot;rounded&quot;:0};" vertex="1" parent="7baba1c4bc27f4b0-8">
          <mxGeometry x="49.56999999999999" y="970" width="10" height="40" as="geometry" />
        </mxCell>
        <mxCell id="Df6f4fNq-TRuwmSUqYlD-7" value="Inicializacija intervala za samodejno sinronizacijo" style="html=1;align=left;spacingLeft=2;endArrow=block;rounded=0;edgeStyle=orthogonalEdgeStyle;curved=0;rounded=0;" edge="1" target="Df6f4fNq-TRuwmSUqYlD-6" parent="7baba1c4bc27f4b0-8">
          <mxGeometry relative="1" as="geometry">
            <mxPoint x="54.56999999999999" y="950" as="sourcePoint" />
            <Array as="points">
              <mxPoint x="84.57" y="980" />
            </Array>
          </mxGeometry>
        </mxCell>
        <mxCell id="7baba1c4bc27f4b0-16" value="" style="html=1;points=[];perimeter=orthogonalPerimeter;rounded=0;shadow=0;comic=0;labelBackgroundColor=none;strokeWidth=1;fontFamily=Verdana;fontSize=12;align=center;" parent="1" vertex="1">
          <mxGeometry x="585" y="220" width="10" height="180" as="geometry" />
        </mxCell>
        <mxCell id="7baba1c4bc27f4b0-17" value="dispatch" style="html=1;verticalAlign=bottom;endArrow=block;labelBackgroundColor=none;fontFamily=Verdana;fontSize=12;edgeStyle=elbowEdgeStyle;elbow=vertical;" parent="1" source="7baba1c4bc27f4b0-13" target="7baba1c4bc27f4b0-16" edge="1">
          <mxGeometry relative="1" as="geometry">
            <mxPoint x="510" y="220" as="sourcePoint" />
            <Array as="points">
              <mxPoint x="460" y="220" />
            </Array>
          </mxGeometry>
        </mxCell>
        <mxCell id="7baba1c4bc27f4b0-19" value="" style="html=1;points=[];perimeter=orthogonalPerimeter;rounded=0;shadow=0;comic=0;labelBackgroundColor=none;strokeWidth=1;fontFamily=Verdana;fontSize=12;align=center;" parent="1" vertex="1">
          <mxGeometry x="725" y="230" width="10" height="40" as="geometry" />
        </mxCell>
        <mxCell id="7baba1c4bc27f4b0-20" value="dispatch" style="html=1;verticalAlign=bottom;endArrow=block;entryX=0;entryY=0;labelBackgroundColor=none;fontFamily=Verdana;fontSize=12;edgeStyle=elbowEdgeStyle;elbow=vertical;" parent="1" source="7baba1c4bc27f4b0-16" target="7baba1c4bc27f4b0-19" edge="1">
          <mxGeometry relative="1" as="geometry">
            <mxPoint x="650" y="230" as="sourcePoint" />
          </mxGeometry>
        </mxCell>
        <mxCell id="7baba1c4bc27f4b0-21" value="return" style="html=1;verticalAlign=bottom;endArrow=open;dashed=1;endSize=8;labelBackgroundColor=none;fontFamily=Verdana;fontSize=12;edgeStyle=elbowEdgeStyle;elbow=vertical;" parent="1" source="7baba1c4bc27f4b0-19" target="7baba1c4bc27f4b0-16" edge="1">
          <mxGeometry relative="1" as="geometry">
            <mxPoint x="650" y="306" as="targetPoint" />
            <Array as="points">
              <mxPoint x="670" y="260" />
              <mxPoint x="700" y="260" />
            </Array>
          </mxGeometry>
        </mxCell>
        <mxCell id="7baba1c4bc27f4b0-22" value="" style="html=1;points=[];perimeter=orthogonalPerimeter;rounded=0;shadow=0;comic=0;labelBackgroundColor=none;strokeWidth=1;fontFamily=Verdana;fontSize=12;align=center;" parent="1" vertex="1">
          <mxGeometry x="585" y="440" width="10" height="140" as="geometry" />
        </mxCell>
        <mxCell id="7baba1c4bc27f4b0-23" value="dispatch" style="html=1;verticalAlign=bottom;endArrow=block;entryX=0;entryY=0;labelBackgroundColor=none;fontFamily=Verdana;fontSize=12;" parent="1" source="7baba1c4bc27f4b0-9" target="7baba1c4bc27f4b0-22" edge="1">
          <mxGeometry relative="1" as="geometry">
            <mxPoint x="510" y="420" as="sourcePoint" />
          </mxGeometry>
        </mxCell>
        <mxCell id="7baba1c4bc27f4b0-25" value="" style="html=1;points=[];perimeter=orthogonalPerimeter;rounded=0;shadow=0;comic=0;labelBackgroundColor=none;strokeColor=#000000;strokeWidth=1;fillColor=#FFFFFF;fontFamily=Verdana;fontSize=12;fontColor=#000000;align=center;" parent="1" vertex="1">
          <mxGeometry x="1005" y="460" width="10" height="30" as="geometry" />
        </mxCell>
        <mxCell id="7baba1c4bc27f4b0-26" value="dispatch" style="html=1;verticalAlign=bottom;endArrow=block;entryX=0;entryY=0;labelBackgroundColor=none;fontFamily=Verdana;fontSize=12;" parent="1" source="7baba1c4bc27f4b0-22" target="7baba1c4bc27f4b0-25" edge="1">
          <mxGeometry relative="1" as="geometry">
            <mxPoint x="930" y="340" as="sourcePoint" />
          </mxGeometry>
        </mxCell>
        <mxCell id="7baba1c4bc27f4b0-27" value="return" style="html=1;verticalAlign=bottom;endArrow=open;dashed=1;endSize=8;exitX=0;exitY=0.95;labelBackgroundColor=none;fontFamily=Verdana;fontSize=12;" parent="1" source="7baba1c4bc27f4b0-25" target="7baba1c4bc27f4b0-22" edge="1">
          <mxGeometry relative="1" as="geometry">
            <mxPoint x="930" y="416" as="targetPoint" />
          </mxGeometry>
        </mxCell>
        <mxCell id="7baba1c4bc27f4b0-28" value="" style="html=1;points=[];perimeter=orthogonalPerimeter;rounded=0;shadow=0;comic=0;labelBackgroundColor=none;strokeWidth=1;fontFamily=Verdana;fontSize=12;align=center;" parent="1" vertex="1">
          <mxGeometry x="870" y="550" width="10" height="60" as="geometry" />
        </mxCell>
        <mxCell id="7baba1c4bc27f4b0-29" value="dispatch" style="html=1;verticalAlign=bottom;endArrow=block;entryX=0;entryY=0;labelBackgroundColor=none;fontFamily=Verdana;fontSize=12;edgeStyle=elbowEdgeStyle;elbow=vertical;" parent="1" source="7baba1c4bc27f4b0-37" target="7baba1c4bc27f4b0-28" edge="1">
          <mxGeometry relative="1" as="geometry">
            <mxPoint x="800" y="550" as="sourcePoint" />
          </mxGeometry>
        </mxCell>
        <mxCell id="7baba1c4bc27f4b0-30" value="return" style="html=1;verticalAlign=bottom;endArrow=open;dashed=1;endSize=8;labelBackgroundColor=none;fontFamily=Verdana;fontSize=12;edgeStyle=elbowEdgeStyle;elbow=vertical;" parent="1" source="7baba1c4bc27f4b0-28" target="7baba1c4bc27f4b0-9" edge="1">
          <mxGeometry relative="1" as="geometry">
            <mxPoint x="800" y="626" as="targetPoint" />
            <Array as="points">
              <mxPoint x="570" y="600" />
            </Array>
          </mxGeometry>
        </mxCell>
        <mxCell id="7baba1c4bc27f4b0-11" value="dispatch" style="html=1;verticalAlign=bottom;endArrow=block;entryX=0;entryY=0;labelBackgroundColor=none;fontFamily=Verdana;fontSize=12;edgeStyle=elbowEdgeStyle;elbow=vertical;" parent="1" source="7baba1c4bc27f4b0-9" target="7baba1c4bc27f4b0-10" edge="1">
          <mxGeometry relative="1" as="geometry">
            <mxPoint x="220" y="190" as="sourcePoint" />
          </mxGeometry>
        </mxCell>
        <mxCell id="7baba1c4bc27f4b0-14" value="dispatch" style="html=1;verticalAlign=bottom;endArrow=block;entryX=0;entryY=0;labelBackgroundColor=none;fontFamily=Verdana;fontSize=12;edgeStyle=elbowEdgeStyle;elbow=vertical;" parent="1" source="7baba1c4bc27f4b0-10" target="7baba1c4bc27f4b0-13" edge="1">
          <mxGeometry relative="1" as="geometry">
            <mxPoint x="370" y="200" as="sourcePoint" />
          </mxGeometry>
        </mxCell>
        <mxCell id="7baba1c4bc27f4b0-34" value="" style="html=1;points=[];perimeter=orthogonalPerimeter;rounded=0;shadow=0;comic=0;labelBackgroundColor=none;strokeWidth=1;fontFamily=Verdana;fontSize=12;align=center;" parent="1" vertex="1">
          <mxGeometry x="590" y="300" width="10" height="70" as="geometry" />
        </mxCell>
        <mxCell id="7baba1c4bc27f4b0-35" value="dispatch" style="html=1;verticalAlign=bottom;endArrow=block;labelBackgroundColor=none;fontFamily=Verdana;fontSize=12;elbow=vertical;edgeStyle=orthogonalEdgeStyle;curved=1;entryX=1;entryY=0.286;entryPerimeter=0;exitX=1.038;exitY=0.345;exitPerimeter=0;" parent="1" source="7baba1c4bc27f4b0-16" target="7baba1c4bc27f4b0-34" edge="1">
          <mxGeometry relative="1" as="geometry">
            <mxPoint x="465" y="230" as="sourcePoint" />
            <mxPoint x="595" y="230" as="targetPoint" />
            <Array as="points">
              <mxPoint x="650" y="282" />
              <mxPoint x="650" y="320" />
            </Array>
          </mxGeometry>
        </mxCell>
        <mxCell id="7baba1c4bc27f4b0-36" value="dispatch" style="html=1;verticalAlign=bottom;endArrow=block;labelBackgroundColor=none;fontFamily=Verdana;fontSize=12;elbow=vertical;edgeStyle=orthogonalEdgeStyle;curved=1;exitX=1.066;exitY=0.713;exitPerimeter=0;" parent="1" source="7baba1c4bc27f4b0-34" edge="1">
          <mxGeometry relative="1" as="geometry">
            <mxPoint x="610.3333333333333" y="350" as="sourcePoint" />
            <mxPoint x="595" y="389" as="targetPoint" />
            <Array as="points">
              <mxPoint x="650" y="350" />
              <mxPoint x="650" y="389" />
            </Array>
          </mxGeometry>
        </mxCell>
        <mxCell id="7baba1c4bc27f4b0-37" value="" style="html=1;points=[];perimeter=orthogonalPerimeter;rounded=0;shadow=0;comic=0;labelBackgroundColor=none;strokeWidth=1;fontFamily=Verdana;fontSize=12;align=center;" parent="1" vertex="1">
          <mxGeometry x="590" y="520" width="10" height="40" as="geometry" />
        </mxCell>
        <mxCell id="7baba1c4bc27f4b0-39" value="dispatch" style="html=1;verticalAlign=bottom;endArrow=block;labelBackgroundColor=none;fontFamily=Verdana;fontSize=12;elbow=vertical;edgeStyle=orthogonalEdgeStyle;curved=1;entryX=1;entryY=0.286;entryPerimeter=0;exitX=1.038;exitY=0.345;exitPerimeter=0;" parent="1" edge="1">
          <mxGeometry relative="1" as="geometry">
            <mxPoint x="595.3333333333335" y="501" as="sourcePoint" />
            <mxPoint x="600.3333333333335" y="539.3333333333334" as="targetPoint" />
            <Array as="points">
              <mxPoint x="650" y="501" />
              <mxPoint x="650" y="539" />
            </Array>
          </mxGeometry>
        </mxCell>
        <mxCell id="7baba1c4bc27f4b0-40" value="Dostopna tocka do sinhronizacijske knjiznice na brskalniku" style="shape=note;whiteSpace=wrap;html=1;size=14;verticalAlign=top;align=left;spacingTop=-6;rounded=0;shadow=0;comic=0;labelBackgroundColor=none;strokeWidth=1;fontFamily=Verdana;fontSize=12" parent="1" vertex="1">
          <mxGeometry x="92.86" y="10" width="117.14" height="70" as="geometry" />
        </mxCell>
        <mxCell id="7baba1c4bc27f4b0-41" value="Operacije z bazo so asinhrone, ampak jih izvajamo tako, da postane logika sinhrona" style="shape=note;whiteSpace=wrap;html=1;size=14;verticalAlign=top;align=left;spacingTop=-6;rounded=0;shadow=0;comic=0;labelBackgroundColor=none;strokeWidth=1;fontFamily=Verdana;fontSize=12" parent="1" vertex="1">
          <mxGeometry x="240" y="-40" width="130" height="80" as="geometry" />
        </mxCell>
        <mxCell id="7baba1c4bc27f4b0-42" value="Note" style="shape=note;whiteSpace=wrap;html=1;size=14;verticalAlign=top;align=left;spacingTop=-6;rounded=0;shadow=0;comic=0;labelBackgroundColor=none;strokeWidth=1;fontFamily=Verdana;fontSize=12" parent="1" vertex="1">
          <mxGeometry x="400" y="30" width="100" height="35" as="geometry" />
        </mxCell>
        <mxCell id="7baba1c4bc27f4b0-43" value="Note" style="shape=note;whiteSpace=wrap;html=1;size=14;verticalAlign=top;align=left;spacingTop=-6;rounded=0;shadow=0;comic=0;labelBackgroundColor=none;strokeWidth=1;fontFamily=Verdana;fontSize=12" parent="1" vertex="1">
          <mxGeometry x="540" y="30" width="100" height="35" as="geometry" />
        </mxCell>
        <mxCell id="7baba1c4bc27f4b0-44" value="Note" style="shape=note;whiteSpace=wrap;html=1;size=14;verticalAlign=top;align=left;spacingTop=-6;rounded=0;shadow=0;comic=0;labelBackgroundColor=none;strokeWidth=1;fontFamily=Verdana;fontSize=12" parent="1" vertex="1">
          <mxGeometry x="680" y="30" width="100" height="35" as="geometry" />
        </mxCell>
        <mxCell id="7baba1c4bc27f4b0-45" value="Note" style="shape=note;whiteSpace=wrap;html=1;size=14;verticalAlign=top;align=left;spacingTop=-6;rounded=0;shadow=0;comic=0;labelBackgroundColor=none;strokeWidth=1;fontFamily=Verdana;fontSize=12" parent="1" vertex="1">
          <mxGeometry x="820" y="30" width="100" height="35" as="geometry" />
        </mxCell>
        <mxCell id="7baba1c4bc27f4b0-46" value="Note" style="shape=note;whiteSpace=wrap;html=1;size=14;verticalAlign=top;align=left;spacingTop=-6;rounded=0;shadow=0;comic=0;labelBackgroundColor=none;strokeWidth=1;fontFamily=Verdana;fontSize=12" parent="1" vertex="1">
          <mxGeometry x="960" y="30" width="100" height="35" as="geometry" />
        </mxCell>
        <mxCell id="cZ3sVCJCufPpELabxpdB-2" value="Streznik z zalednim delom sinhronizacijske knjiznice" style="shape=umlLifeline;perimeter=lifelinePerimeter;whiteSpace=wrap;html=1;container=1;collapsible=0;recursiveResize=0;outlineConnect=0;rounded=1;shadow=0;comic=0;labelBackgroundColor=none;strokeWidth=1;fontFamily=Verdana;fontSize=12;align=center;size=60;" vertex="1" parent="1">
          <mxGeometry x="1160" y="80" width="160" height="2160" as="geometry" />
        </mxCell>
        <mxCell id="cZ3sVCJCufPpELabxpdB-3" value="BE" style="shape=note;whiteSpace=wrap;html=1;size=14;verticalAlign=top;align=left;spacingTop=-6;rounded=0;shadow=0;comic=0;labelBackgroundColor=none;strokeWidth=1;fontFamily=Verdana;fontSize=12" vertex="1" parent="1">
          <mxGeometry x="1150" y="20" width="100" height="35" as="geometry" />
        </mxCell>
        <mxCell id="cZ3sVCJCufPpELabxpdB-8" value="Aplikacija brskalnika" style="shape=umlLifeline;perimeter=lifelinePerimeter;whiteSpace=wrap;html=1;container=1;collapsible=0;recursiveResize=0;outlineConnect=0;rounded=1;shadow=0;comic=0;labelBackgroundColor=none;strokeWidth=1;fontFamily=Verdana;fontSize=12;align=center;" vertex="1" parent="1">
          <mxGeometry x="-160" y="90" width="100" height="2190" as="geometry" />
        </mxCell>
        <mxCell id="cZ3sVCJCufPpELabxpdB-9" value="" style="html=1;points=[];perimeter=orthogonalPerimeter;rounded=0;shadow=0;comic=0;labelBackgroundColor=none;strokeWidth=1;fontFamily=Verdana;fontSize=12;align=center;" vertex="1" parent="cZ3sVCJCufPpELabxpdB-8">
          <mxGeometry x="45" y="100" width="10" height="440" as="geometry" />
        </mxCell>
        <mxCell id="cZ3sVCJCufPpELabxpdB-23" value="" style="html=1;points=[];perimeter=orthogonalPerimeter;outlineConnect=0;targetShapes=umlLifeline;portConstraint=eastwest;newEdgeStyle={&quot;edgeStyle&quot;:&quot;elbowEdgeStyle&quot;,&quot;elbow&quot;:&quot;vertical&quot;,&quot;curved&quot;:0,&quot;rounded&quot;:0};" vertex="1" parent="cZ3sVCJCufPpELabxpdB-8">
          <mxGeometry x="45" y="610" width="10" height="160" as="geometry" />
        </mxCell>
        <mxCell id="cZ3sVCJCufPpELabxpdB-47" value="" style="html=1;points=[];perimeter=orthogonalPerimeter;outlineConnect=0;targetShapes=umlLifeline;portConstraint=eastwest;newEdgeStyle={&quot;edgeStyle&quot;:&quot;elbowEdgeStyle&quot;,&quot;elbow&quot;:&quot;vertical&quot;,&quot;curved&quot;:0,&quot;rounded&quot;:0};" vertex="1" parent="cZ3sVCJCufPpELabxpdB-8">
          <mxGeometry x="35.41" y="1110" width="10" height="560" as="geometry" />
        </mxCell>
        <mxCell id="cZ3sVCJCufPpELabxpdB-48" style="edgeStyle=elbowEdgeStyle;rounded=0;orthogonalLoop=1;jettySize=auto;html=1;elbow=vertical;curved=0;" edge="1" parent="1" target="cZ3sVCJCufPpELabxpdB-47">
          <mxGeometry relative="1" as="geometry">
            <mxPoint x="-289.99909090909074" y="1350.454545454545" as="sourcePoint" />
          </mxGeometry>
        </mxCell>
        <mxCell id="cZ3sVCJCufPpELabxpdB-49" value="Uporabnik shrani &lt;br&gt;podatek za&lt;br&gt;&amp;nbsp;poljubno entiteto&lt;br&gt;" style="edgeLabel;html=1;align=center;verticalAlign=middle;resizable=0;points=[];" vertex="1" connectable="0" parent="cZ3sVCJCufPpELabxpdB-48">
          <mxGeometry x="-0.4381" y="-2" relative="1" as="geometry">
            <mxPoint x="35" y="-2" as="offset" />
          </mxGeometry>
        </mxCell>
        <mxCell id="cZ3sVCJCufPpELabxpdB-17" value="" style="shape=umlLifeline;perimeter=lifelinePerimeter;whiteSpace=wrap;html=1;container=1;dropTarget=0;collapsible=0;recursiveResize=0;outlineConnect=0;portConstraint=eastwest;newEdgeStyle={&quot;edgeStyle&quot;:&quot;elbowEdgeStyle&quot;,&quot;elbow&quot;:&quot;vertical&quot;,&quot;curved&quot;:0,&quot;rounded&quot;:0};participant=umlActor;" vertex="1" parent="1">
          <mxGeometry x="-290" y="100" width="20" height="1250" as="geometry" />
        </mxCell>
        <mxCell id="cZ3sVCJCufPpELabxpdB-21" value="" style="endArrow=classic;html=1;rounded=0;" edge="1" parent="1" target="cZ3sVCJCufPpELabxpdB-23">
          <mxGeometry width="50" height="50" relative="1" as="geometry">
            <mxPoint x="-280" y="710" as="sourcePoint" />
            <mxPoint x="-230" y="660" as="targetPoint" />
          </mxGeometry>
        </mxCell>
        <mxCell id="cZ3sVCJCufPpELabxpdB-22" value="Uporabnik odpre aplikacijo" style="edgeLabel;html=1;align=center;verticalAlign=middle;resizable=0;points=[];" vertex="1" connectable="0" parent="cZ3sVCJCufPpELabxpdB-21">
          <mxGeometry x="-0.115" y="-1" relative="1" as="geometry">
            <mxPoint y="1" as="offset" />
          </mxGeometry>
        </mxCell>
        <mxCell id="cZ3sVCJCufPpELabxpdB-24" value="" style="endArrow=classic;html=1;rounded=0;" edge="1" parent="1" source="cZ3sVCJCufPpELabxpdB-23" target="cZ3sVCJCufPpELabxpdB-26">
          <mxGeometry width="50" height="50" relative="1" as="geometry">
            <mxPoint x="-90" y="730" as="sourcePoint" />
            <mxPoint x="130" y="780" as="targetPoint" />
          </mxGeometry>
        </mxCell>
        <mxCell id="cZ3sVCJCufPpELabxpdB-25" value="Inicializacija sinhronizacijske knjižnice" style="edgeLabel;html=1;align=center;verticalAlign=middle;resizable=0;points=[];" vertex="1" connectable="0" parent="cZ3sVCJCufPpELabxpdB-24">
          <mxGeometry x="-0.2412" relative="1" as="geometry">
            <mxPoint x="21" y="1" as="offset" />
          </mxGeometry>
        </mxCell>
        <mxCell id="cZ3sVCJCufPpELabxpdB-31" style="edgeStyle=elbowEdgeStyle;rounded=0;orthogonalLoop=1;jettySize=auto;html=1;elbow=vertical;curved=0;entryX=-0.336;entryY=0.121;entryDx=0;entryDy=0;entryPerimeter=0;" edge="1" parent="1" source="cZ3sVCJCufPpELabxpdB-26" target="cZ3sVCJCufPpELabxpdB-27">
          <mxGeometry relative="1" as="geometry" />
        </mxCell>
        <mxCell id="cZ3sVCJCufPpELabxpdB-32" value="Inicializacija baze" style="edgeLabel;html=1;align=center;verticalAlign=middle;resizable=0;points=[];" vertex="1" connectable="0" parent="cZ3sVCJCufPpELabxpdB-31">
          <mxGeometry x="-0.2868" y="2" relative="1" as="geometry">
            <mxPoint y="1" as="offset" />
          </mxGeometry>
        </mxCell>
        <mxCell id="cZ3sVCJCufPpELabxpdB-33" style="edgeStyle=elbowEdgeStyle;rounded=0;orthogonalLoop=1;jettySize=auto;html=1;elbow=vertical;curved=0;" edge="1" parent="1" source="cZ3sVCJCufPpELabxpdB-26" target="cZ3sVCJCufPpELabxpdB-28">
          <mxGeometry relative="1" as="geometry" />
        </mxCell>
        <mxCell id="cZ3sVCJCufPpELabxpdB-34" value="Inicializacija baze" style="edgeLabel;html=1;align=center;verticalAlign=middle;resizable=0;points=[];" vertex="1" connectable="0" parent="cZ3sVCJCufPpELabxpdB-33">
          <mxGeometry x="-0.5986" y="1" relative="1" as="geometry">
            <mxPoint y="1" as="offset" />
          </mxGeometry>
        </mxCell>
        <mxCell id="cZ3sVCJCufPpELabxpdB-35" style="edgeStyle=elbowEdgeStyle;rounded=0;orthogonalLoop=1;jettySize=auto;html=1;elbow=vertical;curved=0;entryX=0.027;entryY=0.318;entryDx=0;entryDy=0;entryPerimeter=0;" edge="1" parent="1" source="cZ3sVCJCufPpELabxpdB-26" target="cZ3sVCJCufPpELabxpdB-29">
          <mxGeometry relative="1" as="geometry" />
        </mxCell>
        <mxCell id="cZ3sVCJCufPpELabxpdB-36" value="Inicializacija baze" style="edgeLabel;html=1;align=center;verticalAlign=middle;resizable=0;points=[];" vertex="1" connectable="0" parent="cZ3sVCJCufPpELabxpdB-35">
          <mxGeometry x="-0.6686" y="4" relative="1" as="geometry">
            <mxPoint y="1" as="offset" />
          </mxGeometry>
        </mxCell>
        <mxCell id="cZ3sVCJCufPpELabxpdB-42" style="edgeStyle=elbowEdgeStyle;rounded=0;orthogonalLoop=1;jettySize=auto;html=1;elbow=vertical;curved=0;entryX=0.5;entryY=0.375;entryDx=0;entryDy=0;entryPerimeter=0;" edge="1" parent="1" source="cZ3sVCJCufPpELabxpdB-26" target="cZ3sVCJCufPpELabxpdB-41">
          <mxGeometry relative="1" as="geometry" />
        </mxCell>
        <mxCell id="cZ3sVCJCufPpELabxpdB-43" value="Inicializacija procesorske niti za sinhronizacijo" style="edgeLabel;html=1;align=center;verticalAlign=middle;resizable=0;points=[];" vertex="1" connectable="0" parent="cZ3sVCJCufPpELabxpdB-42">
          <mxGeometry x="-0.8179" y="2" relative="1" as="geometry">
            <mxPoint x="224" as="offset" />
          </mxGeometry>
        </mxCell>
        <mxCell id="cZ3sVCJCufPpELabxpdB-45" style="edgeStyle=elbowEdgeStyle;rounded=0;orthogonalLoop=1;jettySize=auto;html=1;elbow=vertical;curved=0;entryX=-0.245;entryY=0.218;entryDx=0;entryDy=0;entryPerimeter=0;" edge="1" parent="1" source="cZ3sVCJCufPpELabxpdB-26" target="cZ3sVCJCufPpELabxpdB-44">
          <mxGeometry relative="1" as="geometry" />
        </mxCell>
        <mxCell id="cZ3sVCJCufPpELabxpdB-46" value="Inicializacija procesorske niti za posnovne poskuse" style="edgeLabel;html=1;align=center;verticalAlign=middle;resizable=0;points=[];" vertex="1" connectable="0" parent="cZ3sVCJCufPpELabxpdB-45">
          <mxGeometry x="-0.2226" y="-1" relative="1" as="geometry">
            <mxPoint as="offset" />
          </mxGeometry>
        </mxCell>
        <mxCell id="cZ3sVCJCufPpELabxpdB-55" value="Instanca baze" style="html=1;verticalAlign=bottom;endArrow=open;dashed=1;endSize=8;edgeStyle=elbowEdgeStyle;elbow=vertical;curved=0;rounded=0;" edge="1" parent="1" source="cZ3sVCJCufPpELabxpdB-27" target="7baba1c4bc27f4b0-8">
          <mxGeometry relative="1" as="geometry">
            <mxPoint x="260" y="720" as="sourcePoint" />
            <mxPoint x="160" y="720" as="targetPoint" />
            <Array as="points">
              <mxPoint x="150" y="700" />
            </Array>
          </mxGeometry>
        </mxCell>
        <mxCell id="cZ3sVCJCufPpELabxpdB-56" value="Instanca baze" style="html=1;verticalAlign=bottom;endArrow=open;dashed=1;endSize=8;edgeStyle=elbowEdgeStyle;elbow=vertical;curved=0;rounded=0;entryX=1.109;entryY=0.151;entryDx=0;entryDy=0;entryPerimeter=0;" edge="1" parent="1" source="cZ3sVCJCufPpELabxpdB-28" target="cZ3sVCJCufPpELabxpdB-26">
          <mxGeometry relative="1" as="geometry">
            <mxPoint x="430" y="789.55" as="sourcePoint" />
            <mxPoint x="350" y="789.55" as="targetPoint" />
          </mxGeometry>
        </mxCell>
        <mxCell id="cZ3sVCJCufPpELabxpdB-57" value="Instanca baze" style="html=1;verticalAlign=bottom;endArrow=open;dashed=1;endSize=8;edgeStyle=elbowEdgeStyle;elbow=vertical;curved=0;rounded=0;" edge="1" parent="1" source="cZ3sVCJCufPpELabxpdB-29" target="cZ3sVCJCufPpELabxpdB-26">
          <mxGeometry relative="1" as="geometry">
            <mxPoint x="560" y="840" as="sourcePoint" />
            <mxPoint x="480" y="840" as="targetPoint" />
          </mxGeometry>
        </mxCell>
        <mxCell id="cZ3sVCJCufPpELabxpdB-58" value="Instanca baze" style="html=1;verticalAlign=bottom;endArrow=open;dashed=1;endSize=8;edgeStyle=elbowEdgeStyle;elbow=vertical;curved=0;rounded=0;entryX=1.018;entryY=0.324;entryDx=0;entryDy=0;entryPerimeter=0;" edge="1" parent="1" source="cZ3sVCJCufPpELabxpdB-30" target="cZ3sVCJCufPpELabxpdB-26">
          <mxGeometry relative="1" as="geometry">
            <mxPoint x="600" y="890" as="sourcePoint" />
            <mxPoint x="520" y="890" as="targetPoint" />
          </mxGeometry>
        </mxCell>
        <mxCell id="cZ3sVCJCufPpELabxpdB-59" value="Instanca niti za manipuliranje" style="html=1;verticalAlign=bottom;endArrow=open;dashed=1;endSize=8;edgeStyle=elbowEdgeStyle;elbow=vertical;curved=0;rounded=0;" edge="1" parent="1" source="cZ3sVCJCufPpELabxpdB-41">
          <mxGeometry relative="1" as="geometry">
            <mxPoint x="770" y="880" as="sourcePoint" />
            <mxPoint x="160" y="870" as="targetPoint" />
          </mxGeometry>
        </mxCell>
        <mxCell id="cZ3sVCJCufPpELabxpdB-60" value="Instanca niti za manipuliranje" style="html=1;verticalAlign=bottom;endArrow=open;dashed=1;endSize=8;edgeStyle=elbowEdgeStyle;elbow=vertical;curved=0;rounded=0;entryX=1.109;entryY=0.571;entryDx=0;entryDy=0;entryPerimeter=0;" edge="1" parent="1" source="cZ3sVCJCufPpELabxpdB-44" target="cZ3sVCJCufPpELabxpdB-26">
          <mxGeometry relative="1" as="geometry">
            <mxPoint x="690" y="950" as="sourcePoint" />
            <mxPoint x="200" y="951" as="targetPoint" />
          </mxGeometry>
        </mxCell>
        <mxCell id="cZ3sVCJCufPpELabxpdB-61" style="edgeStyle=elbowEdgeStyle;rounded=0;orthogonalLoop=1;jettySize=auto;html=1;elbow=vertical;curved=0;entryX=-0.155;entryY=0.364;entryDx=0;entryDy=0;entryPerimeter=0;" edge="1" parent="1" source="cZ3sVCJCufPpELabxpdB-26" target="cZ3sVCJCufPpELabxpdB-30">
          <mxGeometry relative="1" as="geometry" />
        </mxCell>
        <mxCell id="cZ3sVCJCufPpELabxpdB-62" value="Inicializacija baze" style="edgeLabel;html=1;align=center;verticalAlign=middle;resizable=0;points=[];" vertex="1" connectable="0" parent="cZ3sVCJCufPpELabxpdB-61">
          <mxGeometry x="-0.772" y="1" relative="1" as="geometry">
            <mxPoint as="offset" />
          </mxGeometry>
        </mxCell>
        <mxCell id="cZ3sVCJCufPpELabxpdB-72" value="pozeni proces za shranjevanje" style="html=1;verticalAlign=bottom;endArrow=block;edgeStyle=elbowEdgeStyle;elbow=vertical;curved=0;rounded=0;" edge="1" target="cZ3sVCJCufPpELabxpdB-71" parent="1" source="cZ3sVCJCufPpELabxpdB-47">
          <mxGeometry relative="1" as="geometry">
            <mxPoint x="66.41" y="1230" as="sourcePoint" />
            <Array as="points">
              <mxPoint x="-9.159999999999993" y="1230" />
            </Array>
          </mxGeometry>
        </mxCell>
        <mxCell id="cZ3sVCJCufPpELabxpdB-73" value="return" style="html=1;verticalAlign=bottom;endArrow=open;dashed=1;endSize=8;edgeStyle=elbowEdgeStyle;elbow=vertical;curved=0;rounded=0;exitX=-0.164;exitY=0.934;exitDx=0;exitDy=0;exitPerimeter=0;" edge="1" source="cZ3sVCJCufPpELabxpdB-71" parent="1" target="cZ3sVCJCufPpELabxpdB-47">
          <mxGeometry x="0.013" relative="1" as="geometry">
            <mxPoint x="66.41" y="1305" as="targetPoint" />
            <mxPoint as="offset" />
          </mxGeometry>
        </mxCell>
        <mxCell id="cZ3sVCJCufPpELabxpdB-75" value="Poisci obstojece konflikte za podan objekt" style="html=1;verticalAlign=bottom;endArrow=block;edgeStyle=elbowEdgeStyle;elbow=vertical;curved=0;rounded=0;" edge="1" target="cZ3sVCJCufPpELabxpdB-74" parent="1" source="cZ3sVCJCufPpELabxpdB-71">
          <mxGeometry x="0.0065" relative="1" as="geometry">
            <mxPoint x="365.41" y="1250" as="sourcePoint" />
            <Array as="points">
              <mxPoint x="240.41" y="1250" />
            </Array>
            <mxPoint as="offset" />
          </mxGeometry>
        </mxCell>
        <mxCell id="cZ3sVCJCufPpELabxpdB-76" value="Podatek iz baze ali prazen podatek" style="html=1;verticalAlign=bottom;endArrow=open;dashed=1;endSize=8;edgeStyle=elbowEdgeStyle;elbow=vertical;curved=0;rounded=0;" edge="1" source="cZ3sVCJCufPpELabxpdB-74" parent="1">
          <mxGeometry relative="1" as="geometry">
            <mxPoint x="140.41" y="1330" as="targetPoint" />
          </mxGeometry>
        </mxCell>
        <mxCell id="cZ3sVCJCufPpELabxpdB-94" value="Poisci obstojeci&lt;br&gt;podatek" style="html=1;verticalAlign=bottom;endArrow=block;edgeStyle=elbowEdgeStyle;elbow=horizontal;curved=0;rounded=0;exitX=1.109;exitY=0.503;exitDx=0;exitDy=0;exitPerimeter=0;" edge="1" target="cZ3sVCJCufPpELabxpdB-93" parent="1" source="cZ3sVCJCufPpELabxpdB-71">
          <mxGeometry relative="1" as="geometry">
            <mxPoint x="205.41" y="1345" as="sourcePoint" />
          </mxGeometry>
        </mxCell>
        <mxCell id="cZ3sVCJCufPpELabxpdB-95" value="Podatek iz baze&lt;br&gt;ali prazen podatek" style="html=1;verticalAlign=bottom;endArrow=open;dashed=1;endSize=8;edgeStyle=elbowEdgeStyle;elbow=vertical;curved=0;rounded=0;entryX=1.109;entryY=0.762;entryDx=0;entryDy=0;entryPerimeter=0;" edge="1" source="cZ3sVCJCufPpELabxpdB-93" parent="1" target="cZ3sVCJCufPpELabxpdB-71">
          <mxGeometry relative="1" as="geometry">
            <mxPoint x="205.41" y="1420" as="targetPoint" />
          </mxGeometry>
        </mxCell>
        <mxCell id="cZ3sVCJCufPpELabxpdB-96" value="Alternativni izzidi" style="swimlane;childLayout=stackLayout;resizeParent=1;resizeParentMax=0;horizontal=1;startSize=20;horizontalStack=0;html=1;" vertex="1" parent="1">
          <mxGeometry x="-109.59" y="1240" width="250" height="520" as="geometry" />
        </mxCell>
        <mxCell id="cZ3sVCJCufPpELabxpdB-97" value="Konflikt obstaja" style="swimlane;startSize=20;horizontal=0;html=1;" vertex="1" parent="cZ3sVCJCufPpELabxpdB-96">
          <mxGeometry y="20" width="250" height="120" as="geometry" />
        </mxCell>
        <mxCell id="cZ3sVCJCufPpELabxpdB-98" value="Objekt v sinhr. bazi obstaja &lt;br&gt;in je v statusu posiljanja" style="swimlane;startSize=40;horizontal=0;html=1;" vertex="1" parent="cZ3sVCJCufPpELabxpdB-96">
          <mxGeometry y="140" width="250" height="210" as="geometry" />
        </mxCell>
        <mxCell id="cZ3sVCJCufPpELabxpdB-99" value="Uspesno shranjen podatek" style="swimlane;startSize=20;horizontal=0;html=1;" vertex="1" parent="cZ3sVCJCufPpELabxpdB-96">
          <mxGeometry y="350" width="250" height="170" as="geometry" />
        </mxCell>
        <mxCell id="Df6f4fNq-TRuwmSUqYlD-8" value="" style="html=1;points=[];perimeter=orthogonalPerimeter;outlineConnect=0;targetShapes=umlLifeline;portConstraint=eastwest;newEdgeStyle={&quot;edgeStyle&quot;:&quot;elbowEdgeStyle&quot;,&quot;elbow&quot;:&quot;vertical&quot;,&quot;curved&quot;:0,&quot;rounded&quot;:0};" vertex="1" parent="1">
          <mxGeometry x="150" y="1124" width="10" height="40" as="geometry" />
        </mxCell>
        <mxCell id="Df6f4fNq-TRuwmSUqYlD-9" value="Inicializacija intervala za samodejni preverjanje nedokončanih procesov (ponovni poskus)" style="html=1;align=left;spacingLeft=2;endArrow=block;rounded=0;edgeStyle=orthogonalEdgeStyle;curved=0;rounded=0;" edge="1" target="Df6f4fNq-TRuwmSUqYlD-8" parent="1">
          <mxGeometry relative="1" as="geometry">
            <mxPoint x="155" y="1104" as="sourcePoint" />
            <Array as="points">
              <mxPoint x="185" y="1134" />
            </Array>
          </mxGeometry>
        </mxCell>
      </root>
    </mxGraphModel>
  </diagram>
</mxfile>
